STARTFONT 2.1
COMMENT $Xorg: $
COMMENT ISO10646-1 extension by Markus Kuhn <mkuhn@acm.org>, 2001-03-20
COMMENT  (c) Copyright Bigelow & Holmes 1986, 1985. Lucida is a registered
COMMENT  trademark of Bigelow & Holmes. See LEGAL NOTICE file for terms 
COMMENT  of the license. 
FONT -B&H-Lucida-Medium-R-Normal-Sans-34-240-100-100-P-191-ISO10646-1
SIZE 24 100 100
FONTBOUNDINGBOX 55 50 -22 -12
STARTPROPERTIES 22
COMMENT Begin LogicalFontDescription
FONTNAME_REGISTRY ""
FOUNDRY "B&H"
FAMILY_NAME "Lucida"
WEIGHT_NAME "Medium"
SLANT "R"
SETWIDTH_NAME "Normal"
ADD_STYLE_NAME "Sans"
PIXEL_SIZE 34
POINT_SIZE 240
RESOLUTION_X 100
RESOLUTION_Y 100
SPACING "P"
AVERAGE_WIDTH 191
CHARSET_REGISTRY "ISO10646"
CHARSET_ENCODING "1"
COMMENT END LogicalFontDescription
FONT_ASCENT 31
FONT_DESCENT 8
DEFAULT_CHAR 0
COPYRIGHT "Copyright Bigelow & Holmes 1986, 1985."
FACE_NAME "Lucida Sans"
X_HEIGHT 18
CAP_HEIGHT 25
ENDPROPERTIES
CHARS 756
STARTCHAR char0
ENCODING 0
SWIDTH 735 0
DWIDTH 25 0
BBX 19 25 3 0
BITMAP
AAAAA0
000000
800020
000000
800020
000000
800020
000000
800020
000000
800020
000000
800020
000000
800020
000000
800020
000000
800020
000000
800020
000000
800020
000000
AAAAA0
ENDCHAR
STARTCHAR space
ENCODING 32
SWIDTH 316 0
DWIDTH 11 0
BBX 1 1 0 0
BITMAP
00
ENDCHAR
STARTCHAR exclam
ENCODING 33
SWIDTH 205 0
DWIDTH 11 0
BBX 3 25 4 0
BITMAP
E0
E0
E0
E0
E0
E0
E0
E0
E0
E0
E0
E0
E0
E0
E0
E0
E0
E0
00
00
00
E0
E0
E0
E0
ENDCHAR
STARTCHAR quotedbl
ENCODING 34
SWIDTH 373 0
DWIDTH 13 0
BBX 8 8 2 18
BITMAP
E7
E7
E7
E7
E7
E7
E7
E7
ENDCHAR
STARTCHAR numbersign
ENCODING 35
SWIDTH 633 0
DWIDTH 21 0
BBX 21 25 0 0
BITMAP
0071C0
00E1C0
00E1C0
00E380
00E380
01C380
01C380
3FFFF8
3FFFF8
3FFFF8
038700
038F00
038E00
078E00
070E00
FFFFE0
FFFFE0
FFFFE0
0E1C00
0E1C00
0E3800
0E3800
1C3800
1C3800
1C7000
ENDCHAR
STARTCHAR dollar
ENCODING 36
SWIDTH 633 0
DWIDTH 21 0
BBX 15 30 3 -3
BITMAP
0180
0180
0FF8
3FFE
3FCE
7D80
7980
7180
7180
7180
3980
3F80
1F80
0F80
03E0
01F0
01F8
01BC
019E
018E
018E
018E
019E
C1BE
FFFC
FFF8
1FF0
01C0
0180
0180
ENDCHAR
STARTCHAR percent
ENCODING 37
SWIDTH 669 0
DWIDTH 23 0
BBX 21 25 1 0
BITMAP
1E0078
7F8070
7380F0
E1C1E0
E1C3C0
E1C380
E1C780
E1CF00
E1CE00
739E00
7FBC00
1E7800
0073C0
00F7E0
01EE70
03DC38
039C38
079C38
0F1C38
0E1C38
1E1C38
3C1C38
780E70
7007E0
F003C0
ENDCHAR
STARTCHAR ampersand
ENCODING 38
SWIDTH 697 0
DWIDTH 24 0
BBX 21 25 1 0
BITMAP
00F800
03FE00
03FE00
07CF00
078700
078700
078700
078E00
03FE00
03FC00
0FF800
1FE000
3EF078
78F078
707878
F03C70
F03C70
F01EF0
F00FE0
F807E0
7C03C0
7E0780
3FFFC0
1FFCE0
07F0F8
ENDCHAR
STARTCHAR quotesingle
ENCODING 39
SWIDTH 229 0
DWIDTH 8 0
BBX 5 9 1 17
BITMAP
F8
F8
F8
F8
F8
70
70
70
70
ENDCHAR
STARTCHAR parenleft
ENCODING 40
SWIDTH 325 0
DWIDTH 11 0
BBX 9 32 1 -6
BITMAP
0080
0180
0380
0700
0E00
1C00
1C00
3800
3800
7800
7800
7000
F000
F000
F000
F000
F000
F000
F000
F000
7000
7000
7800
3800
3800
1C00
1C00
0E00
0700
0380
0180
0080
ENDCHAR
STARTCHAR parenright
ENCODING 41
SWIDTH 325 0
DWIDTH 11 0
BBX 9 32 1 -6
BITMAP
8000
C000
E000
7000
3800
1C00
1C00
0E00
0E00
0F00
0F00
0700
0780
0780
0780
0780
0780
0780
0780
0780
0700
0700
0F00
0E00
0E00
1C00
1C00
3800
7000
E000
C000
8000
ENDCHAR
STARTCHAR asterisk
ENCODING 42
SWIDTH 482 0
DWIDTH 16 0
BBX 13 12 2 13
BITMAP
0700
0700
0700
4210
F278
FDF0
0880
0D00
0D80
18C0
38E0
1040
ENDCHAR
STARTCHAR plus
ENCODING 43
SWIDTH 633 0
DWIDTH 21 0
BBX 21 21 0 0
BITMAP
007000
007000
007000
007000
007000
007000
007000
007000
007000
FFFFF8
FFFFF8
FFFFF8
007000
007000
007000
007000
007000
007000
007000
007000
007000
ENDCHAR
STARTCHAR comma
ENCODING 44
SWIDTH 316 0
DWIDTH 11 0
BBX 5 11 3 -6
BITMAP
F8
F8
F8
F8
F8
38
38
38
70
F0
C0
ENDCHAR
STARTCHAR hyphen
ENCODING 45
SWIDTH 325 0
DWIDTH 11 0
BBX 7 3 2 9
BITMAP
FE
FE
FE
ENDCHAR
STARTCHAR period
ENCODING 46
SWIDTH 316 0
DWIDTH 11 0
BBX 4 4 3 0
BITMAP
F0
F0
F0
F0
ENDCHAR
STARTCHAR slash
ENCODING 47
SWIDTH 494 0
DWIDTH 17 0
BBX 16 32 0 -6
BITMAP
0007
000F
000E
000E
001C
001C
003C
0038
0078
0070
0070
00F0
00E0
01E0
01C0
01C0
0380
0380
0780
0700
0F00
0E00
0E00
1C00
1C00
3C00
3800
3800
7000
7000
F000
E000
ENDCHAR
STARTCHAR zero
ENCODING 48
SWIDTH 633 0
DWIDTH 21 0
BBX 17 25 2 0
BITMAP
03E000
0FF800
1FFC00
3E3E00
3C1E00
780F00
780F00
780F00
F00780
F00780
F00780
F00780
F00780
F00780
F00780
F00780
F00780
780F00
780F00
780F00
3C1E00
3E3E00
1FFC00
0FF800
03E000
ENDCHAR
STARTCHAR one
ENCODING 49
SWIDTH 633 0
DWIDTH 21 0
BBX 8 25 5 0
BITMAP
FF
FF
FF
0F
0F
0F
0F
0F
0F
0F
0F
0F
0F
0F
0F
0F
0F
0F
0F
0F
0F
0F
0F
0F
0F
ENDCHAR
STARTCHAR two
ENCODING 50
SWIDTH 633 0
DWIDTH 21 0
BBX 15 25 3 0
BITMAP
0FC0
7FF0
7FF8
707C
403E
001E
001E
001E
001E
001E
003C
007C
00F8
01F0
03E0
0780
0F00
1E00
3C00
7800
7800
F000
FFFE
FFFE
FFFE
ENDCHAR
STARTCHAR three
ENCODING 51
SWIDTH 633 0
DWIDTH 21 0
BBX 15 25 3 0
BITMAP
3FC0
FFF0
FFF8
C0FC
007C
003C
003C
003C
0078
00F0
3FE0
3F00
3FF0
00F8
003C
001E
001E
001E
001E
001E
003E
C0FC
FFF8
FFF0
7FC0
ENDCHAR
STARTCHAR four
ENCODING 52
SWIDTH 633 0
DWIDTH 21 0
BBX 17 25 2 0
BITMAP
003C00
007C00
007C00
00FC00
01FC00
01DC00
03DC00
079C00
071C00
0F1C00
1E1C00
3C1C00
381C00
781C00
F01C00
FFFF80
FFFF80
FFFF80
001C00
001C00
001C00
001C00
001C00
001C00
001C00
ENDCHAR
STARTCHAR five
ENCODING 53
SWIDTH 633 0
DWIDTH 21 0
BBX 13 25 4 0
BITMAP
FFF8
FFF8
FFF8
E000
E000
E000
E000
E000
E000
FE00
FFC0
FFE0
03F0
00F0
00F8
0078
0078
0078
0078
00F8
00F0
83F0
FFE0
FFC0
FF00
ENDCHAR
STARTCHAR six
ENCODING 54
SWIDTH 633 0
DWIDTH 21 0
BBX 17 25 2 0
BITMAP
01FC00
07FF00
0FFF00
1F0300
3C0000
7C0000
780000
780000
F00000
F1F800
F3FC00
F7FE00
FE1F00
F80F00
F00780
F00780
F00780
700780
700780
780700
380F00
3E1E00
1FFE00
0FF800
03F000
ENDCHAR
STARTCHAR seven
ENCODING 55
SWIDTH 633 0
DWIDTH 21 0
BBX 16 25 4 0
BITMAP
FFFF
FFFF
FFFF
000F
000E
001E
003C
0038
0078
00F0
00F0
01E0
03C0
03C0
0780
0F80
0F00
1F00
1E00
3E00
3C00
3C00
7C00
7800
7800
ENDCHAR
STARTCHAR eight
ENCODING 56
SWIDTH 633 0
DWIDTH 21 0
BBX 16 25 3 0
BITMAP
03E0
0FF8
1FF8
1C3C
381C
381C
381C
381C
3C38
1E30
0F60
07E0
1FF8
3DFC
787E
783F
F01F
F00F
F00F
F00F
F81F
7C3E
7FFC
1FF8
07E0
ENDCHAR
STARTCHAR nine
ENCODING 57
SWIDTH 633 0
DWIDTH 21 0
BBX 17 25 2 0
BITMAP
07E000
1FF800
3FFC00
7C3E00
780F00
F00F00
F00700
F00780
F00780
F00780
F00780
780F80
7C1F80
3FF780
1FE780
0FC780
000700
000F00
000F00
001E00
001E00
607C00
7FF800
7FF000
1FC000
ENDCHAR
STARTCHAR colon
ENCODING 58
SWIDTH 316 0
DWIDTH 11 0
BBX 4 18 3 0
BITMAP
F0
F0
F0
F0
00
00
00
00
00
00
00
00
00
00
F0
F0
F0
F0
ENDCHAR
STARTCHAR semicolon
ENCODING 59
SWIDTH 316 0
DWIDTH 11 0
BBX 4 24 3 -6
BITMAP
F0
F0
F0
F0
00
00
00
00
00
00
00
00
00
00
00
F0
F0
F0
70
70
70
60
E0
80
ENDCHAR
STARTCHAR less
ENCODING 60
SWIDTH 633 0
DWIDTH 21 0
BBX 20 21 1 0
BITMAP
000010
000070
0001F0
0007F0
001FC0
007F00
01FC00
07F000
1FC000
3F0000
FC0000
3F0000
1FC000
07F000
01FC00
007E00
001F80
0007E0
0001F0
000070
000010
ENDCHAR
STARTCHAR equal
ENCODING 61
SWIDTH 633 0
DWIDTH 21 0
BBX 20 9 1 5
BITMAP
FFFFF0
FFFFF0
FFFFF0
000000
000000
000000
FFFFF0
FFFFF0
FFFFF0
ENDCHAR
STARTCHAR greater
ENCODING 62
SWIDTH 633 0
DWIDTH 21 0
BBX 20 21 1 0
BITMAP
800000
E00000
F80000
7E0000
1F8000
0FE000
03F800
00FE00
003F80
000FC0
0003F0
000FC0
003F80
00FE00
03F800
0FE000
3F8000
FE0000
F80000
E00000
800000
ENDCHAR
STARTCHAR question
ENCODING 63
SWIDTH 422 0
DWIDTH 14 0
BBX 14 25 0 0
BITMAP
3FC0
FFF0
FFF8
C0FC
007C
003C
003C
003C
0078
00F8
00F0
01E0
03C0
0780
0700
0F00
0F00
0F00
0F00
0000
0000
0F00
0F00
0F00
0F00
ENDCHAR
STARTCHAR at
ENCODING 64
SWIDTH 858 0
DWIDTH 29 0
BBX 27 25 4 0
BITMAP
000FE000
007FFC00
01FFFE00
03F01F80
07C00780
0F0003C0
1E07E1C0
3C1FE0E0
383FE0E0
707040E0
70E0C0E0
F0E1C0E0
E0C3C0E0
E1C381C0
E1C6C3C0
E1CEE780
E1FCFF80
F1F8FE00
70F07C00
78000000
3C000000
1F80C000
0FFFC000
07FF8000
00FE0000
ENDCHAR
STARTCHAR A
ENCODING 65
SWIDTH 690 0
DWIDTH 23 0
BBX 23 25 0 0
BITMAP
003C00
007C00
007E00
00FE00
00FE00
00FF00
01EF00
01CF80
03C780
038780
0387C0
0783C0
0703C0
0F01E0
0E01E0
0FFFF0
1FFFF0
1FFFF0
1C00F8
380078
38007C
78003C
70003C
70003E
E0001E
ENDCHAR
STARTCHAR B
ENCODING 66
SWIDTH 575 0
DWIDTH 20 0
BBX 15 25 3 0
BITMAP
FFC0
FFF0
FFF8
F0FC
F03C
F03C
F03C
F03C
F038
F070
F1E0
FFC0
FFC0
FFF0
F0F8
F03C
F03E
F01E
F01E
F01E
F03E
F07C
FFFC
FFF8
FFE0
ENDCHAR
STARTCHAR C
ENCODING 67
SWIDTH 692 0
DWIDTH 24 0
BBX 20 25 2 0
BITMAP
00FF00
03FFF0
0FFFF0
1F80F0
3E0010
3C0000
7C0000
780000
F80000
F00000
F00000
F00000
F00000
F00000
F00000
F00000
F80000
780000
7C0000
3C0000
3E0010
1F80F0
0FFFF0
03FFE0
00FF00
ENDCHAR
STARTCHAR D
ENCODING 68
SWIDTH 749 0
DWIDTH 25 0
BBX 21 25 3 0
BITMAP
FFF800
FFFE00
FFFF80
F00FC0
F003E0
F001F0
F000F0
F000F0
F000F8
F00078
F00078
F00078
F00078
F00078
F00078
F00078
F00070
F000F0
F000F0
F001E0
F003E0
F00FC0
FFFF80
FFFE00
FFF800
ENDCHAR
STARTCHAR E
ENCODING 69
SWIDTH 542 0
DWIDTH 18 0
BBX 15 25 3 0
BITMAP
FFFC
FFFC
FFFC
F000
F000
F000
F000
F000
F000
F000
F000
FFF8
FFF8
FFF8
F000
F000
F000
F000
F000
F000
F000
F000
FFFE
FFFE
FFFE
ENDCHAR
STARTCHAR F
ENCODING 70
SWIDTH 536 0
DWIDTH 18 0
BBX 14 25 3 0
BITMAP
FFFC
FFFC
FFFC
F000
F000
F000
F000
F000
F000
F000
F000
FFF0
FFF0
FFF0
F000
F000
F000
F000
F000
F000
F000
F000
F000
F000
F000
ENDCHAR
STARTCHAR G
ENCODING 71
SWIDTH 723 0
DWIDTH 25 0
BBX 20 25 2 0
BITMAP
00FF80
03FFF0
0FFFF0
1F80F0
3E0010
3C0000
7C0000
780000
F80000
F00000
F00000
F00000
F00000
F000F0
F000F0
F000F0
F800F0
7800F0
7800F0
3C00F0
3E00F0
1F80F0
0FFFF0
07FFF0
00FF80
ENDCHAR
STARTCHAR H
ENCODING 72
SWIDTH 735 0
DWIDTH 25 0
BBX 19 25 3 0
BITMAP
F001E0
F001E0
F001E0
F001E0
F001E0
F001E0
F001E0
F001E0
F001E0
F001E0
FFFFE0
FFFFE0
FFFFE0
F001E0
F001E0
F001E0
F001E0
F001E0
F001E0
F001E0
F001E0
F001E0
F001E0
F001E0
F001E0
ENDCHAR
STARTCHAR I
ENCODING 73
SWIDTH 288 0
DWIDTH 10 0
BBX 4 25 3 0
BITMAP
F0
F0
F0
F0
F0
F0
F0
F0
F0
F0
F0
F0
F0
F0
F0
F0
F0
F0
F0
F0
F0
F0
F0
F0
F0
ENDCHAR
STARTCHAR J
ENCODING 74
SWIDTH 311 0
DWIDTH 11 0
BBX 11 31 -2 -6
BITMAP
01E0
01E0
01E0
01E0
01E0
01E0
01E0
01E0
01E0
01E0
01E0
01E0
01E0
01E0
01E0
01E0
01E0
01E0
01E0
01E0
01E0
01E0
01E0
01E0
01E0
01E0
03C0
83C0
FF80
FF00
FC00
ENDCHAR
STARTCHAR K
ENCODING 75
SWIDTH 653 0
DWIDTH 22 0
BBX 19 25 3 0
BITMAP
F00700
F00E00
F01E00
F03C00
F03800
F07800
F0F000
F1E000
F1C000
F3C000
F78000
FF0000
FF8000
FF8000
F7C000
F3E000
F1F000
F0F800
F0F800
F07C00
F03E00
F01F00
F01F80
F00F80
F007E0
ENDCHAR
STARTCHAR L
ENCODING 76
SWIDTH 533 0
DWIDTH 18 0
BBX 15 25 3 0
BITMAP
F000
F000
F000
F000
F000
F000
F000
F000
F000
F000
F000
F000
F000
F000
F000
F000
F000
F000
F000
F000
F000
F000
FFFE
FFFE
FFFE
ENDCHAR
STARTCHAR M
ENCODING 77
SWIDTH 861 0
DWIDTH 29 0
BBX 23 25 3 0
BITMAP
F8003E
FC003E
FC007E
FC007E
FE00FE
FE00FE
FE00FE
EF01FE
EF01DE
EF81DE
E7839E
E7839E
E7C39E
E3C71E
E3C71E
E3E71E
E1EE1E
E1EE1E
E1FE1E
E0FC1E
E0FC1E
E0FC1E
E0781E
E0001E
E0001E
ENDCHAR
STARTCHAR N
ENCODING 78
SWIDTH 741 0
DWIDTH 25 0
BBX 19 25 3 0
BITMAP
F000E0
F800E0
F800E0
FC00E0
FE00E0
FE00E0
FF00E0
EF80E0
E780E0
E7C0E0
E3E0E0
E1E0E0
E1F0E0
E0F8E0
E0F8E0
E07CE0
E03EE0
E03EE0
E01FE0
E00FE0
E00FE0
E007E0
E003E0
E003E0
E001E0
ENDCHAR
STARTCHAR O
ENCODING 79
SWIDTH 777 0
DWIDTH 26 0
BBX 23 25 2 0
BITMAP
00FE00
07FFC0
0FFFE0
1F83F0
3E00F8
3C0078
78003C
78003C
F8003E
F0001E
F0001E
F0001E
F0001E
F0001E
F0001E
F0001E
F8003E
78003C
78003C
3C0078
3E00F8
1F83F0
0FFFE0
07FFC0
00FE00
ENDCHAR
STARTCHAR P
ENCODING 80
SWIDTH 553 0
DWIDTH 19 0
BBX 15 25 3 0
BITMAP
FFE0
FFF8
FFFC
F07C
F03E
F01E
F01E
F01E
F01E
F03E
F03C
F0FC
FFF8
FFF0
FFC0
F000
F000
F000
F000
F000
F000
F000
F000
F000
F000
ENDCHAR
STARTCHAR Q
ENCODING 81
SWIDTH 777 0
DWIDTH 26 0
BBX 25 31 2 -6
BITMAP
00FE0000
07FF8000
0FFFE000
1F83F000
3E00F800
3C007800
78003C00
78003C00
F8003C00
F0001E00
F0001E00
F0001E00
F0001E00
F0001E00
F0001E00
F0001E00
F8003E00
78003C00
78003C00
3C007C00
3E00F800
1F83F000
0FFFE000
07FFC000
00FF8000
0003F000
0001FE00
0000FF80
00003F00
00000F00
00000200
ENDCHAR
STARTCHAR R
ENCODING 82
SWIDTH 633 0
DWIDTH 21 0
BBX 18 25 3 0
BITMAP
FFE000
FFF800
FFFC00
F07E00
F03E00
F01E00
F01E00
F01E00
F01E00
F03C00
F03C00
F0F800
FFE000
FFC000
FFE000
F1F000
F0F000
F0F800
F07C00
F03E00
F03E00
F01F00
F00F80
F00F80
F007C0
ENDCHAR
STARTCHAR S
ENCODING 83
SWIDTH 539 0
DWIDTH 18 0
BBX 15 25 2 0
BITMAP
0FF0
3FF8
7FF8
7C38
F008
F000
F000
F000
F800
7E00
3F80
1FC0
0FF0
03F8
00FC
007E
003E
001E
001E
001E
803E
F07C
FFF8
FFF0
3FC0
ENDCHAR
STARTCHAR T
ENCODING 84
SWIDTH 633 0
DWIDTH 21 0
BBX 22 25 0 0
BITMAP
FFFFFC
FFFFFC
FFFFFC
007800
007800
007800
007800
007800
007800
007800
007800
007800
007800
007800
007800
007800
007800
007800
007800
007800
007800
007800
007800
007800
007800
ENDCHAR
STARTCHAR U
ENCODING 85
SWIDTH 693 0
DWIDTH 24 0
BBX 18 25 3 0
BITMAP
F001C0
F001C0
F001C0
F001C0
F001C0
F001C0
F001C0
F001C0
F001C0
F001C0
F001C0
F001C0
F001C0
F001C0
F001C0
F001C0
F001C0
F001C0
F001C0
F803C0
780380
7E0780
3FFF00
1FFE00
07F800
ENDCHAR
STARTCHAR V
ENCODING 86
SWIDTH 654 0
DWIDTH 22 0
BBX 21 25 1 0
BITMAP
F00038
F00078
F80070
780070
7800F0
3C00E0
3C00E0
3E01C0
1E01C0
1E01C0
1F0380
0F0380
0F0380
0F8700
078700
078700
03CE00
03CE00
03FE00
01FC00
01FC00
01FC00
00F800
00F800
00F000
ENDCHAR
STARTCHAR W
ENCODING 87
SWIDTH 855 0
DWIDTH 29 0
BBX 29 25 0 0
BITMAP
F0078038
F00F8038
F00F8070
780F8070
780FC070
781FC0F0
781FC0E0
3C1FC0E0
3C1FE0E0
3C1DE1E0
3C39E1C0
1E39E1C0
1E39F1C0
1E38F380
1E70F380
0F70F380
0F70FB80
0F707F00
0FF07F00
07E07F00
07E07E00
07E07E00
07E03E00
03C03E00
03C03C00
ENDCHAR
STARTCHAR X
ENCODING 88
SWIDTH 626 0
DWIDTH 21 0
BBX 20 25 0 0
BITMAP
F800F0
7C01E0
3C01C0
3E03C0
1F0780
1F0700
0F8F00
079E00
07DC00
03FC00
01F800
01F000
00F800
01F800
01FC00
03FC00
07BE00
071F00
0F0F00
1E0F80
1C07C0
3C07C0
7803E0
7001E0
F001F0
ENDCHAR
STARTCHAR Y
ENCODING 89
SWIDTH 623 0
DWIDTH 21 0
BBX 21 25 0 0
BITMAP
F00078
780070
7C00F0
3C01E0
3E01C0
1E03C0
1F0380
0F8700
078F00
07CE00
03DE00
03FC00
01F800
01F800
00F000
00F000
00F000
00F000
00F000
00F000
00F000
00F000
00F000
00F000
00F000
ENDCHAR
STARTCHAR Z
ENCODING 90
SWIDTH 605 0
DWIDTH 21 0
BBX 17 25 2 0
BITMAP
7FFF80
7FFF80
7FFF80
000F80
001F00
001F00
003E00
007C00
007C00
00F800
01F000
01F000
03E000
07C000
07C000
0F8000
1F0000
1F0000
3E0000
7C0000
7C0000
F80000
FFFF80
FFFF80
FFFF80
ENDCHAR
STARTCHAR bracketleft
ENCODING 91
SWIDTH 325 0
DWIDTH 11 0
BBX 7 32 3 -6
BITMAP
FE
FE
FE
E0
E0
E0
E0
E0
E0
E0
E0
E0
E0
E0
E0
E0
E0
E0
E0
E0
E0
E0
E0
E0
E0
E0
E0
E0
E0
FE
FE
FE
ENDCHAR
STARTCHAR backslash
ENCODING 92
SWIDTH 494 0
DWIDTH 17 0
BBX 16 32 0 -6
BITMAP
E000
F000
7000
7000
3800
3800
3C00
1C00
1C00
0E00
0E00
0F00
0700
0780
0380
0380
01C0
01C0
01E0
00E0
00F0
0070
0070
0078
0038
003C
001C
001C
000E
000E
000F
0007
ENDCHAR
STARTCHAR bracketright
ENCODING 93
SWIDTH 325 0
DWIDTH 11 0
BBX 7 32 1 -6
BITMAP
FE
FE
FE
0E
0E
0E
0E
0E
0E
0E
0E
0E
0E
0E
0E
0E
0E
0E
0E
0E
0E
0E
0E
0E
0E
0E
0E
0E
0E
FE
FE
FE
ENDCHAR
STARTCHAR asciicircum
ENCODING 94
SWIDTH 633 0
DWIDTH 21 0
BBX 20 22 1 4
BITMAP
002000
006000
006000
006000
00F000
00F000
01F800
01F800
039C00
039C00
079E00
070E00
0F0F00
0E0700
1E0780
1C0380
3C03C0
3801C0
7801E0
7000E0
F000F0
E00070
ENDCHAR
STARTCHAR underscore
ENCODING 95
SWIDTH 500 0
DWIDTH 17 0
BBX 14 3 2 -4
BITMAP
FFFC
FFFC
FFFC
ENDCHAR
STARTCHAR grave
ENCODING 96
SWIDTH 614 0
DWIDTH 21 0
BBX 7 5 6 21
BITMAP
F0
78
38
1C
0E
ENDCHAR
STARTCHAR a
ENCODING 97
SWIDTH 552 0
DWIDTH 19 0
BBX 17 18 1 0
BITMAP
07F000
3FF800
3FFC00
307C00
203C00
003C00
003C00
07FC00
1FFC00
7FFC00
7C3C00
F83C00
F03C00
F03C00
F87C00
7FFF80
7FCF80
1F0780
ENDCHAR
STARTCHAR b
ENCODING 98
SWIDTH 630 0
DWIDTH 21 0
BBX 16 26 3 0
BITMAP
F000
F000
F000
F000
F000
F000
F000
F000
F1F0
F3FC
F7FC
FC3E
F81E
F00F
F00F
F00F
F00F
F00F
F00F
F00F
F01E
F81E
FC3E
FFFC
F7F8
E1E0
ENDCHAR
STARTCHAR c
ENCODING 99
SWIDTH 518 0
DWIDTH 17 0
BBX 14 18 2 0
BITMAP
07FC
1FFC
3FFC
7E0C
7C00
7800
F000
F000
F000
F000
F000
F000
7800
7C00
3E04
3FFC
0FFC
07F0
ENDCHAR
STARTCHAR d
ENCODING 100
SWIDTH 630 0
DWIDTH 21 0
BBX 16 26 2 0
BITMAP
000F
000F
000F
000F
000F
000F
000F
000F
078F
1FEF
3FFF
7C3F
781F
780F
F00F
F00F
F00F
F00F
F00F
F00F
F00F
781F
7C3F
3FEF
3FCF
0F8F
ENDCHAR
STARTCHAR e
ENCODING 101
SWIDTH 557 0
DWIDTH 19 0
BBX 15 18 2 0
BITMAP
07E0
1FF0
3FF8
3C3C
781C
701E
F01E
FFFE
FFFE
FFFE
F000
F000
7800
7C00
3E06
1FFE
0FFE
03F8
ENDCHAR
STARTCHAR f
ENCODING 102
SWIDTH 367 0
DWIDTH 12 0
BBX 13 27 1 0
BITMAP
03F0
07F8
0FF8
0F08
1E00
1E00
1E00
1E00
1E00
FFE0
FFE0
FFE0
1E00
1E00
1E00
1E00
1E00
1E00
1E00
1E00
1E00
1E00
1E00
1E00
1E00
1E00
1E00
ENDCHAR
STARTCHAR g
ENCODING 103
SWIDTH 623 0
DWIDTH 21 0
BBX 16 25 2 -7
BITMAP
078F
1FEF
3FFF
7C3F
781F
780F
F00F
F00F
F00F
F00F
F00F
F00F
F00F
781F
7C3F
3FEF
1FCF
0F8F
000F
000E
001E
203E
3FFC
7FF8
1FE0
ENDCHAR
STARTCHAR h
ENCODING 104
SWIDTH 620 0
DWIDTH 21 0
BBX 15 26 3 0
BITMAP
F000
F000
F000
F000
F000
F000
F000
F000
F0F0
F3FC
F7FC
FE3E
FC1E
F81E
F01E
F01E
F01E
F01E
F01E
F01E
F01E
F01E
F01E
F01E
F01E
F01E
ENDCHAR
STARTCHAR i
ENCODING 105
SWIDTH 289 0
DWIDTH 10 0
BBX 4 25 3 0
BITMAP
F0
F0
F0
F0
00
00
00
F0
F0
F0
F0
F0
F0
F0
F0
F0
F0
F0
F0
F0
F0
F0
F0
F0
F0
ENDCHAR
STARTCHAR j
ENCODING 106
SWIDTH 304 0
DWIDTH 10 0
BBX 10 32 -2 -7
BITMAP
03C0
03C0
03C0
03C0
0000
0000
0000
03C0
03C0
03C0
03C0
03C0
03C0
03C0
03C0
03C0
03C0
03C0
03C0
03C0
03C0
03C0
03C0
03C0
03C0
03C0
03C0
03C0
8780
FF80
FF00
7E00
ENDCHAR
STARTCHAR k
ENCODING 107
SWIDTH 585 0
DWIDTH 20 0
BBX 18 26 3 0
BITMAP
F00000
F00000
F00000
F00000
F00000
F00000
F00000
F00000
F01E00
F03C00
F07800
F07000
F0F000
F1E000
F3C000
F78000
FF8000
FFC000
F7E000
F3F000
F1F000
F0F800
F07C00
F03E00
F01F00
F00FC0
ENDCHAR
STARTCHAR l
ENCODING 108
SWIDTH 289 0
DWIDTH 10 0
BBX 4 26 3 0
BITMAP
F0
F0
F0
F0
F0
F0
F0
F0
F0
F0
F0
F0
F0
F0
F0
F0
F0
F0
F0
F0
F0
F0
F0
F0
F0
F0
ENDCHAR
STARTCHAR m
ENCODING 109
SWIDTH 934 0
DWIDTH 32 0
BBX 26 18 3 0
BITMAP
F0F81E00
F3FC7F80
F7FCFF80
FE3FC7C0
FC1F83C0
F81F03C0
F01E03C0
F01E03C0
F01E03C0
F01E03C0
F01E03C0
F01E03C0
F01E03C0
F01E03C0
F01E03C0
F01E03C0
F01E03C0
F01E03C0
ENDCHAR
STARTCHAR n
ENCODING 110
SWIDTH 620 0
DWIDTH 21 0
BBX 15 18 3 0
BITMAP
F0F0
F3FC
F7FC
FE3E
FC1E
F81E
F01E
F01E
F01E
F01E
F01E
F01E
F01E
F01E
F01E
F01E
F01E
F01E
ENDCHAR
STARTCHAR o
ENCODING 111
SWIDTH 614 0
DWIDTH 21 0
BBX 17 18 2 0
BITMAP
07F000
1FFC00
3FFE00
7C1F00
780F00
780F00
F00780
F00780
F00780
F00780
F00780
F00780
780F00
780F00
7C1F00
3FFE00
1FFC00
07F000
ENDCHAR
STARTCHAR p
ENCODING 112
SWIDTH 630 0
DWIDTH 21 0
BBX 16 25 3 -7
BITMAP
F1F0
F3FC
F7FC
FC3E
F81E
F00F
F00F
F00F
F00F
F00F
F00F
F00F
F01E
F81E
FC3E
FFFC
F7F8
F1E0
F000
F000
F000
F000
F000
F000
F000
ENDCHAR
STARTCHAR q
ENCODING 113
SWIDTH 630 0
DWIDTH 21 0
BBX 16 25 2 -7
BITMAP
078F
1FEF
3FFF
7C3F
781F
780F
F00F
F00F
F00F
F00F
F00F
F00F
F00F
781F
7C3F
3FEF
3FCF
0F8F
000F
000F
000F
000F
000F
000F
000F
ENDCHAR
STARTCHAR r
ENCODING 114
SWIDTH 409 0
DWIDTH 14 0
BBX 11 18 3 0
BITMAP
F0E0
F3E0
F7E0
FE00
FC00
F800
F000
F000
F000
F000
F000
F000
F000
F000
F000
F000
F000
F000
ENDCHAR
STARTCHAR s
ENCODING 115
SWIDTH 510 0
DWIDTH 17 0
BBX 12 18 3 0
BITMAP
1FE0
7FE0
7FE0
F860
F000
F000
FC00
7F00
7FC0
1FE0
07F0
01F0
00F0
80F0
E1F0
FFE0
FFC0
3F80
ENDCHAR
STARTCHAR t
ENCODING 116
SWIDTH 374 0
DWIDTH 13 0
BBX 11 23 1 0
BITMAP
3C00
3C00
3C00
3C00
3C00
FFE0
FFE0
FFE0
3C00
3C00
3C00
3C00
3C00
3C00
3C00
3C00
3C00
3C00
3C00
3E00
1FE0
1FE0
07E0
ENDCHAR
STARTCHAR u
ENCODING 117
SWIDTH 620 0
DWIDTH 21 0
BBX 15 18 3 0
BITMAP
F01E
F01E
F01E
F01E
F01E
F01E
F01E
F01E
F01E
F01E
F01E
F01E
F03E
F07E
F8FE
7FDE
7F9E
1E1E
ENDCHAR
STARTCHAR v
ENCODING 118
SWIDTH 572 0
DWIDTH 18 0
BBX 17 18 0 0
BITMAP
F00380
F00780
F80700
780F00
780E00
3C0E00
3C1E00
3E1C00
1E1C00
1E3800
1F3800
0F7800
0F7000
0FF000
07E000
07E000
03E000
03C000
ENDCHAR
STARTCHAR w
ENCODING 119
SWIDTH 840 0
DWIDTH 26 0
BBX 26 18 0 0
BITMAP
E01E01C0
F01E03C0
703F0380
703F0380
703F0780
383F0700
38738700
38738F00
3C738E00
1CE38E00
1CE1DE00
1CE1DC00
0FE1DC00
0FC1FC00
0FC0F800
0FC0F800
0780F800
0780F000
ENDCHAR
STARTCHAR x
ENCODING 120
SWIDTH 613 0
DWIDTH 21 0
BBX 18 18 1 0
BITMAP
F003C0
780780
3C0F00
1E0E00
0F1E00
073C00
07B800
03F800
01F000
03E000
07F000
077800
0F3C00
1E1C00
3C1E00
380F00
780780
F003C0
ENDCHAR
STARTCHAR y
ENCODING 121
SWIDTH 568 0
DWIDTH 18 0
BBX 17 25 0 -7
BITMAP
F00380
F80700
780700
780700
7C0E00
3C0E00
3C1E00
3E1C00
1E1C00
1E3800
1F3800
0F7800
0F7000
07F000
07E000
07E000
03E000
03C000
03C000
03C000
038000
078000
070000
070000
0F0000
ENDCHAR
STARTCHAR z
ENCODING 122
SWIDTH 573 0
DWIDTH 19 0
BBX 15 18 2 0
BITMAP
7FFE
7FFE
7FFE
003C
0078
00F0
00F0
01E0
03C0
0780
0F00
1E00
3C00
3C00
7800
FFFE
FFFE
FFFE
ENDCHAR
STARTCHAR braceleft
ENCODING 123
SWIDTH 325 0
DWIDTH 11 0
BBX 8 32 1 -6
BITMAP
07
1F
1F
3C
38
38
38
3C
3C
1C
1C
1C
1C
18
38
F0
F0
F8
38
1C
1C
1C
1C
1C
3C
38
38
38
3C
1F
0F
07
ENDCHAR
STARTCHAR bar
ENCODING 124
SWIDTH 265 0
DWIDTH 9 0
BBX 3 32 3 -6
BITMAP
E0
E0
E0
E0
E0
E0
E0
E0
E0
E0
E0
E0
E0
E0
E0
E0
E0
E0
E0
E0
E0
E0
E0
E0
E0
E0
E0
E0
E0
E0
E0
E0
ENDCHAR
STARTCHAR braceright
ENCODING 125
SWIDTH 325 0
DWIDTH 11 0
BBX 8 32 2 -6
BITMAP
E0
F0
F8
3C
1C
1C
1C
3C
38
38
38
38
38
1C
1F
0F
0F
1C
18
38
38
38
38
3C
3C
1C
1C
1C
3C
F8
F8
E0
ENDCHAR
STARTCHAR asciitilde
ENCODING 126
SWIDTH 633 0
DWIDTH 21 0
BBX 20 7 1 6
BITMAP
1F0000
3FC070
7FE070
F1F8E0
E07FE0
E01FC0
000F80
ENDCHAR
STARTCHAR space
ENCODING 160
SWIDTH 316 0
DWIDTH 11 0
BBX 1 1 0 0
BITMAP
00
ENDCHAR
STARTCHAR exclamdown
ENCODING 161
SWIDTH 205 0
DWIDTH 11 0
BBX 3 25 4 -7
BITMAP
E0
E0
E0
E0
00
00
00
E0
E0
E0
E0
E0
E0
E0
E0
E0
E0
E0
E0
E0
E0
E0
E0
E0
E0
ENDCHAR
STARTCHAR cent
ENCODING 162
SWIDTH 633 0
DWIDTH 21 0
BBX 14 25 3 0
BITMAP
0180
0180
0180
07F8
0FFC
3FFC
3D84
7980
7180
F180
F180
F180
F180
F180
F180
F180
7980
7980
3D8C
3FFC
1FFC
07F8
0180
0180
0180
ENDCHAR
STARTCHAR sterling
ENCODING 163
SWIDTH 633 0
DWIDTH 21 0
BBX 14 25 4 0
BITMAP
01F8
07FC
0FFC
0F04
1E00
1E00
1E00
1E00
1E00
1E00
1E00
FFE0
FFE0
FFE0
1E00
1E00
1E00
1E00
1E00
1C00
3800
3000
FFFC
FFFC
FFFC
ENDCHAR
STARTCHAR currency
ENCODING 164
SWIDTH 633 0
DWIDTH 21 0
BBX 19 21 1 2
BITMAP
6000C0
E000E0
F1F1E0
7BFBC0
3FFF80
1F1F00
1C0700
1C0700
380380
380380
380380
380380
380380
1C0700
1C0700
1E0F00
3FFF80
7BFBC0
F1F1E0
E000E0
6000C0
ENDCHAR
STARTCHAR yen
ENCODING 165
SWIDTH 633 0
DWIDTH 21 0
BBX 20 25 1 0
BITMAP
F800F0
7C01E0
7C01C0
3E03C0
1F0780
0F8F00
0F9E00
07DE00
03FC00
03F800
01F000
1FFF00
1FFF00
1FFF00
00F000
00F000
1FFF00
1FFF00
1FFF00
00F000
00F000
00F000
00F000
00F000
00F000
ENDCHAR
STARTCHAR brokenbar
ENCODING 166
SWIDTH 265 0
DWIDTH 9 0
BBX 3 32 3 -6
BITMAP
E0
E0
E0
E0
E0
E0
E0
E0
E0
E0
E0
E0
E0
00
00
00
00
00
00
E0
E0
E0
E0
E0
E0
E0
E0
E0
E0
E0
E0
E0
ENDCHAR
STARTCHAR section
ENCODING 167
SWIDTH 633 0
DWIDTH 21 0
BBX 14 32 4 -7
BITMAP
0FE0
3FF8
7FF8
7818
F000
E000
E000
F000
F800
7E00
3FC0
7FE0
77F8
E1F8
E07C
E03C
F01C
F81C
7E1C
7FF8
3FF0
0FE0
03F0
0078
003C
001C
001C
803C
E07C
FFF8
FFF0
1FC0
ENDCHAR
STARTCHAR dieresis
ENCODING 168
SWIDTH 614 0
DWIDTH 21 0
BBX 9 3 6 22
BITMAP
E380
E380
E380
ENDCHAR
STARTCHAR copyright
ENCODING 169
SWIDTH 855 0
DWIDTH 29 0
BBX 26 25 2 0
BITMAP
007F8000
01FFE000
07FFF800
0FC0FC00
1F003E00
3C000F00
383F8700
707F8780
70F08380
F0E003C0
E1C001C0
E1C001C0
E1C001C0
E1C001C0
E1E001C0
F0F083C0
70FF8380
707F8780
381E0700
3C000F00
1F003E00
0FC0FC00
07FFF800
01FFE000
007F8000
ENDCHAR
STARTCHAR ordfeminine
ENCODING 170
SWIDTH 422 0
DWIDTH 14 0
BBX 13 14 1 11
BITMAP
3F80
7FC0
7FE0
41E0
00E0
0FE0
3FE0
7FE0
F0E0
E0E0
E1E0
FF78
7F78
3C38
ENDCHAR
STARTCHAR guillemotleft
ENCODING 171
SWIDTH 524 0
DWIDTH 18 0
BBX 15 16 2 1
BITMAP
020C
078E
0F1E
1E3C
3C78
3CF0
79F0
F3E0
F1E0
79F0
3CF0
1C78
1E3C
0F1C
078E
020C
ENDCHAR
STARTCHAR logicalnot
ENCODING 172
SWIDTH 633 0
DWIDTH 21 0
BBX 20 9 1 5
BITMAP
FFFFF0
FFFFF0
FFFFF0
000070
000070
000070
000070
000070
000070
ENDCHAR
STARTCHAR hyphen
ENCODING 173
SWIDTH 325 0
DWIDTH 11 0
BBX 7 3 2 9
BITMAP
FE
FE
FE
ENDCHAR
STARTCHAR registered
ENCODING 174
SWIDTH 633 0
DWIDTH 21 0
BBX 15 15 3 10
BITMAP
07C0
1FF0
3838
7FDC
6FEC
CCE6
CCE6
CF86
CF86
CD86
6CCC
7C7C
3838
1FF0
07C0
ENDCHAR
STARTCHAR macron
ENCODING 175
SWIDTH 614 0
DWIDTH 21 0
BBX 9 3 6 22
BITMAP
FF80
FF80
FF80
ENDCHAR
STARTCHAR degree
ENCODING 176
SWIDTH 277 0
DWIDTH 9 0
BBX 6 6 2 19
BITMAP
78
FC
CC
CC
FC
78
ENDCHAR
STARTCHAR plusminus
ENCODING 177
SWIDTH 633 0
DWIDTH 21 0
BBX 21 21 0 0
BITMAP
007000
007000
007000
007000
007000
007000
FFFFF8
FFFFF8
FFFFF8
007000
007000
007000
007000
007000
007000
000000
000000
000000
FFFFF8
FFFFF8
FFFFF8
ENDCHAR
STARTCHAR twosuperior
ENCODING 178
SWIDTH 422 0
DWIDTH 13 0
BBX 9 15 -21 10
BITMAP
3E00
FF00
C380
0180
0180
0180
0300
0700
0E00
1C00
3000
6000
E000
FF80
FF80
ENDCHAR
STARTCHAR threesuperior
ENCODING 179
SWIDTH 422 0
DWIDTH 13 0
BBX 8 15 -21 10
BITMAP
7C
FE
87
03
03
06
7C
7C
06
03
03
03
87
FE
FC
ENDCHAR
STARTCHAR acute
ENCODING 180
SWIDTH 614 0
DWIDTH 21 0
BBX 7 5 8 21
BITMAP
1E
3C
38
70
E0
ENDCHAR
STARTCHAR mu
ENCODING 181
SWIDTH 627 0
DWIDTH 21 0
BBX 15 24 3 -6
BITMAP
F01E
F01E
F01E
F01E
F01E
F01E
F01E
F01E
F01E
F01E
F01E
F01E
F03E
F03E
F87E
FFDE
FFDE
FF9E
F000
F000
F000
F000
F000
F000
ENDCHAR
STARTCHAR paragraph
ENCODING 182
SWIDTH 633 0
DWIDTH 21 0
BBX 14 31 3 -6
BITMAP
1FFC
7FFC
7FFC
FFDC
FFDC
FFDC
FFDC
FFDC
FFDC
7FDC
3FDC
1FDC
07DC
01DC
01DC
01DC
01DC
01DC
01DC
01DC
01DC
01DC
01DC
01DC
01DC
01DC
01DC
01DC
01DC
01DC
01DC
ENDCHAR
STARTCHAR periodcentered
ENCODING 183
SWIDTH 316 0
DWIDTH 21 0
BBX 4 4 9 8
BITMAP
F0
F0
F0
F0
ENDCHAR
STARTCHAR cedilla
ENCODING 184
SWIDTH 614 0
DWIDTH 21 0
BBX 5 8 9 -7
BITMAP
30
60
60
38
38
38
F8
F0
ENDCHAR
STARTCHAR onesuperior
ENCODING 185
SWIDTH 422 0
DWIDTH 13 0
BBX 4 15 -22 10
BITMAP
F0
F0
30
30
30
30
30
30
30
30
30
30
30
30
30
ENDCHAR
STARTCHAR ordmasculine
ENCODING 186
SWIDTH 422 0
DWIDTH 14 0
BBX 12 14 1 11
BITMAP
1F80
3FC0
7FE0
71E0
E0F0
E0F0
E0F0
E0F0
E0F0
E0F0
71E0
7FE0
3FC0
1F80
ENDCHAR
STARTCHAR guillemotright
ENCODING 187
SWIDTH 524 0
DWIDTH 18 0
BBX 15 16 1 1
BITMAP
6080
E3C0
F1E0
78F0
3C70
1E78
1F3C
0F1E
0F9E
1F3C
1E78
3C78
78F0
71E0
E3C0
6080
ENDCHAR
STARTCHAR onequarter
ENCODING 188
SWIDTH 801 0
DWIDTH 27 0
BBX 23 25 7 0
BITMAP
780078
7800F0
1800E0
1801E0
1803C0
180380
180780
180F00
180E00
181C00
183C38
187838
187078
18F0F8
19E1D8
01C198
038318
078718
0F0E18
0E0FFE
1E0FFE
3C0018
380018
700018
F00018
ENDCHAR
STARTCHAR onehalf
ENCODING 189
SWIDTH 801 0
DWIDTH 27 0
BBX 22 25 7 0
BITMAP
780078
7800F0
1800E0
1801E0
1803C0
180380
180780
180F00
180E00
181C00
183DF0
187FF8
18761C
18F00C
19E00C
01C00C
038018
078038
0F0070
0E00E0
1E0180
3C0300
380700
7007FC
F007FC
ENDCHAR
STARTCHAR threequarters
ENCODING 190
SWIDTH 873 0
DWIDTH 27 0
BBX 23 25 7 0
BITMAP
7C0078
FE00F0
8700E0
0301E0
0303C0
060380
7C0780
7C0F00
060E00
031C00
033C38
037838
877078
FEF0F8
FDE1D8
01C198
038318
078718
0F0E18
0E0FFE
1E0FFE
3C0018
380018
700018
F00018
ENDCHAR
STARTCHAR questiondown
ENCODING 191
SWIDTH 422 0
DWIDTH 14 0
BBX 14 25 0 -7
BITMAP
03C0
03C0
03C0
03C0
0000
0000
03C0
03C0
03C0
03C0
0380
0780
0F00
1E00
3C00
7C00
7800
F000
F000
F000
F800
FC0C
7FFC
3FFC
0FF0
ENDCHAR
STARTCHAR Agrave
ENCODING 192
SWIDTH 690 0
DWIDTH 23 0
BBX 23 32 0 0
BITMAP
01E000
00F000
007000
003800
001C00
000000
000000
003C00
007C00
007E00
00FE00
00FE00
00FF00
01EF00
01CF80
03C780
038780
0387C0
0783C0
0703C0
0F01E0
0E01E0
0FFFF0
1FFFF0
1FFFF0
1C00F8
380078
38007C
78003C
70003C
70003E
E0001E
ENDCHAR
STARTCHAR Aacute
ENCODING 193
SWIDTH 690 0
DWIDTH 23 0
BBX 23 32 0 0
BITMAP
000F00
001E00
001C00
003800
007000
000000
000000
003C00
007C00
007E00
00FE00
00FE00
00FF00
01EF00
01CF80
03C780
038780
0387C0
0783C0
0703C0
0F01E0
0E01E0
0FFFF0
1FFFF0
1FFFF0
1C00F8
380078
38007C
78003C
70003C
70003E
E0001E
ENDCHAR
STARTCHAR Acircumflex
ENCODING 194
SWIDTH 690 0
DWIDTH 23 0
BBX 23 32 0 0
BITMAP
007C00
007C00
00EE00
01C700
038380
000000
000000
003C00
007C00
007E00
00FE00
00FE00
00FF00
01EF00
01CF80
03C780
038780
0387C0
0783C0
0703C0
0F01E0
0E01E0
0FFFF0
1FFFF0
1FFFF0
1C00F8
380078
38007C
78003C
70003C
70003E
E0001E
ENDCHAR
STARTCHAR Atilde
ENCODING 195
SWIDTH 690 0
DWIDTH 23 0
BBX 23 31 0 0
BITMAP
01E180
03FF80
03FF00
030E00
000000
000000
003C00
007C00
007E00
00FE00
00FE00
00FF00
01EF00
01CF80
03C780
038780
0387C0
0783C0
0703C0
0F01E0
0E01E0
0FFFF0
1FFFF0
1FFFF0
1C00F8
380078
38007C
78003C
70003C
70003E
E0001E
ENDCHAR
STARTCHAR Adieresis
ENCODING 196
SWIDTH 690 0
DWIDTH 23 0
BBX 23 30 0 0
BITMAP
01C700
01C700
01C700
000000
000000
003C00
007C00
007E00
00FE00
00FE00
00FF00
01EF00
01CF80
03C780
038780
0387C0
0783C0
0703C0
0F01E0
0E01E0
0FFFF0
1FFFF0
1FFFF0
1C00F8
380078
38007C
78003C
70003C
70003E
E0001E
ENDCHAR
STARTCHAR Aring
ENCODING 197
SWIDTH 690 0
DWIDTH 23 0
BBX 23 32 0 0
BITMAP
003800
006C00
004400
006C00
003800
000000
000000
003C00
007C00
007E00
00FE00
00FE00
00FF00
01EF00
01CF80
03C780
038780
0387C0
0783C0
0703C0
0F01E0
0E01E0
0FFFF0
1FFFF0
1FFFF0
1C00F8
380078
38007C
78003C
70003C
70003E
E0001E
ENDCHAR
STARTCHAR AE
ENCODING 198
SWIDTH 907 0
DWIDTH 31 0
BBX 30 25 0 0
BITMAP
0003FFF8
0007FFF8
0007FFF8
000FE000
001FE000
001FE000
003DE000
0039E000
0079E000
0071E000
00E1FFF0
01E1FFF0
01C1FFF0
03C1E000
0381E000
07FFE000
07FFE000
0FFFE000
1E01E000
1C01E000
3C01E000
3801E000
7801FFFC
7001FFFC
F001FFFC
ENDCHAR
STARTCHAR Ccedilla
ENCODING 199
SWIDTH 692 0
DWIDTH 24 0
BBX 20 32 2 -7
BITMAP
00FF00
03FFF0
0FFFF0
1F80F0
3E0010
3C0000
7C0000
780000
F80000
F00000
F00000
F00000
F00000
F00000
F00000
F00000
F80000
780000
7C0000
3C0000
3E0010
1F80F0
0FFFF0
03FFE0
00FF00
006000
006000
003800
003800
003800
00F800
00F000
ENDCHAR
STARTCHAR Egrave
ENCODING 200
SWIDTH 542 0
DWIDTH 18 0
BBX 15 32 3 0
BITMAP
3C00
1E00
0E00
0700
0380
0000
0000
FFFC
FFFC
FFFC
F000
F000
F000
F000
F000
F000
F000
F000
FFF8
FFF8
FFF8
F000
F000
F000
F000
F000
F000
F000
F000
FFFE
FFFE
FFFE
ENDCHAR
STARTCHAR Eacute
ENCODING 201
SWIDTH 542 0
DWIDTH 18 0
BBX 15 32 3 0
BITMAP
01E0
03C0
0380
0700
0E00
0000
0000
FFFC
FFFC
FFFC
F000
F000
F000
F000
F000
F000
F000
F000
FFF8
FFF8
FFF8
F000
F000
F000
F000
F000
F000
F000
F000
FFFE
FFFE
FFFE
ENDCHAR
STARTCHAR Ecircumflex
ENCODING 202
SWIDTH 542 0
DWIDTH 18 0
BBX 15 32 3 0
BITMAP
0F80
0F80
1DC0
38E0
7070
0000
0000
FFFC
FFFC
FFFC
F000
F000
F000
F000
F000
F000
F000
F000
FFF8
FFF8
FFF8
F000
F000
F000
F000
F000
F000
F000
F000
FFFE
FFFE
FFFE
ENDCHAR
STARTCHAR Edieresis
ENCODING 203
SWIDTH 542 0
DWIDTH 18 0
BBX 15 30 3 0
BITMAP
38E0
38E0
38E0
0000
0000
FFFC
FFFC
FFFC
F000
F000
F000
F000
F000
F000
F000
F000
FFF8
FFF8
FFF8
F000
F000
F000
F000
F000
F000
F000
F000
FFFE
FFFE
FFFE
ENDCHAR
STARTCHAR Igrave
ENCODING 204
SWIDTH 288 0
DWIDTH 10 0
BBX 7 31 1 0
BITMAP
F0
78
38
1C
0E
00
3C
3C
3C
3C
3C
3C
3C
3C
3C
3C
3C
3C
3C
3C
3C
3C
3C
3C
3C
3C
3C
3C
3C
3C
3C
ENDCHAR
STARTCHAR Iacute
ENCODING 205
SWIDTH 288 0
DWIDTH 10 0
BBX 7 31 3 0
BITMAP
1E
3C
38
70
E0
00
F0
F0
F0
F0
F0
F0
F0
F0
F0
F0
F0
F0
F0
F0
F0
F0
F0
F0
F0
F0
F0
F0
F0
F0
F0
ENDCHAR
STARTCHAR Icircumflex
ENCODING 206
SWIDTH 288 0
DWIDTH 10 0
BBX 11 31 0 0
BITMAP
1F00
1F00
3B80
71C0
E0E0
0000
1E00
1E00
1E00
1E00
1E00
1E00
1E00
1E00
1E00
1E00
1E00
1E00
1E00
1E00
1E00
1E00
1E00
1E00
1E00
1E00
1E00
1E00
1E00
1E00
1E00
ENDCHAR
STARTCHAR Idieresis
ENCODING 207
SWIDTH 288 0
DWIDTH 10 0
BBX 9 29 1 0
BITMAP
E380
E380
E380
0000
3C00
3C00
3C00
3C00
3C00
3C00
3C00
3C00
3C00
3C00
3C00
3C00
3C00
3C00
3C00
3C00
3C00
3C00
3C00
3C00
3C00
3C00
3C00
3C00
3C00
ENDCHAR
STARTCHAR Eth
ENCODING 208
SWIDTH 749 0
DWIDTH 25 0
BBX 25 25 0 0
BITMAP
0FFF8000
0FFFE000
0FFFF800
0F00FC00
0F003E00
0F001F00
0F000F00
0F000F00
0F000F80
0F000780
0F000780
FFFC0780
FFFC0780
FFFC0780
0F000780
0F000780
0F000700
0F000F00
0F000F00
0F001E00
0F003E00
0F00FC00
0FFFF800
0FFFE000
0FFF8000
ENDCHAR
STARTCHAR Ntilde
ENCODING 209
SWIDTH 741 0
DWIDTH 25 0
BBX 19 31 3 0
BITMAP
078600
0FFE00
0FFC00
0C3800
000000
000000
F000E0
F800E0
F800E0
FC00E0
FE00E0
FE00E0
FF00E0
EF80E0
E780E0
E7C0E0
E3E0E0
E1E0E0
E1F0E0
E0F8E0
E0F8E0
E07CE0
E03EE0
E03EE0
E01FE0
E00FE0
E00FE0
E007E0
E003E0
E003E0
E001E0
ENDCHAR
STARTCHAR Ograve
ENCODING 210
SWIDTH 777 0
DWIDTH 26 0
BBX 23 32 2 0
BITMAP
01E000
00F000
007000
003800
001C00
000000
000000
00FE00
07FFC0
0FFFE0
1F83F0
3E00F8
3C0078
78003C
78003C
F8003E
F0001E
F0001E
F0001E
F0001E
F0001E
F0001E
F0001E
F8003E
78003C
78003C
3C0078
3E00F8
1F83F0
0FFFE0
07FFC0
00FE00
ENDCHAR
STARTCHAR Oacute
ENCODING 211
SWIDTH 777 0
DWIDTH 26 0
BBX 23 32 2 0
BITMAP
000F00
001E00
001C00
003800
007000
000000
000000
00FE00
07FFC0
0FFFE0
1F83F0
3E00F8
3C0078
78003C
78003C
F8003E
F0001E
F0001E
F0001E
F0001E
F0001E
F0001E
F0001E
F8003E
78003C
78003C
3C0078
3E00F8
1F83F0
0FFFE0
07FFC0
00FE00
ENDCHAR
STARTCHAR Ocircumflex
ENCODING 212
SWIDTH 777 0
DWIDTH 26 0
BBX 23 32 2 0
BITMAP
007C00
007C00
00EE00
01C700
038380
000000
000000
00FE00
07FFC0
0FFFE0
1F83F0
3E00F8
3C0078
78003C
78003C
F8003E
F0001E
F0001E
F0001E
F0001E
F0001E
F0001E
F0001E
F8003E
78003C
78003C
3C0078
3E00F8
1F83F0
0FFFE0
07FFC0
00FE00
ENDCHAR
STARTCHAR Otilde
ENCODING 213
SWIDTH 777 0
DWIDTH 26 0
BBX 23 31 2 0
BITMAP
01E180
03FF80
03FF00
030E00
000000
000000
00FE00
07FFC0
0FFFE0
1F83F0
3E00F8
3C0078
78003C
78003C
F8003E
F0001E
F0001E
F0001E
F0001E
F0001E
F0001E
F0001E
F8003E
78003C
78003C
3C0078
3E00F8
1F83F0
0FFFE0
07FFC0
00FE00
ENDCHAR
STARTCHAR Odieresis
ENCODING 214
SWIDTH 777 0
DWIDTH 26 0
BBX 23 30 2 0
BITMAP
01C700
01C700
01C700
000000
000000
00FE00
07FFC0
0FFFE0
1F83F0
3E00F8
3C0078
78003C
78003C
F8003E
F0001E
F0001E
F0001E
F0001E
F0001E
F0001E
F0001E
F8003E
78003C
78003C
3C0078
3E00F8
1F83F0
0FFFE0
07FFC0
00FE00
ENDCHAR
STARTCHAR multiply
ENCODING 215
SWIDTH 633 0
DWIDTH 21 0
BBX 20 21 1 0
BITMAP
600060
E00070
F000F0
7801E0
3C03C0
1E0780
0F0F00
079E00
03FC00
01F800
00F000
01F800
03FC00
079E00
0F0F00
1E0780
3C03C0
7801E0
F000F0
E00070
600060
ENDCHAR
STARTCHAR Oslash
ENCODING 216
SWIDTH 777 0
DWIDTH 26 0
BBX 23 25 2 0
BITMAP
00FE1E
07FFFC
0FFFF8
1F83F8
3E00F8
3C01F8
7803FC
7803BC
F807BE
F00F1E
F01E1E
F03C1E
F0381E
F0781E
F0F01E
F1E01E
FBC03E
7B803C
7F803C
3F0078
3E00F8
3F83F0
3FFFE0
7FFFC0
F0FE00
ENDCHAR
STARTCHAR Ugrave
ENCODING 217
SWIDTH 693 0
DWIDTH 24 0
BBX 18 32 3 0
BITMAP
078000
03C000
01C000
00E000
007000
000000
000000
F001C0
F001C0
F001C0
F001C0
F001C0
F001C0
F001C0
F001C0
F001C0
F001C0
F001C0
F001C0
F001C0
F001C0
F001C0
F001C0
F001C0
F001C0
F001C0
F803C0
780380
7E0780
3FFF00
1FFE00
07F800
ENDCHAR
STARTCHAR Uacute
ENCODING 218
SWIDTH 693 0
DWIDTH 24 0
BBX 18 32 3 0
BITMAP
007800
00F000
00E000
01C000
038000
000000
000000
F001C0
F001C0
F001C0
F001C0
F001C0
F001C0
F001C0
F001C0
F001C0
F001C0
F001C0
F001C0
F001C0
F001C0
F001C0
F001C0
F001C0
F001C0
F001C0
F803C0
780380
7E0780
3FFF00
1FFE00
07F800
ENDCHAR
STARTCHAR Ucircumflex
ENCODING 219
SWIDTH 693 0
DWIDTH 24 0
BBX 18 32 3 0
BITMAP
01F000
01F000
03B800
071C00
0E0E00
000000
000000
F001C0
F001C0
F001C0
F001C0
F001C0
F001C0
F001C0
F001C0
F001C0
F001C0
F001C0
F001C0
F001C0
F001C0
F001C0
F001C0
F001C0
F001C0
F001C0
F803C0
780380
7E0780
3FFF00
1FFE00
07F800
ENDCHAR
STARTCHAR Udieresis
ENCODING 220
SWIDTH 693 0
DWIDTH 24 0
BBX 18 30 3 0
BITMAP
0E3800
0E3800
0E3800
000000
000000
F001C0
F001C0
F001C0
F001C0
F001C0
F001C0
F001C0
F001C0
F001C0
F001C0
F001C0
F001C0
F001C0
F001C0
F001C0
F001C0
F001C0
F001C0
F001C0
F803C0
780380
7E0780
3FFF00
1FFE00
07F800
ENDCHAR
STARTCHAR Yacute
ENCODING 221
SWIDTH 623 0
DWIDTH 21 0
BBX 21 32 0 0
BITMAP
001E00
003C00
003800
007000
00E000
000000
000000
F00078
780070
7C00F0
3C01E0
3E01C0
1E03C0
1F0380
0F8700
078F00
07CE00
03DE00
03FC00
01F800
01F800
00F000
00F000
00F000
00F000
00F000
00F000
00F000
00F000
00F000
00F000
00F000
ENDCHAR
STARTCHAR Thorn
ENCODING 222
SWIDTH 553 0
DWIDTH 19 0
BBX 15 25 3 0
BITMAP
F000
F000
F000
F000
F000
FFE0
FFF8
FFFC
F07E
F03E
F01E
F01E
F01E
F01E
F03E
F03C
F0FC
FFF8
FFF0
FFC0
F000
F000
F000
F000
F000
ENDCHAR
STARTCHAR germandbls
ENCODING 223
SWIDTH 598 0
DWIDTH 20 0
BBX 17 27 3 0
BITMAP
1FC000
3FF000
7FF000
78F800
F07800
F07800
F07800
F07000
F0F000
F0E000
F1C000
F1C000
F1E000
F1F000
F1F800
F0FC00
F07E00
F03F00
F01F00
F00780
F00780
F00380
F00380
F30780
F3FF00
F3FE00
F0FC00
ENDCHAR
STARTCHAR agrave
ENCODING 224
SWIDTH 552 0
DWIDTH 19 0
BBX 17 25 1 0
BITMAP
0F0000
078000
038000
01C000
00E000
000000
000000
07F000
3FF800
3FFC00
307C00
203C00
003C00
003C00
07FC00
1FFC00
7FFC00
7C3C00
F83C00
F03C00
F03C00
F87C00
7FFF80
7FCF80
1F0780
ENDCHAR
STARTCHAR aacute
ENCODING 225
SWIDTH 552 0
DWIDTH 19 0
BBX 17 25 1 0
BITMAP
00F000
01E000
01C000
038000
070000
000000
000000
07F000
3FF800
3FFC00
307C00
203C00
003C00
003C00
07FC00
1FFC00
7FFC00
7C3C00
F83C00
F03C00
F03C00
F87C00
7FFF80
7FCF80
1F0780
ENDCHAR
STARTCHAR acircumflex
ENCODING 226
SWIDTH 552 0
DWIDTH 19 0
BBX 17 25 1 0
BITMAP
03E000
03E000
077000
0E3800
1C1C00
000000
000000
07F000
3FF800
3FFC00
307C00
203C00
003C00
003C00
07FC00
1FFC00
7FFC00
7C3C00
F83C00
F03C00
F03C00
F87C00
7FFF80
7FCF80
1F0780
ENDCHAR
STARTCHAR atilde
ENCODING 227
SWIDTH 552 0
DWIDTH 19 0
BBX 17 24 1 0
BITMAP
0F0C00
1FFC00
1FF800
187000
000000
000000
07F000
3FF800
3FFC00
307C00
203C00
003C00
003C00
07FC00
1FFC00
7FFC00
7C3C00
F83C00
F03C00
F03C00
F87C00
7FFF80
7FCF80
1F0780
ENDCHAR
STARTCHAR adieresis
ENCODING 228
SWIDTH 552 0
DWIDTH 19 0
BBX 17 23 1 0
BITMAP
0E3800
0E3800
0E3800
000000
000000
07F000
3FF800
3FFC00
307C00
203C00
003C00
003C00
07FC00
1FFC00
7FFC00
7C3C00
F83C00
F03C00
F03C00
F87C00
7FFF80
7FCF80
1F0780
ENDCHAR
STARTCHAR aring
ENCODING 229
SWIDTH 552 0
DWIDTH 19 0
BBX 17 25 1 0
BITMAP
01C000
036000
022000
036000
01C000
000000
000000
07F000
3FF800
3FFC00
307C00
203C00
003C00
003C00
07FC00
1FFC00
7FFC00
7C3C00
F83C00
F03C00
F03C00
F87C00
7FFF80
7FCF80
1F0780
ENDCHAR
STARTCHAR ae
ENCODING 230
SWIDTH 853 0
DWIDTH 29 0
BBX 24 18 2 0
BITMAP
0FC1F0
3FF7FC
3FFFFC
307F1E
203E0E
003C0F
003C0F
07FFFF
1FFFFF
7FFFFF
7C3C00
F83C00
F03E00
F03F00
F86F81
7FCFFF
7F87FF
1E01FC
ENDCHAR
STARTCHAR ccedilla
ENCODING 231
SWIDTH 518 0
DWIDTH 17 0
BBX 14 25 2 -7
BITMAP
07FC
1FFC
3FFC
7E0C
7C00
7800
F000
F000
F000
F000
F000
F000
7800
7C00
3E04
3FFC
0FFC
07F0
0300
0300
01C0
01C0
01C0
07C0
0780
ENDCHAR
STARTCHAR egrave
ENCODING 232
SWIDTH 557 0
DWIDTH 19 0
BBX 15 25 2 0
BITMAP
1E00
0F00
0700
0380
01C0
0000
0000
07E0
1FF0
3FF8
3C3C
781C
701E
F01E
FFFE
FFFE
FFFE
F000
F000
7800
7C00
3E06
1FFE
0FFE
03F8
ENDCHAR
STARTCHAR eacute
ENCODING 233
SWIDTH 557 0
DWIDTH 19 0
BBX 15 25 2 0
BITMAP
00F0
01E0
01C0
0380
0700
0000
0000
07E0
1FF0
3FF8
3C3C
781C
701E
F01E
FFFE
FFFE
FFFE
F000
F000
7800
7C00
3E06
1FFE
0FFE
03F8
ENDCHAR
STARTCHAR ecircumflex
ENCODING 234
SWIDTH 557 0
DWIDTH 19 0
BBX 15 25 2 0
BITMAP
07C0
07C0
0EE0
1C70
3838
0000
0000
07E0
1FF0
3FF8
3C3C
781C
701E
F01E
FFFE
FFFE
FFFE
F000
F000
7800
7C00
3E06
1FFE
0FFE
03F8
ENDCHAR
STARTCHAR edieresis
ENCODING 235
SWIDTH 557 0
DWIDTH 19 0
BBX 15 23 2 0
BITMAP
1C70
1C70
1C70
0000
0000
07E0
1FF0
3FF8
3C3C
781C
701E
F01E
FFFE
FFFE
FFFE
F000
F000
7800
7C00
3E06
1FFE
0FFE
03F8
ENDCHAR
STARTCHAR igrave
ENCODING 236
SWIDTH 289 0
DWIDTH 10 0
BBX 7 24 1 0
BITMAP
F0
78
38
1C
0E
00
3C
3C
3C
3C
3C
3C
3C
3C
3C
3C
3C
3C
3C
3C
3C
3C
3C
3C
ENDCHAR
STARTCHAR iacute
ENCODING 237
SWIDTH 289 0
DWIDTH 10 0
BBX 7 24 3 0
BITMAP
1E
3C
38
70
E0
00
F0
F0
F0
F0
F0
F0
F0
F0
F0
F0
F0
F0
F0
F0
F0
F0
F0
F0
ENDCHAR
STARTCHAR icircumflex
ENCODING 238
SWIDTH 289 0
DWIDTH 10 0
BBX 11 24 0 0
BITMAP
1F00
1F00
3B80
71C0
E0E0
0000
1E00
1E00
1E00
1E00
1E00
1E00
1E00
1E00
1E00
1E00
1E00
1E00
1E00
1E00
1E00
1E00
1E00
1E00
ENDCHAR
STARTCHAR idieresis
ENCODING 239
SWIDTH 289 0
DWIDTH 10 0
BBX 9 22 1 0
BITMAP
E380
E380
E380
0000
3C00
3C00
3C00
3C00
3C00
3C00
3C00
3C00
3C00
3C00
3C00
3C00
3C00
3C00
3C00
3C00
3C00
3C00
ENDCHAR
STARTCHAR eth
ENCODING 240
SWIDTH 602 0
DWIDTH 20 0
BBX 17 26 2 0
BITMAP
FC4000
FFE000
C7E000
0FC000
3FE000
1EF000
187800
103C00
07FE00
1FFE00
3FFF00
7C1F00
780F80
F80F80
F00780
F00780
F00780
F00780
F00780
F00780
780F00
780F00
3E1E00
3FFE00
1FF800
07F000
ENDCHAR
STARTCHAR ntilde
ENCODING 241
SWIDTH 620 0
DWIDTH 21 0
BBX 15 24 3 0
BITMAP
1E18
3FF8
3FF0
30E0
0000
0000
F0F0
F3FC
F7FC
FE3E
FC1E
F81E
F01E
F01E
F01E
F01E
F01E
F01E
F01E
F01E
F01E
F01E
F01E
F01E
ENDCHAR
STARTCHAR ograve
ENCODING 242
SWIDTH 614 0
DWIDTH 21 0
BBX 17 25 2 0
BITMAP
0F0000
078000
038000
01C000
00E000
000000
000000
07F000
1FFC00
3FFE00
7C1F00
780F00
780F00
F00780
F00780
F00780
F00780
F00780
F00780
780F00
780F00
7C1F00
3FFE00
1FFC00
07F000
ENDCHAR
STARTCHAR oacute
ENCODING 243
SWIDTH 614 0
DWIDTH 21 0
BBX 17 25 2 0
BITMAP
007800
00F000
00E000
01C000
038000
000000
000000
07F000
1FFC00
3FFE00
7C1F00
780F00
780F00
F00780
F00780
F00780
F00780
F00780
F00780
780F00
780F00
7C1F00
3FFE00
1FFC00
07F000
ENDCHAR
STARTCHAR ocircumflex
ENCODING 244
SWIDTH 614 0
DWIDTH 21 0
BBX 17 25 2 0
BITMAP
03E000
03E000
077000
0E3800
1C1C00
000000
000000
07F000
1FFC00
3FFE00
7C1F00
780F00
780F00
F00780
F00780
F00780
F00780
F00780
F00780
780F00
780F00
7C1F00
3FFE00
1FFC00
07F000
ENDCHAR
STARTCHAR otilde
ENCODING 245
SWIDTH 614 0
DWIDTH 21 0
BBX 17 24 2 0
BITMAP
0F0C00
1FFC00
1FF800
187000
000000
000000
07F000
1FFC00
3FFE00
7C1F00
780F00
780F00
F00780
F00780
F00780
F00780
F00780
F00780
780F00
780F00
7C1F00
3FFE00
1FFC00
07F000
ENDCHAR
STARTCHAR odieresis
ENCODING 246
SWIDTH 614 0
DWIDTH 21 0
BBX 17 23 2 0
BITMAP
0E3800
0E3800
0E3800
000000
000000
07F000
1FFC00
3FFE00
7C1F00
780F00
780F00
F00780
F00780
F00780
F00780
F00780
F00780
780F00
780F00
7C1F00
3FFE00
1FFC00
07F000
ENDCHAR
STARTCHAR divide
ENCODING 247
SWIDTH 633 0
DWIDTH 21 0
BBX 20 17 1 1
BITMAP
00F000
00F000
00F000
00F000
000000
000000
000000
FFFFF0
FFFFF0
FFFFF0
000000
000000
000000
00F000
00F000
00F000
00F000
ENDCHAR
STARTCHAR oslash
ENCODING 248
SWIDTH 614 0
DWIDTH 21 0
BBX 17 18 2 0
BITMAP
07F780
1FFF00
3FFE00
7C1F00
783F00
787F00
F07780
F0F780
F1E780
F3C780
F78780
F70780
7F0F00
7E0F00
7C1F00
3FFE00
7FFC00
F7F000
ENDCHAR
STARTCHAR ugrave
ENCODING 249
SWIDTH 620 0
DWIDTH 21 0
BBX 15 25 3 0
BITMAP
1E00
0F00
0700
0380
01C0
0000
0000
F01E
F01E
F01E
F01E
F01E
F01E
F01E
F01E
F01E
F01E
F01E
F01E
F03E
F07E
F8FE
7FDE
7F9E
1E1E
ENDCHAR
STARTCHAR uacute
ENCODING 250
SWIDTH 620 0
DWIDTH 21 0
BBX 15 25 3 0
BITMAP
00F0
01E0
01C0
0380
0700
0000
0000
F01E
F01E
F01E
F01E
F01E
F01E
F01E
F01E
F01E
F01E
F01E
F01E
F03E
F07E
F8FE
7FDE
7F9E
1E1E
ENDCHAR
STARTCHAR ucircumflex
ENCODING 251
SWIDTH 620 0
DWIDTH 21 0
BBX 15 25 3 0
BITMAP
07C0
07C0
0EE0
1C70
3838
0000
0000
F01E
F01E
F01E
F01E
F01E
F01E
F01E
F01E
F01E
F01E
F01E
F01E
F03E
F07E
F8FE
7FDE
7F9E
1E1E
ENDCHAR
STARTCHAR udieresis
ENCODING 252
SWIDTH 620 0
DWIDTH 21 0
BBX 15 23 3 0
BITMAP
1C70
1C70
1C70
0000
0000
F01E
F01E
F01E
F01E
F01E
F01E
F01E
F01E
F01E
F01E
F01E
F01E
F03E
F07E
F8FE
7FDE
7F9E
1E1E
ENDCHAR
STARTCHAR yacute
ENCODING 253
SWIDTH 568 0
DWIDTH 18 0
BBX 17 32 0 -7
BITMAP
007800
00F000
00E000
01C000
038000
000000
000000
F00380
F80700
780700
780700
7C0E00
3C0E00
3C1E00
3E1C00
1E1C00
1E3800
1F3800
0F7800
0F7000
07F000
07E000
07E000
03E000
03C000
03C000
03C000
038000
078000
070000
070000
0F0000
ENDCHAR
STARTCHAR thorn
ENCODING 254
SWIDTH 630 0
DWIDTH 21 0
BBX 16 31 3 -7
BITMAP
F000
F000
F000
F000
F000
F000
F1F0
F3FC
F7FC
FC3E
F81E
F00F
F00F
F00F
F00F
F00F
F00F
F00F
F01E
F81E
FC3E
FFFC
F7F8
F1E0
F000
F000
F000
F000
F000
F000
F000
ENDCHAR
STARTCHAR ydieresis
ENCODING 255
SWIDTH 568 0
DWIDTH 18 0
BBX 17 30 0 -7
BITMAP
0E3800
0E3800
0E3800
000000
000000
F00380
F80700
780700
780700
7C0E00
3C0E00
3C1E00
3E1C00
1E1C00
1E3800
1F3800
0F7800
0F7000
07F000
07E000
07E000
03E000
03C000
03C000
03C000
038000
078000
070000
070000
0F0000
ENDCHAR
STARTCHAR Amacron
ENCODING 256
SWIDTH 690 0
DWIDTH 23 0
BBX 23 29 0 0
BITMAP
01FF00
01FF00
01FF00
000000
003C00
007C00
007E00
00FE00
00FE00
00FF00
01EF00
01CF80
03C780
038780
0387C0
0783C0
0703C0
0F01E0
0E01E0
0FFFF0
1FFFF0
1FFFF0
1C00F8
380078
38007C
78003C
70003C
70003E
E0001E
ENDCHAR
STARTCHAR amacron
ENCODING 257
SWIDTH 552 0
DWIDTH 19 0
BBX 17 22 1 0
BITMAP
0FF800
0FF800
0FF800
000000
07F000
3FF800
3FFC00
307C00
203C00
003C00
003C00
07FC00
1FFC00
7FFC00
7C3C00
F83C00
F03C00
F03C00
F87C00
7FFF80
7FCF80
1F0780
ENDCHAR
STARTCHAR Abreve
ENCODING 258
SWIDTH 690 0
DWIDTH 23 0
BBX 23 31 0 0
BITMAP
030180
038380
01FF00
00FE00
007C00
000000
003C00
007C00
007E00
00FE00
00FE00
00FF00
01EF00
01CF80
03C780
038780
0387C0
0783C0
0703C0
0F01E0
0E01E0
0FFFF0
1FFFF0
1FFFF0
1C00F8
380078
38007C
78003C
70003C
70003E
E0001E
ENDCHAR
STARTCHAR abreve
ENCODING 259
SWIDTH 552 0
DWIDTH 19 0
BBX 17 24 1 0
BITMAP
180C00
1C1C00
0FF800
07F000
03E000
000000
07F000
3FF800
3FFC00
307C00
203C00
003C00
003C00
07FC00
1FFC00
7FFC00
7C3C00
F83C00
F03C00
F03C00
F87C00
7FFF80
7FCF80
1F0780
ENDCHAR
STARTCHAR Aogonek
ENCODING 260
SWIDTH 690 0
DWIDTH 23 0
BBX 23 31 0 -6
BITMAP
003C00
007C00
007E00
00FE00
00FE00
00FF00
01EF00
01CF80
03C780
038780
0387C0
0783C0
0703C0
0F01E0
0E01E0
0FFFF0
1FFFF0
1FFFF0
1C00F8
380078
38007C
78003C
70003C
70003E
E0001E
000000
000E00
003800
003800
003D00
001F00
ENDCHAR
STARTCHAR aogonek
ENCODING 261
SWIDTH 552 0
DWIDTH 19 0
BBX 17 24 1 -6
BITMAP
07F000
3FF800
3FFC00
307C00
203C00
003C00
003C00
07FC00
1FFC00
7FFC00
7C3C00
F83C00
F03C00
F03C00
F87C00
7FFF80
7FCF80
1F0780
000000
00E000
038000
038000
03D000
01F000
ENDCHAR
STARTCHAR Cacute
ENCODING 262
SWIDTH 692 0
DWIDTH 24 0
BBX 20 31 2 0
BITMAP
001E00
003C00
003800
007000
00E000
000000
00FF00
03FFF0
0FFFF0
1F80F0
3E0010
3C0000
7C0000
780000
F80000
F00000
F00000
F00000
F00000
F00000
F00000
F00000
F80000
780000
7C0000
3C0000
3E0010
1F80F0
0FFFF0
03FFE0
00FF00
ENDCHAR
STARTCHAR cacute
ENCODING 263
SWIDTH 518 0
DWIDTH 17 0
BBX 14 24 2 0
BITMAP
00F0
01E0
01C0
0380
0700
0000
07FC
1FFC
3FFC
7E0C
7C00
7800
F000
F000
F000
F000
F000
F000
7800
7C00
3E04
3FFC
0FFC
07F0
ENDCHAR
STARTCHAR Ccircumflex
ENCODING 264
SWIDTH 692 0
DWIDTH 24 0
BBX 20 31 2 0
BITMAP
00F800
00F800
01DC00
038E00
070700
000000
00FF00
03FFF0
0FFFF0
1F80F0
3E0010
3C0000
7C0000
780000
F80000
F00000
F00000
F00000
F00000
F00000
F00000
F00000
F80000
780000
7C0000
3C0000
3E0010
1F80F0
0FFFF0
03FFE0
00FF00
ENDCHAR
STARTCHAR ccircumflex
ENCODING 265
SWIDTH 518 0
DWIDTH 17 0
BBX 14 24 2 0
BITMAP
07C0
07C0
0EE0
1C70
3838
0000
07FC
1FFC
3FFC
7E0C
7C00
7800
F000
F000
F000
F000
F000
F000
7800
7C00
3E04
3FFC
0FFC
07F0
ENDCHAR
STARTCHAR Cdotaccent
ENCODING 266
SWIDTH 692 0
DWIDTH 24 0
BBX 20 30 2 0
BITMAP
007000
007000
007000
007000
000000
00FF00
03FFF0
0FFFF0
1F80F0
3E0010
3C0000
7C0000
780000
F80000
F00000
F00000
F00000
F00000
F00000
F00000
F00000
F80000
780000
7C0000
3C0000
3E0010
1F80F0
0FFFF0
03FFE0
00FF00
ENDCHAR
STARTCHAR cdotaccent
ENCODING 267
SWIDTH 518 0
DWIDTH 17 0
BBX 14 23 2 0
BITMAP
0380
0380
0380
0380
0000
07FC
1FFC
3FFC
7E0C
7C00
7800
F000
F000
F000
F000
F000
F000
7800
7C00
3E04
3FFC
0FFC
07F0
ENDCHAR
STARTCHAR Ccaron
ENCODING 268
SWIDTH 692 0
DWIDTH 24 0
BBX 20 31 2 0
BITMAP
070700
038E00
01DC00
00F800
00F800
000000
00FF00
03FFF0
0FFFF0
1F80F0
3E0010
3C0000
7C0000
780000
F80000
F00000
F00000
F00000
F00000
F00000
F00000
F00000
F80000
780000
7C0000
3C0000
3E0010
1F80F0
0FFFF0
03FFE0
00FF00
ENDCHAR
STARTCHAR ccaron
ENCODING 269
SWIDTH 518 0
DWIDTH 17 0
BBX 14 24 2 0
BITMAP
3838
1C70
0EE0
07C0
07C0
0000
07FC
1FFC
3FFC
7E0C
7C00
7800
F000
F000
F000
F000
F000
F000
7800
7C00
3E04
3FFC
0FFC
07F0
ENDCHAR
STARTCHAR Dcaron
ENCODING 270
SWIDTH 749 0
DWIDTH 25 0
BBX 21 31 3 0
BITMAP
0E0E00
071C00
03B800
01F000
01F000
000000
FFF800
FFFE00
FFFF80
F00FC0
F003E0
F001F0
F000F0
F000F0
F000F8
F00078
F00078
F00078
F00078
F00078
F00078
F00078
F00070
F000F0
F000F0
F001E0
F003E0
F00FC0
FFFF80
FFFE00
FFF800
ENDCHAR
STARTCHAR dcaron
ENCODING 271
SWIDTH 828 0
DWIDTH 28 0
BBX 24 26 2 0
BITMAP
000F1F
000F1F
000F1F
000F1F
000F07
000F07
000F07
000F06
078F0E
1FEF18
3FFF00
7C3F00
781F00
780F00
F00F00
F00F00
F00F00
F00F00
F00F00
F00F00
F00F00
781F00
7C3F00
3FEF00
3FCF00
0F8F00
ENDCHAR
STARTCHAR Dcroat
ENCODING 272
SWIDTH 749 0
DWIDTH 25 0
BBX 25 25 0 0
BITMAP
0FFF8000
0FFFE000
0FFFF800
0F00FC00
0F003E00
0F001F00
0F000F00
0F000F00
0F000F80
0F000780
0F000780
FFFC0780
FFFC0780
FFFC0780
0F000780
0F000780
0F000700
0F000F00
0F000F00
0F001E00
0F003E00
0F00FC00
0FFFF800
0FFFE000
0FFF8000
ENDCHAR
STARTCHAR dcroat
ENCODING 273
SWIDTH 630 0
DWIDTH 21 0
BBX 16 26 2 0
BITMAP
000F
000F
000F
000F
000F
003F
003F
003F
078F
1FEF
3FFF
7C3F
781F
780F
F00F
F00F
F00F
F00F
F00F
F00F
F00F
781F
7C3F
3FEF
3FCF
0F8F
ENDCHAR
STARTCHAR Emacron
ENCODING 274
SWIDTH 542 0
DWIDTH 18 0
BBX 15 29 3 0
BITMAP
3FE0
3FE0
3FE0
0000
FFFC
FFFC
FFFC
F000
F000
F000
F000
F000
F000
F000
F000
FFF8
FFF8
FFF8
F000
F000
F000
F000
F000
F000
F000
F000
FFFE
FFFE
FFFE
ENDCHAR
STARTCHAR emacron
ENCODING 275
SWIDTH 557 0
DWIDTH 19 0
BBX 15 22 2 0
BITMAP
1FF0
1FF0
1FF0
0000
07E0
1FF0
3FF8
3C3C
781C
701E
F01E
FFFE
FFFE
FFFE
F000
F000
7800
7C00
3E06
1FFE
0FFE
03F8
ENDCHAR
STARTCHAR Ebreve
ENCODING 276
SWIDTH 542 0
DWIDTH 18 0
BBX 15 31 3 0
BITMAP
6030
7070
3FE0
1FC0
0F80
0000
FFFC
FFFC
FFFC
F000
F000
F000
F000
F000
F000
F000
F000
FFF8
FFF8
FFF8
F000
F000
F000
F000
F000
F000
F000
F000
FFFE
FFFE
FFFE
ENDCHAR
STARTCHAR ebreve
ENCODING 277
SWIDTH 557 0
DWIDTH 19 0
BBX 15 24 2 0
BITMAP
3018
3838
1FF0
0FE0
07C0
0000
07E0
1FF0
3FF8
3C3C
781C
701E
F01E
FFFE
FFFE
FFFE
F000
F000
7800
7C00
3E06
1FFE
0FFE
03F8
ENDCHAR
STARTCHAR Edotaccent
ENCODING 278
SWIDTH 542 0
DWIDTH 18 0
BBX 15 30 3 0
BITMAP
0700
0700
0700
0700
0000
FFFC
FFFC
FFFC
F000
F000
F000
F000
F000
F000
F000
F000
FFF8
FFF8
FFF8
F000
F000
F000
F000
F000
F000
F000
F000
FFFE
FFFE
FFFE
ENDCHAR
STARTCHAR edotaccent
ENCODING 279
SWIDTH 557 0
DWIDTH 19 0
BBX 15 23 2 0
BITMAP
0380
0380
0380
0380
0000
07E0
1FF0
3FF8
3C3C
781C
701E
F01E
FFFE
FFFE
FFFE
F000
F000
7800
7C00
3E06
1FFE
0FFE
03F8
ENDCHAR
STARTCHAR Eogonek
ENCODING 280
SWIDTH 542 0
DWIDTH 18 0
BBX 15 31 3 -6
BITMAP
FFFC
FFFC
FFFC
F000
F000
F000
F000
F000
F000
F000
F000
FFF8
FFF8
FFF8
F000
F000
F000
F000
F000
F000
F000
F000
FFFE
FFFE
FFFE
0000
0380
0E00
0E00
0F40
07C0
ENDCHAR
STARTCHAR eogonek
ENCODING 281
SWIDTH 557 0
DWIDTH 19 0
BBX 15 24 2 -6
BITMAP
07E0
1FF0
3FF8
3C3C
781C
701E
F01E
FFFE
FFFE
FFFE
F000
F000
7800
7C00
3E06
1FFE
0FFE
03F8
0000
01C0
0700
0700
07A0
03E0
ENDCHAR
STARTCHAR Ecaron
ENCODING 282
SWIDTH 542 0
DWIDTH 18 0
BBX 15 31 3 0
BITMAP
7070
38E0
1DC0
0F80
0F80
0000
FFFC
FFFC
FFFC
F000
F000
F000
F000
F000
F000
F000
F000
FFF8
FFF8
FFF8
F000
F000
F000
F000
F000
F000
F000
F000
FFFE
FFFE
FFFE
ENDCHAR
STARTCHAR ecaron
ENCODING 283
SWIDTH 557 0
DWIDTH 19 0
BBX 15 24 2 0
BITMAP
3838
1C70
0EE0
07C0
07C0
0000
07E0
1FF0
3FF8
3C3C
781C
701E
F01E
FFFE
FFFE
FFFE
F000
F000
7800
7C00
3E06
1FFE
0FFE
03F8
ENDCHAR
STARTCHAR Gcircumflex
ENCODING 284
SWIDTH 723 0
DWIDTH 25 0
BBX 20 31 2 0
BITMAP
00F800
00F800
01DC00
038E00
070700
000000
00FF80
03FFF0
0FFFF0
1F80F0
3E0010
3C0000
7C0000
780000
F80000
F00000
F00000
F00000
F00000
F000F0
F000F0
F000F0
F800F0
7800F0
7800F0
3C00F0
3E00F0
1F80F0
0FFFF0
07FFF0
00FF80
ENDCHAR
STARTCHAR gcircumflex
ENCODING 285
SWIDTH 623 0
DWIDTH 21 0
BBX 16 31 2 -7
BITMAP
03E0
03E0
0770
0E38
1C1C
0000
078F
1FEF
3FFF
7C3F
781F
780F
F00F
F00F
F00F
F00F
F00F
F00F
F00F
781F
7C3F
3FEF
1FCF
0F8F
000F
000E
001E
203E
3FFC
7FF8
1FE0
ENDCHAR
STARTCHAR Gbreve
ENCODING 286
SWIDTH 723 0
DWIDTH 25 0
BBX 20 31 2 0
BITMAP
060300
070700
03FE00
01FC00
00F800
000000
00FF80
03FFF0
0FFFF0
1F80F0
3E0010
3C0000
7C0000
780000
F80000
F00000
F00000
F00000
F00000
F000F0
F000F0
F000F0
F800F0
7800F0
7800F0
3C00F0
3E00F0
1F80F0
0FFFF0
07FFF0
00FF80
ENDCHAR
STARTCHAR gbreve
ENCODING 287
SWIDTH 623 0
DWIDTH 21 0
BBX 16 31 2 -7
BITMAP
180C
1C1C
0FF8
07F0
03E0
0000
078F
1FEF
3FFF
7C3F
781F
780F
F00F
F00F
F00F
F00F
F00F
F00F
F00F
781F
7C3F
3FEF
1FCF
0F8F
000F
000E
001E
203E
3FFC
7FF8
1FE0
ENDCHAR
STARTCHAR Gdotaccent
ENCODING 288
SWIDTH 723 0
DWIDTH 25 0
BBX 20 30 2 0
BITMAP
007000
007000
007000
007000
000000
00FF80
03FFF0
0FFFF0
1F80F0
3E0010
3C0000
7C0000
780000
F80000
F00000
F00000
F00000
F00000
F000F0
F000F0
F000F0
F800F0
7800F0
7800F0
3C00F0
3E00F0
1F80F0
0FFFF0
07FFF0
00FF80
ENDCHAR
STARTCHAR gdotaccent
ENCODING 289
SWIDTH 623 0
DWIDTH 21 0
BBX 16 30 2 -7
BITMAP
01C0
01C0
01C0
01C0
0000
078F
1FEF
3FFF
7C3F
781F
780F
F00F
F00F
F00F
F00F
F00F
F00F
F00F
781F
7C3F
3FEF
1FCF
0F8F
000F
000E
001E
203E
3FFC
7FF8
1FE0
ENDCHAR
STARTCHAR Gcommaaccent
ENCODING 290
SWIDTH 723 0
DWIDTH 25 0
BBX 20 37 2 -12
BITMAP
00FF80
03FFF0
0FFFF0
1F80F0
3E0010
3C0000
7C0000
780000
F80000
F00000
F00000
F00000
F00000
F000F0
F000F0
F000F0
F800F0
7800F0
7800F0
3C00F0
3E00F0
1F80F0
0FFFF0
07FFF0
00FF80
000000
007C00
007C00
007C00
007C00
007C00
001C00
001C00
001C00
003800
007800
006000
ENDCHAR
STARTCHAR gcommaaccent
ENCODING 291
SWIDTH 623 0
DWIDTH 21 0
BBX 16 36 2 -7
BITMAP
00E0
01C0
0380
0380
0380
03E0
03E0
03E0
03E0
03E0
0000
078F
1FEF
3FFF
7C3F
781F
780F
F00F
F00F
F00F
F00F
F00F
F00F
F00F
781F
7C3F
3FEF
1FCF
0F8F
000F
000E
001E
203E
3FFC
7FF8
1FE0
ENDCHAR
STARTCHAR Hcircumflex
ENCODING 292
SWIDTH 735 0
DWIDTH 25 0
BBX 19 31 3 0
BITMAP
01F000
01F000
03B800
071C00
0E0E00
000000
F001E0
F001E0
F001E0
F001E0
F001E0
F001E0
F001E0
F001E0
F001E0
F001E0
FFFFE0
FFFFE0
FFFFE0
F001E0
F001E0
F001E0
F001E0
F001E0
F001E0
F001E0
F001E0
F001E0
F001E0
F001E0
F001E0
ENDCHAR
STARTCHAR hcircumflex
ENCODING 293
SWIDTH 620 0
DWIDTH 21 0
BBX 17 32 1 0
BITMAP
1F0000
1F0000
3B8000
71C000
E0E000
000000
3C0000
3C0000
3C0000
3C0000
3C0000
3C0000
3C0000
3C0000
3C3C00
3CFF00
3DFF00
3F8F80
3F0780
3E0780
3C0780
3C0780
3C0780
3C0780
3C0780
3C0780
3C0780
3C0780
3C0780
3C0780
3C0780
3C0780
ENDCHAR
STARTCHAR Hbar
ENCODING 294
SWIDTH 735 0
DWIDTH 25 0
BBX 19 25 3 0
BITMAP
F001E0
F001E0
F001E0
F001E0
F001E0
FFFFE0
FFFFE0
FFFFE0
F001E0
F001E0
FFFFE0
FFFFE0
FFFFE0
F001E0
F001E0
F001E0
F001E0
F001E0
F001E0
F001E0
F001E0
F001E0
F001E0
F001E0
F001E0
ENDCHAR
STARTCHAR hbar
ENCODING 295
SWIDTH 620 0
DWIDTH 21 0
BBX 15 26 3 0
BITMAP
F000
F000
F000
F000
F000
FC00
FC00
FC00
F0F0
F3FC
F7FC
FE3E
FC1E
F81E
F01E
F01E
F01E
F01E
F01E
F01E
F01E
F01E
F01E
F01E
F01E
F01E
ENDCHAR
STARTCHAR Itilde
ENCODING 296
SWIDTH 288 0
DWIDTH 10 0
BBX 11 30 0 0
BITMAP
7860
FFE0
FFC0
C380
0000
1E00
1E00
1E00
1E00
1E00
1E00
1E00
1E00
1E00
1E00
1E00
1E00
1E00
1E00
1E00
1E00
1E00
1E00
1E00
1E00
1E00
1E00
1E00
1E00
1E00
ENDCHAR
STARTCHAR itilde
ENCODING 297
SWIDTH 289 0
DWIDTH 10 0
BBX 11 23 0 0
BITMAP
7860
FFE0
FFC0
C380
0000
1E00
1E00
1E00
1E00
1E00
1E00
1E00
1E00
1E00
1E00
1E00
1E00
1E00
1E00
1E00
1E00
1E00
1E00
ENDCHAR
STARTCHAR Imacron
ENCODING 298
SWIDTH 288 0
DWIDTH 10 0
BBX 9 29 1 0
BITMAP
FF80
FF80
FF80
0000
3C00
3C00
3C00
3C00
3C00
3C00
3C00
3C00
3C00
3C00
3C00
3C00
3C00
3C00
3C00
3C00
3C00
3C00
3C00
3C00
3C00
3C00
3C00
3C00
3C00
ENDCHAR
STARTCHAR imacron
ENCODING 299
SWIDTH 289 0
DWIDTH 10 0
BBX 9 22 1 0
BITMAP
FF80
FF80
FF80
0000
3C00
3C00
3C00
3C00
3C00
3C00
3C00
3C00
3C00
3C00
3C00
3C00
3C00
3C00
3C00
3C00
3C00
3C00
ENDCHAR
STARTCHAR Ibreve
ENCODING 300
SWIDTH 288 0
DWIDTH 10 0
BBX 11 31 0 0
BITMAP
C060
E0E0
7FC0
3F80
1F00
0000
1E00
1E00
1E00
1E00
1E00
1E00
1E00
1E00
1E00
1E00
1E00
1E00
1E00
1E00
1E00
1E00
1E00
1E00
1E00
1E00
1E00
1E00
1E00
1E00
1E00
ENDCHAR
STARTCHAR ibreve
ENCODING 301
SWIDTH 289 0
DWIDTH 10 0
BBX 11 24 0 0
BITMAP
C060
E0E0
7FC0
3F80
1F00
0000
1E00
1E00
1E00
1E00
1E00
1E00
1E00
1E00
1E00
1E00
1E00
1E00
1E00
1E00
1E00
1E00
1E00
1E00
ENDCHAR
STARTCHAR Iogonek
ENCODING 302
SWIDTH 288 0
DWIDTH 10 0
BBX 6 31 2 -6
BITMAP
78
78
78
78
78
78
78
78
78
78
78
78
78
78
78
78
78
78
78
78
78
78
78
78
78
00
38
E0
E0
F4
7C
ENDCHAR
STARTCHAR iogonek
ENCODING 303
SWIDTH 289 0
DWIDTH 10 0
BBX 6 31 2 -6
BITMAP
78
78
78
78
00
00
00
78
78
78
78
78
78
78
78
78
78
78
78
78
78
78
78
78
78
00
38
E0
E0
F4
7C
ENDCHAR
STARTCHAR Idotaccent
ENCODING 304
SWIDTH 288 0
DWIDTH 10 0
BBX 4 30 3 0
BITMAP
70
70
70
70
00
F0
F0
F0
F0
F0
F0
F0
F0
F0
F0
F0
F0
F0
F0
F0
F0
F0
F0
F0
F0
F0
F0
F0
F0
F0
ENDCHAR
STARTCHAR dotlessi
ENCODING 305
SWIDTH 289 0
DWIDTH 10 0
BBX 4 18 3 0
BITMAP
F0
F0
F0
F0
F0
F0
F0
F0
F0
F0
F0
F0
F0
F0
F0
F0
F0
F0
ENDCHAR
STARTCHAR IJ
ENCODING 306
SWIDTH 585 0
DWIDTH 21 0
BBX 16 31 3 -6
BITMAP
F00F
F00F
F00F
F00F
F00F
F00F
F00F
F00F
F00F
F00F
F00F
F00F
F00F
F00F
F00F
F00F
F00F
F00F
F00F
F00F
F00F
F00F
F00F
F00F
F00F
000F
001E
041E
07FC
07F8
07E0
ENDCHAR
STARTCHAR ij
ENCODING 307
SWIDTH 579 0
DWIDTH 20 0
BBX 15 32 3 -7
BITMAP
F01E
F01E
F01E
F01E
0000
0000
0000
F01E
F01E
F01E
F01E
F01E
F01E
F01E
F01E
F01E
F01E
F01E
F01E
F01E
F01E
F01E
F01E
F01E
F01E
001E
001E
001E
043C
07FC
07F8
03F0
ENDCHAR
STARTCHAR Jcircumflex
ENCODING 308
SWIDTH 311 0
DWIDTH 11 0
BBX 13 37 -2 -6
BITMAP
07C0
07C0
0EE0
1C70
3838
0000
01E0
01E0
01E0
01E0
01E0
01E0
01E0
01E0
01E0
01E0
01E0
01E0
01E0
01E0
01E0
01E0
01E0
01E0
01E0
01E0
01E0
01E0
01E0
01E0
01E0
01E0
03C0
83C0
FF80
FF00
FC00
ENDCHAR
STARTCHAR jcircumflex
ENCODING 309
SWIDTH 304 0
DWIDTH 10 0
BBX 13 31 -2 -7
BITMAP
07C0
07C0
0EE0
1C70
3838
0000
03C0
03C0
03C0
03C0
03C0
03C0
03C0
03C0
03C0
03C0
03C0
03C0
03C0
03C0
03C0
03C0
03C0
03C0
03C0
03C0
03C0
8780
FF80
FF00
7E00
ENDCHAR
STARTCHAR Kcommaaccent
ENCODING 310
SWIDTH 653 0
DWIDTH 22 0
BBX 19 37 3 -12
BITMAP
F00700
F00E00
F01E00
F03C00
F03800
F07800
F0F000
F1E000
F1C000
F3C000
F78000
FF0000
FF8000
FF8000
F7C000
F3E000
F1F000
F0F800
F0F800
F07C00
F03E00
F01F00
F01F80
F00F80
F007E0
000000
03E000
03E000
03E000
03E000
03E000
00E000
00E000
00E000
01C000
03C000
030000
ENDCHAR
STARTCHAR kcommaaccent
ENCODING 311
SWIDTH 585 0
DWIDTH 20 0
BBX 18 38 3 -12
BITMAP
F00000
F00000
F00000
F00000
F00000
F00000
F00000
F00000
F01E00
F03C00
F07800
F07000
F0F000
F1E000
F3C000
F78000
FF8000
FFC000
F7E000
F3F000
F1F000
F0F800
F07C00
F03E00
F01F00
F00FC0
000000
03E000
03E000
03E000
03E000
03E000
00E000
00E000
00E000
01C000
03C000
030000
ENDCHAR
STARTCHAR kgreenlandic
ENCODING 312
SWIDTH 585 0
DWIDTH 20 0
BBX 18 18 3 0
BITMAP
F01E00
F03C00
F07800
F07000
F0F000
F1E000
F3C000
F78000
FF8000
FFC000
F7E000
F3F000
F1F000
F0F800
F07C00
F03E00
F01F00
F00FC0
ENDCHAR
STARTCHAR Lacute
ENCODING 313
SWIDTH 533 0
DWIDTH 18 0
BBX 15 31 3 0
BITMAP
0F00
1E00
1C00
3800
7000
0000
F000
F000
F000
F000
F000
F000
F000
F000
F000
F000
F000
F000
F000
F000
F000
F000
F000
F000
F000
F000
F000
F000
FFFE
FFFE
FFFE
ENDCHAR
STARTCHAR lacute
ENCODING 314
SWIDTH 289 0
DWIDTH 10 0
BBX 7 32 3 0
BITMAP
1E
3C
38
70
E0
00
F0
F0
F0
F0
F0
F0
F0
F0
F0
F0
F0
F0
F0
F0
F0
F0
F0
F0
F0
F0
F0
F0
F0
F0
F0
F0
ENDCHAR
STARTCHAR Lcommaaccent
ENCODING 315
SWIDTH 533 0
DWIDTH 18 0
BBX 15 37 3 -12
BITMAP
F000
F000
F000
F000
F000
F000
F000
F000
F000
F000
F000
F000
F000
F000
F000
F000
F000
F000
F000
F000
F000
F000
FFFE
FFFE
FFFE
0000
0F80
0F80
0F80
0F80
0F80
0380
0380
0380
0700
0F00
0C00
ENDCHAR
STARTCHAR lcommaaccent
ENCODING 316
SWIDTH 289 0
DWIDTH 10 0
BBX 5 38 3 -12
BITMAP
F0
F0
F0
F0
F0
F0
F0
F0
F0
F0
F0
F0
F0
F0
F0
F0
F0
F0
F0
F0
F0
F0
F0
F0
F0
F0
00
F8
F8
F8
F8
F8
38
38
38
70
F0
C0
ENDCHAR
STARTCHAR Lcaron
ENCODING 317
SWIDTH 735 0
DWIDTH 25 0
BBX 20 26 3 0
BITMAP
0001F0
F001F0
F001F0
F001F0
F00070
F00070
F00070
F00060
F000E0
F00180
F00000
F00000
F00000
F00000
F00000
F00000
F00000
F00000
F00000
F00000
F00000
F00000
F00000
FFFE00
FFFE00
FFFE00
ENDCHAR
STARTCHAR lcaron
ENCODING 318
SWIDTH 504 0
DWIDTH 18 0
BBX 13 26 3 0
BITMAP
F0F8
F0F8
F0F8
F0F8
F038
F038
F038
F030
F070
F0C0
F000
F000
F000
F000
F000
F000
F000
F000
F000
F000
F000
F000
F000
F000
F000
F000
ENDCHAR
STARTCHAR Ldot
ENCODING 319
SWIDTH 822 0
DWIDTH 38 0
BBX 27 25 3 0
BITMAP
F0000000
F0000000
F0000000
F0000000
F0000000
F0000000
F0000000
F0000000
F0000000
F0000000
F0000000
F0000000
F0000000
F00001E0
F00001E0
F00001E0
F00001E0
F0000000
F0000000
F0000000
F0000000
F0000000
FFFE0000
FFFE0000
FFFE0000
ENDCHAR
STARTCHAR ldot
ENCODING 320
SWIDTH 591 0
DWIDTH 31 0
BBX 20 26 3 0
BITMAP
F00000
F00000
F00000
F00000
F00000
F00000
F00000
F00000
F00000
F00000
F00000
F00000
F00000
F00000
F000F0
F000F0
F000F0
F000F0
F00000
F00000
F00000
F00000
F00000
F00000
F00000
F00000
ENDCHAR
STARTCHAR Lslash
ENCODING 321
SWIDTH 533 0
DWIDTH 18 0
BBX 19 25 0 0
BITMAP
0F0000
0F0000
0F0000
0F0000
0F0000
0F0000
0F0000
0F0000
0F3000
0FF000
0FF000
0FC000
3F0000
FF0000
FF0000
CF0000
0F0000
0F0000
0F0000
0F0000
0F0000
0F0000
0FFFE0
0FFFE0
0FFFE0
ENDCHAR
STARTCHAR lslash
ENCODING 322
SWIDTH 289 0
DWIDTH 10 0
BBX 12 26 0 0
BITMAP
0F00
0F00
0F00
0F00
0F00
0F00
0F00
0F00
0F10
0F70
0FF0
0FE0
1F00
7F00
FF00
CF00
8F00
0F00
0F00
0F00
0F00
0F00
0F00
0F00
0F00
0F00
ENDCHAR
STARTCHAR Nacute
ENCODING 323
SWIDTH 741 0
DWIDTH 25 0
BBX 19 31 3 0
BITMAP
007800
00F000
00E000
01C000
038000
000000
F000E0
F800E0
F800E0
FC00E0
FE00E0
FE00E0
FF00E0
EF80E0
E780E0
E7C0E0
E3E0E0
E1E0E0
E1F0E0
E0F8E0
E0F8E0
E07CE0
E03EE0
E03EE0
E01FE0
E00FE0
E00FE0
E007E0
E003E0
E003E0
E001E0
ENDCHAR
STARTCHAR nacute
ENCODING 324
SWIDTH 620 0
DWIDTH 21 0
BBX 15 24 3 0
BITMAP
00F0
01E0
01C0
0380
0700
0000
F0F0
F3FC
F7FC
FE3E
FC1E
F81E
F01E
F01E
F01E
F01E
F01E
F01E
F01E
F01E
F01E
F01E
F01E
F01E
ENDCHAR
STARTCHAR Ncommaaccent
ENCODING 325
SWIDTH 741 0
DWIDTH 25 0
BBX 19 37 3 -12
BITMAP
F000E0
F800E0
F800E0
FC00E0
FE00E0
FE00E0
FF00E0
EF80E0
E780E0
E7C0E0
E3E0E0
E1E0E0
E1F0E0
E0F8E0
E0F8E0
E07CE0
E03EE0
E03EE0
E01FE0
E00FE0
E00FE0
E007E0
E003E0
E003E0
E001E0
000000
00F800
00F800
00F800
00F800
00F800
003800
003800
003800
007000
00F000
00C000
ENDCHAR
STARTCHAR ncommaaccent
ENCODING 326
SWIDTH 620 0
DWIDTH 21 0
BBX 15 30 3 -12
BITMAP
F0F0
F3FC
F7FC
FE3E
FC1E
F81E
F01E
F01E
F01E
F01E
F01E
F01E
F01E
F01E
F01E
F01E
F01E
F01E
0000
07C0
07C0
07C0
07C0
07C0
01C0
01C0
01C0
0380
0780
0600
ENDCHAR
STARTCHAR Ncaron
ENCODING 327
SWIDTH 741 0
DWIDTH 25 0
BBX 19 31 3 0
BITMAP
1C1C00
0E3800
077000
03E000
03E000
000000
F000E0
F800E0
F800E0
FC00E0
FE00E0
FE00E0
FF00E0
EF80E0
E780E0
E7C0E0
E3E0E0
E1E0E0
E1F0E0
E0F8E0
E0F8E0
E07CE0
E03EE0
E03EE0
E01FE0
E00FE0
E00FE0
E007E0
E003E0
E003E0
E001E0
ENDCHAR
STARTCHAR ncaron
ENCODING 328
SWIDTH 620 0
DWIDTH 21 0
BBX 15 24 3 0
BITMAP
3838
1C70
0EE0
07C0
07C0
0000
F0F0
F3FC
F7FC
FE3E
FC1E
F81E
F01E
F01E
F01E
F01E
F01E
F01E
F01E
F01E
F01E
F01E
F01E
F01E
ENDCHAR
STARTCHAR napostrophe
ENCODING 329
SWIDTH 838 0
DWIDTH 29 0
BBX 25 26 1 0
BITMAP
F8000000
F8000000
F8000000
F8000000
38000000
38000000
38000000
30000000
703C3C00
C03CFF00
003DFF00
003F8F80
003F0780
003E0780
003C0780
003C0780
003C0780
003C0780
003C0780
003C0780
003C0780
003C0780
003C0780
003C0780
003C0780
003C0780
ENDCHAR
STARTCHAR Eng
ENCODING 330
SWIDTH 741 0
DWIDTH 25 0
BBX 19 32 3 -7
BITMAP
F000E0
F800E0
F800E0
FC00E0
FE00E0
FE00E0
FF00E0
EF80E0
E780E0
E7C0E0
E3E0E0
E1E0E0
E1F0E0
E0F8E0
E0F8E0
E07CE0
E03EE0
E03FE0
E01FE0
E00FE0
E00FE0
E007E0
E003E0
E003E0
E001E0
0001E0
0001E0
0001E0
0043C0
007FC0
007F80
003F00
ENDCHAR
STARTCHAR eng
ENCODING 331
SWIDTH 620 0
DWIDTH 21 0
BBX 15 25 3 -7
BITMAP
F0F0
F3FC
F7FC
FE3E
FC1E
F81E
F01E
F01E
F01E
F01E
F01E
F01E
F01E
F01E
F01E
F01E
F01E
F01E
001E
001E
001E
043C
07FC
07F8
03F0
ENDCHAR
STARTCHAR Omacron
ENCODING 332
SWIDTH 777 0
DWIDTH 26 0
BBX 23 29 2 0
BITMAP
01FF00
01FF00
01FF00
000000
00FE00
07FFC0
0FFFE0
1F83F0
3E00F8
3C0078
78003C
78003C
F8003E
F0001E
F0001E
F0001E
F0001E
F0001E
F0001E
F0001E
F8003E
78003C
78003C
3C0078
3E00F8
1F83F0
0FFFE0
07FFC0
00FE00
ENDCHAR
STARTCHAR omacron
ENCODING 333
SWIDTH 614 0
DWIDTH 21 0
BBX 17 22 2 0
BITMAP
0FF800
0FF800
0FF800
000000
07F000
1FFC00
3FFE00
7C1F00
780F00
780F00
F00780
F00780
F00780
F00780
F00780
F00780
780F00
780F00
7C1F00
3FFE00
1FFC00
07F000
ENDCHAR
STARTCHAR Obreve
ENCODING 334
SWIDTH 777 0
DWIDTH 26 0
BBX 23 31 2 0
BITMAP
030180
038380
01FF00
00FE00
007C00
000000
00FE00
07FFC0
0FFFE0
1F83F0
3E00F8
3C0078
78003C
78003C
F8003E
F0001E
F0001E
F0001E
F0001E
F0001E
F0001E
F0001E
F8003E
78003C
78003C
3C0078
3E00F8
1F83F0
0FFFE0
07FFC0
00FE00
ENDCHAR
STARTCHAR obreve
ENCODING 335
SWIDTH 614 0
DWIDTH 21 0
BBX 17 24 2 0
BITMAP
180C00
1C1C00
0FF800
07F000
03E000
000000
07F000
1FFC00
3FFE00
7C1F00
780F00
780F00
F00780
F00780
F00780
F00780
F00780
F00780
780F00
780F00
7C1F00
3FFE00
1FFC00
07F000
ENDCHAR
STARTCHAR Ohungarumlaut
ENCODING 336
SWIDTH 777 0
DWIDTH 26 0
BBX 23 31 2 0
BITMAP
001DC0
001B80
003300
006600
00CC00
000000
00FE00
07FFC0
0FFFE0
1F83F0
3E00F8
3C0078
78003C
78003C
F8003E
F0001E
F0001E
F0001E
F0001E
F0001E
F0001E
F0001E
F8003E
78003C
78003C
3C0078
3E00F8
1F83F0
0FFFE0
07FFC0
00FE00
ENDCHAR
STARTCHAR ohungarumlaut
ENCODING 337
SWIDTH 614 0
DWIDTH 21 0
BBX 17 24 2 0
BITMAP
00EE00
00DC00
019800
033000
066000
000000
07F000
1FFC00
3FFE00
7C1F00
780F00
780F00
F00780
F00780
F00780
F00780
F00780
F00780
780F00
780F00
7C1F00
3FFE00
1FFC00
07F000
ENDCHAR
STARTCHAR OE
ENCODING 338
SWIDTH 1000 0
DWIDTH 34 0
BBX 31 25 2 0
BITMAP
01FEFFFC
07FFFFFC
0FFFFFFC
1F03F000
3E01F000
3C01F000
7800F000
7800F000
F000F000
F000F000
F000F000
F000FFF8
F000FFF8
F000FFF8
F000F000
F000F000
F000F000
7800F000
7800F000
3C01F000
3E01F000
1F03F000
0FFFFFFE
07FFFFFE
01FCFFFE
ENDCHAR
STARTCHAR oe
ENCODING 339
SWIDTH 930 0
DWIDTH 32 0
BBX 27 18 2 0
BITMAP
07E07E00
1FF8FF80
3FF9FF80
7C3FC3C0
781F81C0
781F01E0
F00F01E0
F00FFFE0
F00FFFE0
F00FFFE0
F00F0000
F00F0000
781F8000
781FC000
7C3FE060
3FFDFFE0
1FF8FFE0
07E03F80
ENDCHAR
STARTCHAR Racute
ENCODING 340
SWIDTH 633 0
DWIDTH 21 0
BBX 18 31 3 0
BITMAP
00F000
01E000
01C000
038000
070000
000000
FFE000
FFF800
FFFC00
F07E00
F03E00
F01E00
F01E00
F01E00
F01E00
F03C00
F03C00
F0F800
FFE000
FFC000
FFE000
F1F000
F0F000
F0F800
F07C00
F03E00
F03E00
F01F00
F00F80
F00F80
F007C0
ENDCHAR
STARTCHAR racute
ENCODING 341
SWIDTH 409 0
DWIDTH 14 0
BBX 11 24 3 0
BITMAP
03C0
0780
0700
0E00
1C00
0000
F0E0
F3E0
F7E0
FE00
FC00
F800
F000
F000
F000
F000
F000
F000
F000
F000
F000
F000
F000
F000
ENDCHAR
STARTCHAR Rcommaaccent
ENCODING 342
SWIDTH 633 0
DWIDTH 21 0
BBX 18 37 3 -12
BITMAP
FFE000
FFF800
FFFC00
F07E00
F03E00
F01E00
F01E00
F01E00
F01E00
F03C00
F03C00
F0F800
FFE000
FFC000
FFE000
F1F000
F0F000
F0F800
F07C00
F03E00
F03E00
F01F00
F00F80
F00F80
F007C0
000000
03E000
03E000
03E000
03E000
03E000
00E000
00E000
00E000
01C000
03C000
030000
ENDCHAR
STARTCHAR rcommaaccent
ENCODING 343
SWIDTH 409 0
DWIDTH 14 0
BBX 11 30 3 -12
BITMAP
F0E0
F3E0
F7E0
FE00
FC00
F800
F000
F000
F000
F000
F000
F000
F000
F000
F000
F000
F000
F000
0000
7C00
7C00
7C00
7C00
7C00
1C00
1C00
1C00
3800
7800
6000
ENDCHAR
STARTCHAR Rcaron
ENCODING 344
SWIDTH 633 0
DWIDTH 21 0
BBX 18 31 3 0
BITMAP
383800
1C7000
0EE000
07C000
07C000
000000
FFE000
FFF800
FFFC00
F07E00
F03E00
F01E00
F01E00
F01E00
F01E00
F03C00
F03C00
F0F800
FFE000
FFC000
FFE000
F1F000
F0F000
F0F800
F07C00
F03E00
F03E00
F01F00
F00F80
F00F80
F007C0
ENDCHAR
STARTCHAR rcaron
ENCODING 345
SWIDTH 409 0
DWIDTH 14 0
BBX 11 24 3 0
BITMAP
E0E0
71C0
3B80
1F00
1F00
0000
F0E0
F3E0
F7E0
FE00
FC00
F800
F000
F000
F000
F000
F000
F000
F000
F000
F000
F000
F000
F000
ENDCHAR
STARTCHAR Sacute
ENCODING 346
SWIDTH 539 0
DWIDTH 18 0
BBX 15 31 2 0
BITMAP
01E0
03C0
0380
0700
0E00
0000
0FF0
3FF8
7FF8
7C38
F008
F000
F000
F000
F800
7E00
3F80
1FC0
0FF0
03F8
00FC
007E
003E
001E
001E
001E
803E
F07C
FFF8
FFF0
3FC0
ENDCHAR
STARTCHAR sacute
ENCODING 347
SWIDTH 510 0
DWIDTH 17 0
BBX 12 24 3 0
BITMAP
03C0
0780
0700
0E00
1C00
0000
1FE0
7FE0
7FE0
F860
F000
F000
FC00
7F00
7FC0
1FE0
07F0
01F0
00F0
80F0
E1F0
FFE0
FFC0
3F80
ENDCHAR
STARTCHAR Scircumflex
ENCODING 348
SWIDTH 539 0
DWIDTH 18 0
BBX 15 31 2 0
BITMAP
0F80
0F80
1DC0
38E0
7070
0000
0FF0
3FF8
7FF8
7C38
F008
F000
F000
F000
F800
7E00
3F80
1FC0
0FF0
03F8
00FC
007E
003E
001E
001E
001E
803E
F07C
FFF8
FFF0
3FC0
ENDCHAR
STARTCHAR scircumflex
ENCODING 349
SWIDTH 510 0
DWIDTH 17 0
BBX 12 24 3 0
BITMAP
1F00
1F00
3B80
71C0
E0E0
0000
1FE0
7FE0
7FE0
F860
F000
F000
FC00
7F00
7FC0
1FE0
07F0
01F0
00F0
80F0
E1F0
FFE0
FFC0
3F80
ENDCHAR
STARTCHAR Scedilla
ENCODING 350
SWIDTH 539 0
DWIDTH 18 0
BBX 15 32 2 -7
BITMAP
0FF0
3FF8
7FF8
7C38
F008
F000
F000
F000
F800
7E00
3F80
1FC0
0FF0
03F8
00FC
007E
003E
001E
001E
001E
803E
F07C
FFF8
FFF0
3FC0
0300
0300
01C0
01C0
01C0
07C0
0780
ENDCHAR
STARTCHAR scedilla
ENCODING 351
SWIDTH 510 0
DWIDTH 17 0
BBX 12 25 3 -7
BITMAP
1FE0
7FE0
7FE0
F860
F000
F000
FC00
7F00
7FC0
1FE0
07F0
01F0
00F0
80F0
E1F0
FFE0
FFC0
3F80
0600
0600
0380
0380
0380
0F80
0F00
ENDCHAR
STARTCHAR Scaron
ENCODING 352
SWIDTH 539 0
DWIDTH 18 0
BBX 15 32 2 0
BITMAP
3838
1C70
0EE0
07C0
07C0
0000
0000
0FF0
3FF8
7FF8
7C38
F008
F000
F000
F000
F800
7E00
3F80
1FC0
0FF0
03F8
00FC
007E
003E
001E
001E
001E
803E
F07C
FFF8
FFF0
3FC0
ENDCHAR
STARTCHAR scaron
ENCODING 353
SWIDTH 510 0
DWIDTH 17 0
BBX 12 25 3 0
BITMAP
7070
38E0
1DC0
0F80
0F80
0000
0000
1FE0
7FE0
7FE0
F860
F000
F000
FC00
7F00
7FC0
1FE0
07F0
01F0
00F0
80F0
E1F0
FFE0
FFC0
3F80
ENDCHAR
STARTCHAR Tcommaaccent
ENCODING 354
SWIDTH 633 0
DWIDTH 21 0
BBX 22 32 0 -7
BITMAP
FFFFFC
FFFFFC
FFFFFC
007800
007800
007800
007800
007800
007800
007800
007800
007800
007800
007800
007800
007800
007800
007800
007800
007800
007800
007800
007800
007800
007800
003000
003000
001C00
001C00
001C00
007C00
007800
ENDCHAR
STARTCHAR tcommaaccent
ENCODING 355
SWIDTH 374 0
DWIDTH 13 0
BBX 11 30 1 -7
BITMAP
3C00
3C00
3C00
3C00
3C00
FFE0
FFE0
FFE0
3C00
3C00
3C00
3C00
3C00
3C00
3C00
3C00
3C00
3C00
3C00
3E00
1FE0
1FE0
07E0
0600
0600
0380
0380
0380
0F80
0F00
ENDCHAR
STARTCHAR Tcaron
ENCODING 356
SWIDTH 633 0
DWIDTH 21 0
BBX 22 31 0 0
BITMAP
038380
01C700
00EE00
007C00
007C00
000000
FFFFFC
FFFFFC
FFFFFC
007800
007800
007800
007800
007800
007800
007800
007800
007800
007800
007800
007800
007800
007800
007800
007800
007800
007800
007800
007800
007800
007800
ENDCHAR
STARTCHAR tcaron
ENCODING 357
SWIDTH 584 0
DWIDTH 20 0
BBX 17 26 1 0
BITMAP
000F80
000F80
000F80
3C0F80
3C0380
3C0380
3C0380
3C0300
FFE700
FFEC00
FFE000
3C0000
3C0000
3C0000
3C0000
3C0000
3C0000
3C0000
3C0000
3C0000
3C0000
3C0000
3E0000
1FE000
1FE000
07E000
ENDCHAR
STARTCHAR Tbar
ENCODING 358
SWIDTH 633 0
DWIDTH 21 0
BBX 22 25 0 0
BITMAP
FFFFFC
FFFFFC
FFFFFC
007800
007800
007800
007800
007800
007800
007800
007800
007800
007800
007800
007800
007800
007800
007800
007800
007800
007800
007800
007800
007800
007800
ENDCHAR
STARTCHAR tbar
ENCODING 359
SWIDTH 374 0
DWIDTH 13 0
BBX 11 23 1 0
BITMAP
3C00
3C00
3C00
3C00
3C00
FFE0
FFE0
FFE0
3C00
3C00
3C00
3C00
3F00
3F00
3F00
3C00
3C00
3C00
3C00
3E00
1FE0
1FE0
07E0
ENDCHAR
STARTCHAR Utilde
ENCODING 360
SWIDTH 693 0
DWIDTH 24 0
BBX 18 30 3 0
BITMAP
0F0C00
1FFC00
1FF800
187000
000000
F001C0
F001C0
F001C0
F001C0
F001C0
F001C0
F001C0
F001C0
F001C0
F001C0
F001C0
F001C0
F001C0
F001C0
F001C0
F001C0
F001C0
F001C0
F001C0
F803C0
780380
7E0780
3FFF00
1FFE00
07F800
ENDCHAR
STARTCHAR utilde
ENCODING 361
SWIDTH 620 0
DWIDTH 21 0
BBX 15 23 3 0
BITMAP
1E18
3FF8
3FF0
30E0
0000
F01E
F01E
F01E
F01E
F01E
F01E
F01E
F01E
F01E
F01E
F01E
F01E
F03E
F07E
F8FE
7FDE
7F9E
1E1E
ENDCHAR
STARTCHAR Umacron
ENCODING 362
SWIDTH 693 0
DWIDTH 24 0
BBX 18 29 3 0
BITMAP
0FF800
0FF800
0FF800
000000
F001C0
F001C0
F001C0
F001C0
F001C0
F001C0
F001C0
F001C0
F001C0
F001C0
F001C0
F001C0
F001C0
F001C0
F001C0
F001C0
F001C0
F001C0
F001C0
F803C0
780380
7E0780
3FFF00
1FFE00
07F800
ENDCHAR
STARTCHAR umacron
ENCODING 363
SWIDTH 620 0
DWIDTH 21 0
BBX 15 22 3 0
BITMAP
1FF0
1FF0
1FF0
0000
F01E
F01E
F01E
F01E
F01E
F01E
F01E
F01E
F01E
F01E
F01E
F01E
F03E
F07E
F8FE
7FDE
7F9E
1E1E
ENDCHAR
STARTCHAR Ubreve
ENCODING 364
SWIDTH 693 0
DWIDTH 24 0
BBX 18 31 3 0
BITMAP
180C00
1C1C00
0FF800
07F000
03E000
000000
F001C0
F001C0
F001C0
F001C0
F001C0
F001C0
F001C0
F001C0
F001C0
F001C0
F001C0
F001C0
F001C0
F001C0
F001C0
F001C0
F001C0
F001C0
F001C0
F803C0
780380
7E0780
3FFF00
1FFE00
07F800
ENDCHAR
STARTCHAR ubreve
ENCODING 365
SWIDTH 620 0
DWIDTH 21 0
BBX 15 24 3 0
BITMAP
3018
3838
1FF0
0FE0
07C0
0000
F01E
F01E
F01E
F01E
F01E
F01E
F01E
F01E
F01E
F01E
F01E
F01E
F03E
F07E
F8FE
7FDE
7F9E
1E1E
ENDCHAR
STARTCHAR Uring
ENCODING 366
SWIDTH 693 0
DWIDTH 24 0
BBX 18 31 3 0
BITMAP
01C000
036000
022000
036000
01C000
000000
F001C0
F001C0
F001C0
F001C0
F001C0
F001C0
F001C0
F001C0
F001C0
F001C0
F001C0
F001C0
F001C0
F001C0
F001C0
F001C0
F001C0
F001C0
F001C0
F803C0
780380
7E0780
3FFF00
1FFE00
07F800
ENDCHAR
STARTCHAR uring
ENCODING 367
SWIDTH 620 0
DWIDTH 21 0
BBX 15 24 3 0
BITMAP
0380
06C0
0440
06C0
0380
0000
F01E
F01E
F01E
F01E
F01E
F01E
F01E
F01E
F01E
F01E
F01E
F01E
F03E
F07E
F8FE
7FDE
7F9E
1E1E
ENDCHAR
STARTCHAR Uhungarumlaut
ENCODING 368
SWIDTH 693 0
DWIDTH 24 0
BBX 18 31 3 0
BITMAP
01DC00
01B800
033000
066000
0CC000
000000
F001C0
F001C0
F001C0
F001C0
F001C0
F001C0
F001C0
F001C0
F001C0
F001C0
F001C0
F001C0
F001C0
F001C0
F001C0
F001C0
F001C0
F001C0
F001C0
F803C0
780380
7E0780
3FFF00
1FFE00
07F800
ENDCHAR
STARTCHAR uhungarumlaut
ENCODING 369
SWIDTH 620 0
DWIDTH 21 0
BBX 15 24 3 0
BITMAP
01DC
01B8
0330
0660
0CC0
0000
F01E
F01E
F01E
F01E
F01E
F01E
F01E
F01E
F01E
F01E
F01E
F01E
F03E
F07E
F8FE
7FDE
7F9E
1E1E
ENDCHAR
STARTCHAR Uogonek
ENCODING 370
SWIDTH 693 0
DWIDTH 24 0
BBX 18 31 3 -6
BITMAP
F001C0
F001C0
F001C0
F001C0
F001C0
F001C0
F001C0
F001C0
F001C0
F001C0
F001C0
F001C0
F001C0
F001C0
F001C0
F001C0
F001C0
F001C0
F001C0
F803C0
780380
7E0780
3FFF00
1FFE00
07F800
000000
00E000
038000
038000
03D000
01F000
ENDCHAR
STARTCHAR uogonek
ENCODING 371
SWIDTH 620 0
DWIDTH 21 0
BBX 15 24 3 -6
BITMAP
F01E
F01E
F01E
F01E
F01E
F01E
F01E
F01E
F01E
F01E
F01E
F01E
F03E
F07E
F8FE
7FDE
7F9E
1E1E
0000
01C0
0700
0700
07A0
03E0
ENDCHAR
STARTCHAR Wcircumflex
ENCODING 372
SWIDTH 855 0
DWIDTH 29 0
BBX 29 31 0 0
BITMAP
000F8000
000F8000
001DC000
0038E000
00707000
00000000
F0078038
F00F8038
F00F8070
780F8070
780FC070
781FC0F0
781FC0E0
3C1FC0E0
3C1FE0E0
3C1DE1E0
3C39E1C0
1E39E1C0
1E39F1C0
1E38F380
1E70F380
0F70F380
0F70FB80
0F707F00
0FF07F00
07E07F00
07E07E00
07E07E00
07E03E00
03C03E00
03C03C00
ENDCHAR
STARTCHAR wcircumflex
ENCODING 373
SWIDTH 840 0
DWIDTH 26 0
BBX 26 24 0 0
BITMAP
001F0000
001F0000
003B8000
0071C000
00E0E000
00000000
E01E01C0
F01E03C0
703F0380
703F0380
703F0780
383F0700
38738700
38738F00
3C738E00
1CE38E00
1CE1DE00
1CE1DC00
0FE1DC00
0FC1FC00
0FC0F800
0FC0F800
0780F800
0780F000
ENDCHAR
STARTCHAR Ycircumflex
ENCODING 374
SWIDTH 623 0
DWIDTH 21 0
BBX 21 31 0 0
BITMAP
00F800
00F800
01DC00
038E00
070700
000000
F00078
780070
7C00F0
3C01E0
3E01C0
1E03C0
1F0380
0F8700
078F00
07CE00
03DE00
03FC00
01F800
01F800
00F000
00F000
00F000
00F000
00F000
00F000
00F000
00F000
00F000
00F000
00F000
ENDCHAR
STARTCHAR ycircumflex
ENCODING 375
SWIDTH 568 0
DWIDTH 18 0
BBX 17 31 0 -7
BITMAP
03E000
03E000
077000
0E3800
1C1C00
000000
F00380
F80700
780700
780700
7C0E00
3C0E00
3C1E00
3E1C00
1E1C00
1E3800
1F3800
0F7800
0F7000
07F000
07E000
07E000
03E000
03C000
03C000
03C000
038000
078000
070000
070000
0F0000
ENDCHAR
STARTCHAR Ydieresis
ENCODING 376
SWIDTH 623 0
DWIDTH 21 0
BBX 21 30 0 0
BITMAP
038E00
038E00
038E00
000000
000000
F00078
780070
7C00F0
3C01E0
3E01C0
1E03C0
1F0380
0F8700
078F00
07CE00
03DE00
03FC00
01F800
01F800
00F000
00F000
00F000
00F000
00F000
00F000
00F000
00F000
00F000
00F000
00F000
ENDCHAR
STARTCHAR Zacute
ENCODING 377
SWIDTH 605 0
DWIDTH 21 0
BBX 17 31 2 0
BITMAP
003C00
007800
007000
00E000
01C000
000000
7FFF80
7FFF80
7FFF80
000F80
001F00
001F00
003E00
007C00
007C00
00F800
01F000
01F000
03E000
07C000
07C000
0F8000
1F0000
1F0000
3E0000
7C0000
7C0000
F80000
FFFF80
FFFF80
FFFF80
ENDCHAR
STARTCHAR zacute
ENCODING 378
SWIDTH 573 0
DWIDTH 19 0
BBX 15 24 2 0
BITMAP
0078
00F0
00E0
01C0
0380
0000
7FFE
7FFE
7FFE
003C
0078
00F0
00F0
01E0
03C0
0780
0F00
1E00
3C00
3C00
7800
FFFE
FFFE
FFFE
ENDCHAR
STARTCHAR Zdotaccent
ENCODING 379
SWIDTH 605 0
DWIDTH 21 0
BBX 17 30 2 0
BITMAP
00E000
00E000
00E000
00E000
000000
7FFF80
7FFF80
7FFF80
000F80
001F00
001F00
003E00
007C00
007C00
00F800
01F000
01F000
03E000
07C000
07C000
0F8000
1F0000
1F0000
3E0000
7C0000
7C0000
F80000
FFFF80
FFFF80
FFFF80
ENDCHAR
STARTCHAR zdotaccent
ENCODING 380
SWIDTH 573 0
DWIDTH 19 0
BBX 15 23 2 0
BITMAP
01C0
01C0
01C0
01C0
0000
7FFE
7FFE
7FFE
003C
0078
00F0
00F0
01E0
03C0
0780
0F00
1E00
3C00
3C00
7800
FFFE
FFFE
FFFE
ENDCHAR
STARTCHAR Zcaron
ENCODING 381
SWIDTH 605 0
DWIDTH 21 0
BBX 17 32 2 0
BITMAP
1C1C00
0E3800
077000
03E000
03E000
000000
000000
7FFF80
7FFF80
7FFF80
000F80
001F00
001F00
003E00
007C00
007C00
00F800
01F000
01F000
03E000
07C000
07C000
0F8000
1F0000
1F0000
3E0000
7C0000
7C0000
F80000
FFFF80
FFFF80
FFFF80
ENDCHAR
STARTCHAR zcaron
ENCODING 382
SWIDTH 573 0
DWIDTH 19 0
BBX 15 25 2 0
BITMAP
3838
1C70
0EE0
07C0
07C0
0000
0000
7FFE
7FFE
7FFE
003C
0078
00F0
00F0
01E0
03C0
0780
0F00
1E00
3C00
3C00
7800
FFFE
FFFE
FFFE
ENDCHAR
STARTCHAR uni0186
ENCODING 390
SWIDTH 692 0
DWIDTH 24 0
BBX 20 25 2 0
BITMAP
0FF000
7FFC00
FFFF00
F01F80
8007C0
0003C0
0003E0
0001E0
0001F0
0000F0
0000F0
0000F0
0000F0
0000F0
0000F0
0000F0
0001F0
0001E0
0003E0
0003C0
8007C0
F01F80
FFFF00
FFFC00
0FF000
ENDCHAR
STARTCHAR uni0189
ENCODING 393
SWIDTH 749 0
DWIDTH 25 0
BBX 25 25 0 0
BITMAP
0FFF8000
0FFFE000
0FFFF800
0F00FC00
0F003E00
0F001F00
0F000F00
0F000F00
0F000F80
0F000780
0F000780
FFFC0780
FFFC0780
FFFC0780
0F000780
0F000780
0F000700
0F000F00
0F000F00
0F001E00
0F003E00
0F00FC00
0FFFF800
0FFFE000
0FFF8000
ENDCHAR
STARTCHAR uni018E
ENCODING 398
SWIDTH 542 0
DWIDTH 18 0
BBX 15 25 3 0
BITMAP
FFFE
FFFE
FFFE
001E
001E
001E
001E
001E
001E
001E
001E
3FFE
3FFE
3FFE
001E
001E
001E
001E
001E
001E
001E
001E
7FFE
7FFE
7FFE
ENDCHAR
STARTCHAR florin
ENCODING 402
SWIDTH 633 0
DWIDTH 21 0
BBX 16 31 4 -6
BITMAP
007F
00FF
01FF
03C1
0780
0780
0780
0F80
0F00
0F00
0F00
7FC0
7FC0
7FC0
0F00
0F00
1E00
1E00
1E00
1E00
3C00
3C00
3C00
3C00
3C00
7800
7800
7800
7800
F000
F000
ENDCHAR
STARTCHAR uni0197
ENCODING 407
SWIDTH 288 0
DWIDTH 10 0
BBX 4 25 3 0
BITMAP
F0
F0
F0
F0
F0
F0
F0
F0
F0
F0
F0
F0
F0
F0
F0
F0
F0
F0
F0
F0
F0
F0
F0
F0
F0
ENDCHAR
STARTCHAR uni019A
ENCODING 410
SWIDTH 289 0
DWIDTH 10 0
BBX 4 26 3 0
BITMAP
F0
F0
F0
F0
F0
F0
F0
F0
F0
F0
F0
F0
F0
F0
F0
F0
F0
F0
F0
F0
F0
F0
F0
F0
F0
F0
ENDCHAR
STARTCHAR uni019D
ENCODING 413
SWIDTH 741 0
DWIDTH 25 0
BBX 25 32 -3 -7
BITMAP
03C00380
03E00380
03E00380
03F00380
03F80380
03F80380
03FC0380
03BE0380
039E0380
039F0380
038F8380
03878380
0387C380
0383E380
0383E380
0381F380
0380FB80
03C0FB80
03C07F80
03C03F80
03C03F80
03C01F80
03C00F80
03C00F80
03C00780
03C00000
03C00000
03C00000
87800000
FF800000
FF000000
7E000000
ENDCHAR
STARTCHAR uni019F
ENCODING 415
SWIDTH 777 0
DWIDTH 26 0
BBX 23 25 2 0
BITMAP
00FE00
07FFC0
0FFFE0
1F83F0
3E00F8
3C0078
78003C
78003C
F8003E
F0001E
F0001E
FFFFFE
FFFFFE
FFFFFE
F0001E
F0001E
F8003E
78003C
78003C
3C0078
3E00F8
1F83F0
0FFFE0
07FFC0
00FE00
ENDCHAR
STARTCHAR Ohorn
ENCODING 416
SWIDTH 777 0
DWIDTH 26 0
BBX 26 25 2 0
BITMAP
00FE07C0
07FFC7C0
0FFFE7C0
1F83F7C0
3E00F9C0
3C0079C0
78003DC0
78003D80
F8003F80
F0001E00
F0001E00
F0001E00
F0001E00
F0001E00
F0001E00
F0001E00
F8003E00
78003C00
78003C00
3C007800
3E00F800
1F83F000
0FFFE000
07FFC000
00FE0000
ENDCHAR
STARTCHAR ohorn
ENCODING 417
SWIDTH 614 0
DWIDTH 21 0
BBX 20 18 2 0
BITMAP
07F1F0
1FFDF0
3FFFF0
7C1FF0
780F70
780F70
F007F0
F007E0
F007E0
F00780
F00780
F00780
780F00
780F00
7C1F00
3FFE00
1FFC00
07F000
ENDCHAR
STARTCHAR uni01A7
ENCODING 423
SWIDTH 539 0
DWIDTH 18 0
BBX 15 25 2 0
BITMAP
1FE0
3FF8
3FFC
387C
201E
001E
001E
001E
003E
00FC
03F8
07F0
1FE0
3F80
7E00
FC00
F800
F000
F000
F000
F802
7C1E
3FFE
1FFE
07F8
ENDCHAR
STARTCHAR uni01A8
ENCODING 424
SWIDTH 510 0
DWIDTH 17 0
BBX 12 18 3 0
BITMAP
7F80
7FE0
7FE0
61F0
00F0
00F0
03F0
0FE0
3FE0
7F80
FE00
F800
F000
F010
F870
7FF0
3FF0
1FC0
ENDCHAR
STARTCHAR uni01AE
ENCODING 430
SWIDTH 633 0
DWIDTH 21 0
BBX 22 32 0 -7
BITMAP
FFFFFC
FFFFFC
FFFFFC
007800
007800
007800
007800
007800
007800
007800
007800
007800
007800
007800
007800
007800
007800
007800
007800
007800
007800
007800
007800
007800
007800
007800
007800
007800
003C20
003FE0
001FE0
000FC0
ENDCHAR
STARTCHAR Uhorn
ENCODING 431
SWIDTH 693 0
DWIDTH 24 0
BBX 21 25 3 0
BITMAP
F001F8
F001F8
F001F8
F001F8
F001F8
F001F8
F001F8
F001F0
F001F0
F001C0
F001C0
F001C0
F001C0
F001C0
F001C0
F001C0
F001C0
F001C0
F001C0
F803C0
780380
7E0780
3FFF00
1FFE00
07F800
ENDCHAR
STARTCHAR uhorn
ENCODING 432
SWIDTH 620 0
DWIDTH 21 0
BBX 19 18 3 0
BITMAP
F01FE0
F01FE0
F01FE0
F01FE0
F01EE0
F01EE0
F01EE0
F01EC0
F01FC0
F01F00
F01E00
F01E00
F03E00
F07E00
F8FE00
7FDE00
7F9E00
1E1E00
ENDCHAR
STARTCHAR uni01B5
ENCODING 437
SWIDTH 605 0
DWIDTH 21 0
BBX 17 25 2 0
BITMAP
7FFF80
7FFF80
7FFF80
000F80
001F00
001F00
003E00
007C00
007C00
00F800
01F000
01F000
03E000
07E000
07C000
0F8000
1F0000
1F0000
3E0000
7C0000
7C0000
F80000
FFFF80
FFFF80
FFFF80
ENDCHAR
STARTCHAR uni01B6
ENCODING 438
SWIDTH 573 0
DWIDTH 19 0
BBX 15 18 2 0
BITMAP
7FFE
7FFE
7FFE
003C
0078
00F0
00F0
03E0
03C0
07C0
0F00
1E00
3C00
3C00
7800
FFFE
FFFE
FFFE
ENDCHAR
STARTCHAR uni01BB
ENCODING 443
SWIDTH 633 0
DWIDTH 21 0
BBX 15 25 3 0
BITMAP
0FC0
7FF0
7FF8
707C
403E
001E
001E
001E
001E
001E
003C
FFFE
FFFE
FFFE
03E0
0780
0F00
1E00
3C00
7800
7800
F000
FFFE
FFFE
FFFE
ENDCHAR
STARTCHAR uni01BC
ENCODING 444
SWIDTH 633 0
DWIDTH 21 0
BBX 13 25 4 0
BITMAP
FFF8
FFF8
FFF8
E000
E000
E000
E000
E000
E000
FE00
FFC0
FFE0
03F0
00F0
00F8
0078
0078
0078
0078
00F8
00F0
83F0
FFE0
FFC0
FF00
ENDCHAR
STARTCHAR uni01C0
ENCODING 448
SWIDTH 265 0
DWIDTH 9 0
BBX 3 32 3 -6
BITMAP
E0
E0
E0
E0
E0
E0
E0
E0
E0
E0
E0
E0
E0
E0
E0
E0
E0
E0
E0
E0
E0
E0
E0
E0
E0
E0
E0
E0
E0
E0
E0
E0
ENDCHAR
STARTCHAR uni01C2
ENCODING 450
SWIDTH 633 0
DWIDTH 21 0
BBX 20 32 1 -6
BITMAP
007000
007000
007000
007000
007000
007000
007000
007000
007000
007000
007000
007000
FFFFF0
FFFFF0
FFFFF0
007000
007000
007000
FFFFF0
FFFFF0
FFFFF0
007000
007000
007000
007000
007000
007000
007000
007000
007000
007000
007000
ENDCHAR
STARTCHAR uni01C3
ENCODING 451
SWIDTH 205 0
DWIDTH 11 0
BBX 3 25 4 0
BITMAP
E0
E0
E0
E0
E0
E0
E0
E0
E0
E0
E0
E0
E0
E0
E0
E0
E0
E0
00
00
00
E0
E0
E0
E0
ENDCHAR
STARTCHAR uni01CD
ENCODING 461
SWIDTH 690 0
DWIDTH 23 0
BBX 23 31 0 0
BITMAP
038380
01C700
00EE00
007C00
007C00
000000
003C00
007C00
007E00
00FE00
00FE00
00FF00
01EF00
01CF80
03C780
038780
0387C0
0783C0
0703C0
0F01E0
0E01E0
0FFFF0
1FFFF0
1FFFF0
1C00F8
380078
38007C
78003C
70003C
70003E
E0001E
ENDCHAR
STARTCHAR uni01CE
ENCODING 462
SWIDTH 552 0
DWIDTH 19 0
BBX 17 24 1 0
BITMAP
1C1C00
0E3800
077000
03E000
03E000
000000
07F000
3FF800
3FFC00
307C00
203C00
003C00
003C00
07FC00
1FFC00
7FFC00
7C3C00
F83C00
F03C00
F03C00
F87C00
7FFF80
7FCF80
1F0780
ENDCHAR
STARTCHAR uni01CF
ENCODING 463
SWIDTH 288 0
DWIDTH 10 0
BBX 11 31 0 0
BITMAP
E0E0
71C0
3B80
1F00
1F00
0000
1E00
1E00
1E00
1E00
1E00
1E00
1E00
1E00
1E00
1E00
1E00
1E00
1E00
1E00
1E00
1E00
1E00
1E00
1E00
1E00
1E00
1E00
1E00
1E00
1E00
ENDCHAR
STARTCHAR uni01D0
ENCODING 464
SWIDTH 289 0
DWIDTH 10 0
BBX 11 24 0 0
BITMAP
E0E0
71C0
3B80
1F00
1F00
0000
1E00
1E00
1E00
1E00
1E00
1E00
1E00
1E00
1E00
1E00
1E00
1E00
1E00
1E00
1E00
1E00
1E00
1E00
ENDCHAR
STARTCHAR uni01D1
ENCODING 465
SWIDTH 777 0
DWIDTH 26 0
BBX 23 31 2 0
BITMAP
038380
01C700
00EE00
007C00
007C00
000000
00FE00
07FFC0
0FFFE0
1F83F0
3E00F8
3C0078
78003C
78003C
F8003E
F0001E
F0001E
F0001E
F0001E
F0001E
F0001E
F0001E
F8003E
78003C
78003C
3C0078
3E00F8
1F83F0
0FFFE0
07FFC0
00FE00
ENDCHAR
STARTCHAR uni01D2
ENCODING 466
SWIDTH 614 0
DWIDTH 21 0
BBX 17 24 2 0
BITMAP
1C1C00
0E3800
077000
03E000
03E000
000000
07F000
1FFC00
3FFE00
7C1F00
780F00
780F00
F00780
F00780
F00780
F00780
F00780
F00780
780F00
780F00
7C1F00
3FFE00
1FFC00
07F000
ENDCHAR
STARTCHAR uni01D3
ENCODING 467
SWIDTH 693 0
DWIDTH 24 0
BBX 18 31 3 0
BITMAP
1C1C00
0E3800
077000
03E000
03E000
000000
F001C0
F001C0
F001C0
F001C0
F001C0
F001C0
F001C0
F001C0
F001C0
F001C0
F001C0
F001C0
F001C0
F001C0
F001C0
F001C0
F001C0
F001C0
F001C0
F803C0
780380
7E0780
3FFF00
1FFE00
07F800
ENDCHAR
STARTCHAR uni01D4
ENCODING 468
SWIDTH 620 0
DWIDTH 21 0
BBX 15 24 3 0
BITMAP
3838
1C70
0EE0
07C0
07C0
0000
F01E
F01E
F01E
F01E
F01E
F01E
F01E
F01E
F01E
F01E
F01E
F01E
F03E
F07E
F8FE
7FDE
7F9E
1E1E
ENDCHAR
STARTCHAR uni01D5
ENCODING 469
SWIDTH 693 0
DWIDTH 24 0
BBX 18 34 3 0
BITMAP
0FF800
0FF800
0FF800
000000
0E3800
0E3800
0E3800
000000
000000
F001C0
F001C0
F001C0
F001C0
F001C0
F001C0
F001C0
F001C0
F001C0
F001C0
F001C0
F001C0
F001C0
F001C0
F001C0
F001C0
F001C0
F001C0
F001C0
F803C0
780380
7E0780
3FFF00
1FFE00
07F800
ENDCHAR
STARTCHAR uni01D6
ENCODING 470
SWIDTH 620 0
DWIDTH 21 0
BBX 15 27 3 0
BITMAP
1FF0
1FF0
1FF0
0000
1C70
1C70
1C70
0000
0000
F01E
F01E
F01E
F01E
F01E
F01E
F01E
F01E
F01E
F01E
F01E
F01E
F03E
F07E
F8FE
7FDE
7F9E
1E1E
ENDCHAR
STARTCHAR uni01D7
ENCODING 471
SWIDTH 693 0
DWIDTH 24 0
BBX 18 36 3 0
BITMAP
007800
00F000
00E000
01C000
038000
000000
0E3800
0E3800
0E3800
000000
000000
F001C0
F001C0
F001C0
F001C0
F001C0
F001C0
F001C0
F001C0
F001C0
F001C0
F001C0
F001C0
F001C0
F001C0
F001C0
F001C0
F001C0
F001C0
F001C0
F803C0
780380
7E0780
3FFF00
1FFE00
07F800
ENDCHAR
STARTCHAR uni01D8
ENCODING 472
SWIDTH 620 0
DWIDTH 21 0
BBX 15 29 3 0
BITMAP
00F0
01E0
01C0
0380
0700
0000
1C70
1C70
1C70
0000
0000
F01E
F01E
F01E
F01E
F01E
F01E
F01E
F01E
F01E
F01E
F01E
F01E
F03E
F07E
F8FE
7FDE
7F9E
1E1E
ENDCHAR
STARTCHAR uni01D9
ENCODING 473
SWIDTH 693 0
DWIDTH 24 0
BBX 18 36 3 0
BITMAP
1C1C00
0E3800
077000
03E000
03E000
000000
0E3800
0E3800
0E3800
000000
000000
F001C0
F001C0
F001C0
F001C0
F001C0
F001C0
F001C0
F001C0
F001C0
F001C0
F001C0
F001C0
F001C0
F001C0
F001C0
F001C0
F001C0
F001C0
F001C0
F803C0
780380
7E0780
3FFF00
1FFE00
07F800
ENDCHAR
STARTCHAR uni01DA
ENCODING 474
SWIDTH 620 0
DWIDTH 21 0
BBX 15 29 3 0
BITMAP
3838
1C70
0EE0
07C0
07C0
0000
1C70
1C70
1C70
0000
0000
F01E
F01E
F01E
F01E
F01E
F01E
F01E
F01E
F01E
F01E
F01E
F01E
F03E
F07E
F8FE
7FDE
7F9E
1E1E
ENDCHAR
STARTCHAR uni01DB
ENCODING 475
SWIDTH 693 0
DWIDTH 24 0
BBX 18 36 3 0
BITMAP
0F0000
078000
038000
01C000
00E000
000000
0E3800
0E3800
0E3800
000000
000000
F001C0
F001C0
F001C0
F001C0
F001C0
F001C0
F001C0
F001C0
F001C0
F001C0
F001C0
F001C0
F001C0
F001C0
F001C0
F001C0
F001C0
F001C0
F001C0
F803C0
780380
7E0780
3FFF00
1FFE00
07F800
ENDCHAR
STARTCHAR uni01DC
ENCODING 476
SWIDTH 620 0
DWIDTH 21 0
BBX 15 29 3 0
BITMAP
1E00
0F00
0700
0380
01C0
0000
1C70
1C70
1C70
0000
0000
F01E
F01E
F01E
F01E
F01E
F01E
F01E
F01E
F01E
F01E
F01E
F01E
F03E
F07E
F8FE
7FDE
7F9E
1E1E
ENDCHAR
STARTCHAR uni01DD
ENCODING 477
SWIDTH 557 0
DWIDTH 19 0
BBX 15 18 2 0
BITMAP
3F80
FFE0
FFF0
C0F8
007C
003C
001E
001E
FFFE
FFFE
FFFE
F01E
F01C
703C
7878
3FF8
1FF0
0FC0
ENDCHAR
STARTCHAR uni01DE
ENCODING 478
SWIDTH 690 0
DWIDTH 23 0
BBX 23 34 0 0
BITMAP
01FF00
01FF00
01FF00
000000
01C700
01C700
01C700
000000
000000
003C00
007C00
007E00
00FE00
00FE00
00FF00
01EF00
01CF80
03C780
038780
0387C0
0783C0
0703C0
0F01E0
0E01E0
0FFFF0
1FFFF0
1FFFF0
1C00F8
380078
38007C
78003C
70003C
70003E
E0001E
ENDCHAR
STARTCHAR uni01DF
ENCODING 479
SWIDTH 552 0
DWIDTH 19 0
BBX 17 27 1 0
BITMAP
0FF800
0FF800
0FF800
000000
0E3800
0E3800
0E3800
000000
000000
07F000
3FF800
3FFC00
307C00
203C00
003C00
003C00
07FC00
1FFC00
7FFC00
7C3C00
F83C00
F03C00
F03C00
F87C00
7FFF80
7FCF80
1F0780
ENDCHAR
STARTCHAR uni01E0
ENCODING 480
SWIDTH 690 0
DWIDTH 23 0
BBX 23 34 0 0
BITMAP
01FF00
01FF00
01FF00
000000
003800
003800
003800
003800
000000
003C00
007C00
007E00
00FE00
00FE00
00FF00
01EF00
01CF80
03C780
038780
0387C0
0783C0
0703C0
0F01E0
0E01E0
0FFFF0
1FFFF0
1FFFF0
1C00F8
380078
38007C
78003C
70003C
70003E
E0001E
ENDCHAR
STARTCHAR uni01E1
ENCODING 481
SWIDTH 552 0
DWIDTH 19 0
BBX 17 27 1 0
BITMAP
0FF800
0FF800
0FF800
000000
01C000
01C000
01C000
01C000
000000
07F000
3FF800
3FFC00
307C00
203C00
003C00
003C00
07FC00
1FFC00
7FFC00
7C3C00
F83C00
F03C00
F03C00
F87C00
7FFF80
7FCF80
1F0780
ENDCHAR
STARTCHAR uni01E2
ENCODING 482
SWIDTH 907 0
DWIDTH 31 0
BBX 30 29 0 0
BITMAP
0007FC00
0007FC00
0007FC00
00000000
0003FFF8
0007FFF8
0007FFF8
000FE000
001FE000
001FE000
003DE000
0039E000
0079E000
0071E000
00E1FFF0
01E1FFF0
01C1FFF0
03C1E000
0381E000
07FFE000
07FFE000
0FFFE000
1E01E000
1C01E000
3C01E000
3801E000
7801FFFC
7001FFFC
F001FFFC
ENDCHAR
STARTCHAR uni01E3
ENCODING 483
SWIDTH 853 0
DWIDTH 29 0
BBX 24 22 2 0
BITMAP
00FF80
00FF80
00FF80
000000
0FC1F0
3FF7FC
3FFFFC
307F1E
203E0E
003C0F
003C0F
07FFFF
1FFFFF
7FFFFF
7C3C00
F83C00
F03E00
F03F00
F86F81
7FCFFF
7F87FF
1E01FC
ENDCHAR
STARTCHAR uni01E4
ENCODING 484
SWIDTH 723 0
DWIDTH 25 0
BBX 20 25 2 0
BITMAP
00FF80
03FFF0
0FFFF0
1F80F0
3E0010
3C0000
7C0000
780000
F80000
F00000
F00000
F00000
F00000
F000F0
F000F0
F000F0
F800F0
7801F0
7801F0
3C01F0
3E00F0
1F80F0
0FFFF0
07FFF0
00FF80
ENDCHAR
STARTCHAR uni01E5
ENCODING 485
SWIDTH 623 0
DWIDTH 21 0
BBX 16 25 2 -7
BITMAP
078F
1FEF
3FFF
7C3F
781F
780F
F00F
F00F
F00F
F00F
F00F
F00F
F00F
781F
7C3F
3FEF
1FCF
FFFF
FFFF
FFFF
001E
203E
3FFC
7FF8
1FE0
ENDCHAR
STARTCHAR Gcaron
ENCODING 486
SWIDTH 723 0
DWIDTH 25 0
BBX 20 31 2 0
BITMAP
070700
038E00
01DC00
00F800
00F800
000000
00FF80
03FFF0
0FFFF0
1F80F0
3E0010
3C0000
7C0000
780000
F80000
F00000
F00000
F00000
F00000
F000F0
F000F0
F000F0
F800F0
7800F0
7800F0
3C00F0
3E00F0
1F80F0
0FFFF0
07FFF0
00FF80
ENDCHAR
STARTCHAR gcaron
ENCODING 487
SWIDTH 623 0
DWIDTH 21 0
BBX 16 31 2 -7
BITMAP
1C1C
0E38
0770
03E0
03E0
0000
078F
1FEF
3FFF
7C3F
781F
780F
F00F
F00F
F00F
F00F
F00F
F00F
F00F
781F
7C3F
3FEF
1FCF
0F8F
000F
000E
001E
203E
3FFC
7FF8
1FE0
ENDCHAR
STARTCHAR uni01E8
ENCODING 488
SWIDTH 653 0
DWIDTH 22 0
BBX 19 31 3 0
BITMAP
383800
1C7000
0EE000
07C000
07C000
000000
F00700
F00E00
F01E00
F03C00
F03800
F07800
F0F000
F1E000
F1C000
F3C000
F78000
FF0000
FF8000
FF8000
F7C000
F3E000
F1F000
F0F800
F0F800
F07C00
F03E00
F01F00
F01F80
F00F80
F007E0
ENDCHAR
STARTCHAR uni01E9
ENCODING 489
SWIDTH 585 0
DWIDTH 20 0
BBX 19 32 2 0
BITMAP
E0E000
71C000
3B8000
1F0000
1F0000
000000
780000
780000
780000
780000
780000
780000
780000
780000
780F00
781E00
783C00
783800
787800
78F000
79E000
7BC000
7FC000
7FE000
7BF000
79F800
78F800
787C00
783E00
781F00
780F80
7807E0
ENDCHAR
STARTCHAR uni01EA
ENCODING 490
SWIDTH 777 0
DWIDTH 26 0
BBX 23 31 2 -6
BITMAP
00FE00
07FFC0
0FFFE0
1F83F0
3E00F8
3C0078
78003C
78003C
F8003E
F0001E
F0001E
F0001E
F0001E
F0001E
F0001E
F0001E
F8003E
78003C
78003C
3C0078
3E00F8
1F83F0
0FFFE0
07FFC0
00FE00
000000
001C00
007000
007000
007A00
003E00
ENDCHAR
STARTCHAR uni01EB
ENCODING 491
SWIDTH 614 0
DWIDTH 21 0
BBX 17 24 2 -6
BITMAP
07F000
1FFC00
3FFE00
7C1F00
780F00
780F00
F00780
F00780
F00780
F00780
F00780
F00780
780F00
780F00
7C1F00
3FFE00
1FFC00
07F000
000000
00E000
038000
038000
03D000
01F000
ENDCHAR
STARTCHAR uni01EC
ENCODING 492
SWIDTH 777 0
DWIDTH 26 0
BBX 23 35 2 -6
BITMAP
01FF00
01FF00
01FF00
000000
00FE00
07FFC0
0FFFE0
1F83F0
3E00F8
3C0078
78003C
78003C
F8003E
F0001E
F0001E
F0001E
F0001E
F0001E
F0001E
F0001E
F8003E
78003C
78003C
3C0078
3E00F8
1F83F0
0FFFE0
07FFC0
00FE00
000000
001C00
007000
007000
007A00
003E00
ENDCHAR
STARTCHAR uni01ED
ENCODING 493
SWIDTH 614 0
DWIDTH 21 0
BBX 17 28 2 -6
BITMAP
0FF800
0FF800
0FF800
000000
07F000
1FFC00
3FFE00
7C1F00
780F00
780F00
F00780
F00780
F00780
F00780
F00780
F00780
780F00
780F00
7C1F00
3FFE00
1FFC00
07F000
000000
00E000
038000
038000
03D000
01F000
ENDCHAR
STARTCHAR uni01F0
ENCODING 496
SWIDTH 304 0
DWIDTH 10 0
BBX 13 31 -2 -7
BITMAP
3838
1C70
0EE0
07C0
07C0
0000
03C0
03C0
03C0
03C0
03C0
03C0
03C0
03C0
03C0
03C0
03C0
03C0
03C0
03C0
03C0
03C0
03C0
03C0
03C0
03C0
03C0
8780
FF80
FF00
7E00
ENDCHAR
STARTCHAR uni01F4
ENCODING 500
SWIDTH 723 0
DWIDTH 25 0
BBX 20 31 2 0
BITMAP
001E00
003C00
003800
007000
00E000
000000
00FF80
03FFF0
0FFFF0
1F80F0
3E0010
3C0000
7C0000
780000
F80000
F00000
F00000
F00000
F00000
F000F0
F000F0
F000F0
F800F0
7800F0
7800F0
3C00F0
3E00F0
1F80F0
0FFFF0
07FFF0
00FF80
ENDCHAR
STARTCHAR uni01F5
ENCODING 501
SWIDTH 623 0
DWIDTH 21 0
BBX 16 31 2 -7
BITMAP
0078
00F0
00E0
01C0
0380
0000
078F
1FEF
3FFF
7C3F
781F
780F
F00F
F00F
F00F
F00F
F00F
F00F
F00F
781F
7C3F
3FEF
1FCF
0F8F
000F
000E
001E
203E
3FFC
7FF8
1FE0
ENDCHAR
STARTCHAR uni01F8
ENCODING 504
SWIDTH 741 0
DWIDTH 25 0
BBX 19 31 3 0
BITMAP
0F0000
078000
038000
01C000
00E000
000000
F000E0
F800E0
F800E0
FC00E0
FE00E0
FE00E0
FF00E0
EF80E0
E780E0
E7C0E0
E3E0E0
E1E0E0
E1F0E0
E0F8E0
E0F8E0
E07CE0
E03EE0
E03EE0
E01FE0
E00FE0
E00FE0
E007E0
E003E0
E003E0
E001E0
ENDCHAR
STARTCHAR uni01F9
ENCODING 505
SWIDTH 620 0
DWIDTH 21 0
BBX 15 24 3 0
BITMAP
1E00
0F00
0700
0380
01C0
0000
F0F0
F3FC
F7FC
FE3E
FC1E
F81E
F01E
F01E
F01E
F01E
F01E
F01E
F01E
F01E
F01E
F01E
F01E
F01E
ENDCHAR
STARTCHAR Aringacute
ENCODING 506
SWIDTH 690 0
DWIDTH 23 0
BBX 23 38 0 0
BITMAP
000F00
001E00
001C00
003800
007000
000000
003800
006C00
004400
006C00
003800
000000
000000
003C00
007C00
007E00
00FE00
00FE00
00FF00
01EF00
01CF80
03C780
038780
0387C0
0783C0
0703C0
0F01E0
0E01E0
0FFFF0
1FFFF0
1FFFF0
1C00F8
380078
38007C
78003C
70003C
70003E
E0001E
ENDCHAR
STARTCHAR aringacute
ENCODING 507
SWIDTH 552 0
DWIDTH 19 0
BBX 17 31 1 0
BITMAP
007800
00F000
00E000
01C000
038000
000000
01C000
036000
022000
036000
01C000
000000
000000
07F000
3FF800
3FFC00
307C00
203C00
003C00
003C00
07FC00
1FFC00
7FFC00
7C3C00
F83C00
F03C00
F03C00
F87C00
7FFF80
7FCF80
1F0780
ENDCHAR
STARTCHAR AEacute
ENCODING 508
SWIDTH 907 0
DWIDTH 31 0
BBX 30 31 0 0
BITMAP
00003C00
00007800
00007000
0000E000
0001C000
00000000
0003FFF8
0007FFF8
0007FFF8
000FE000
001FE000
001FE000
003DE000
0039E000
0079E000
0071E000
00E1FFF0
01E1FFF0
01C1FFF0
03C1E000
0381E000
07FFE000
07FFE000
0FFFE000
1E01E000
1C01E000
3C01E000
3801E000
7801FFFC
7001FFFC
F001FFFC
ENDCHAR
STARTCHAR aeacute
ENCODING 509
SWIDTH 853 0
DWIDTH 29 0
BBX 24 24 2 0
BITMAP
000780
000F00
000E00
001C00
003800
000000
0FC1F0
3FF7FC
3FFFFC
307F1E
203E0E
003C0F
003C0F
07FFFF
1FFFFF
7FFFFF
7C3C00
F83C00
F03E00
F03F00
F86F81
7FCFFF
7F87FF
1E01FC
ENDCHAR
STARTCHAR Oslashacute
ENCODING 510
SWIDTH 777 0
DWIDTH 26 0
BBX 23 31 2 0
BITMAP
000780
000F00
000E00
001C00
003800
000000
00FE1E
07FFFC
0FFFF8
1F83F8
3E00F8
3C01F8
7803FC
7803BC
F807BE
F00F1E
F01E1E
F03C1E
F0381E
F0781E
F0F01E
F1E01E
FBC03E
7B803C
7F803C
3F0078
3E00F8
3F83F0
3FFFE0
7FFFC0
F0FE00
ENDCHAR
STARTCHAR oslashacute
ENCODING 511
SWIDTH 614 0
DWIDTH 21 0
BBX 17 24 2 0
BITMAP
003C00
007800
007000
00E000
01C000
000000
07F780
1FFF00
3FFE00
7C1F00
783F00
787F00
F07780
F0F780
F1E780
F3C780
F78780
F70780
7F0F00
7E0F00
7C1F00
3FFE00
7FFC00
F7F000
ENDCHAR
STARTCHAR uni0200
ENCODING 512
SWIDTH 690 0
DWIDTH 23 0
BBX 23 31 0 0
BITMAP
03B800
01D800
00CC00
006600
003300
000000
003C00
007C00
007E00
00FE00
00FE00
00FF00
01EF00
01CF80
03C780
038780
0387C0
0783C0
0703C0
0F01E0
0E01E0
0FFFF0
1FFFF0
1FFFF0
1C00F8
380078
38007C
78003C
70003C
70003E
E0001E
ENDCHAR
STARTCHAR uni0201
ENCODING 513
SWIDTH 552 0
DWIDTH 19 0
BBX 17 24 1 0
BITMAP
3B8000
1D8000
0CC000
066000
033000
000000
07F000
3FF800
3FFC00
307C00
203C00
003C00
003C00
07FC00
1FFC00
7FFC00
7C3C00
F83C00
F03C00
F03C00
F87C00
7FFF80
7FCF80
1F0780
ENDCHAR
STARTCHAR uni0202
ENCODING 514
SWIDTH 690 0
DWIDTH 23 0
BBX 23 31 0 0
BITMAP
007C00
00FE00
01FF00
038380
030180
000000
003C00
007C00
007E00
00FE00
00FE00
00FF00
01EF00
01CF80
03C780
038780
0387C0
0783C0
0703C0
0F01E0
0E01E0
0FFFF0
1FFFF0
1FFFF0
1C00F8
380078
38007C
78003C
70003C
70003E
E0001E
ENDCHAR
STARTCHAR uni0203
ENCODING 515
SWIDTH 552 0
DWIDTH 19 0
BBX 17 24 1 0
BITMAP
03E000
07F000
0FF800
1C1C00
180C00
000000
07F000
3FF800
3FFC00
307C00
203C00
003C00
003C00
07FC00
1FFC00
7FFC00
7C3C00
F83C00
F03C00
F03C00
F87C00
7FFF80
7FCF80
1F0780
ENDCHAR
STARTCHAR uni0204
ENCODING 516
SWIDTH 542 0
DWIDTH 18 0
BBX 15 31 3 0
BITMAP
EE00
7600
3300
1980
0CC0
0000
FFFC
FFFC
FFFC
F000
F000
F000
F000
F000
F000
F000
F000
FFF8
FFF8
FFF8
F000
F000
F000
F000
F000
F000
F000
F000
FFFE
FFFE
FFFE
ENDCHAR
STARTCHAR uni0205
ENCODING 517
SWIDTH 557 0
DWIDTH 19 0
BBX 15 24 2 0
BITMAP
3B80
1D80
0CC0
0660
0330
0000
07E0
1FF0
3FF8
3C3C
781C
701E
F01E
FFFE
FFFE
FFFE
F000
F000
7800
7C00
3E06
1FFE
0FFE
03F8
ENDCHAR
STARTCHAR uni0206
ENCODING 518
SWIDTH 542 0
DWIDTH 18 0
BBX 15 31 3 0
BITMAP
0F80
1FC0
3FE0
7070
6030
0000
FFFC
FFFC
FFFC
F000
F000
F000
F000
F000
F000
F000
F000
FFF8
FFF8
FFF8
F000
F000
F000
F000
F000
F000
F000
F000
FFFE
FFFE
FFFE
ENDCHAR
STARTCHAR uni0207
ENCODING 519
SWIDTH 557 0
DWIDTH 19 0
BBX 15 24 2 0
BITMAP
07C0
0FE0
1FF0
3838
3018
0000
07E0
1FF0
3FF8
3C3C
781C
701E
F01E
FFFE
FFFE
FFFE
F000
F000
7800
7C00
3E06
1FFE
0FFE
03F8
ENDCHAR
STARTCHAR uni0208
ENCODING 520
SWIDTH 288 0
DWIDTH 10 0
BBX 10 31 -1 0
BITMAP
EE00
7600
3300
1980
0CC0
0000
0F00
0F00
0F00
0F00
0F00
0F00
0F00
0F00
0F00
0F00
0F00
0F00
0F00
0F00
0F00
0F00
0F00
0F00
0F00
0F00
0F00
0F00
0F00
0F00
0F00
ENDCHAR
STARTCHAR uni0209
ENCODING 521
SWIDTH 289 0
DWIDTH 10 0
BBX 10 24 -1 0
BITMAP
EE00
7600
3300
1980
0CC0
0000
0F00
0F00
0F00
0F00
0F00
0F00
0F00
0F00
0F00
0F00
0F00
0F00
0F00
0F00
0F00
0F00
0F00
0F00
ENDCHAR
STARTCHAR uni020A
ENCODING 522
SWIDTH 288 0
DWIDTH 10 0
BBX 11 31 0 0
BITMAP
1F00
3F80
7FC0
E0E0
C060
0000
1E00
1E00
1E00
1E00
1E00
1E00
1E00
1E00
1E00
1E00
1E00
1E00
1E00
1E00
1E00
1E00
1E00
1E00
1E00
1E00
1E00
1E00
1E00
1E00
1E00
ENDCHAR
STARTCHAR uni020B
ENCODING 523
SWIDTH 289 0
DWIDTH 10 0
BBX 11 24 0 0
BITMAP
1F00
3F80
7FC0
E0E0
C060
0000
1E00
1E00
1E00
1E00
1E00
1E00
1E00
1E00
1E00
1E00
1E00
1E00
1E00
1E00
1E00
1E00
1E00
1E00
ENDCHAR
STARTCHAR uni020C
ENCODING 524
SWIDTH 777 0
DWIDTH 26 0
BBX 23 31 2 0
BITMAP
03B800
01D800
00CC00
006600
003300
000000
00FE00
07FFC0
0FFFE0
1F83F0
3E00F8
3C0078
78003C
78003C
F8003E
F0001E
F0001E
F0001E
F0001E
F0001E
F0001E
F0001E
F8003E
78003C
78003C
3C0078
3E00F8
1F83F0
0FFFE0
07FFC0
00FE00
ENDCHAR
STARTCHAR uni020D
ENCODING 525
SWIDTH 614 0
DWIDTH 21 0
BBX 17 24 2 0
BITMAP
1DC000
0EC000
066000
033000
019800
000000
07F000
1FFC00
3FFE00
7C1F00
780F00
780F00
F00780
F00780
F00780
F00780
F00780
F00780
780F00
780F00
7C1F00
3FFE00
1FFC00
07F000
ENDCHAR
STARTCHAR uni020E
ENCODING 526
SWIDTH 777 0
DWIDTH 26 0
BBX 23 31 2 0
BITMAP
007C00
00FE00
01FF00
038380
030180
000000
00FE00
07FFC0
0FFFE0
1F83F0
3E00F8
3C0078
78003C
78003C
F8003E
F0001E
F0001E
F0001E
F0001E
F0001E
F0001E
F0001E
F8003E
78003C
78003C
3C0078
3E00F8
1F83F0
0FFFE0
07FFC0
00FE00
ENDCHAR
STARTCHAR uni020F
ENCODING 527
SWIDTH 614 0
DWIDTH 21 0
BBX 17 24 2 0
BITMAP
03E000
07F000
0FF800
1C1C00
180C00
000000
07F000
1FFC00
3FFE00
7C1F00
780F00
780F00
F00780
F00780
F00780
F00780
F00780
F00780
780F00
780F00
7C1F00
3FFE00
1FFC00
07F000
ENDCHAR
STARTCHAR uni0210
ENCODING 528
SWIDTH 633 0
DWIDTH 21 0
BBX 18 31 3 0
BITMAP
3B8000
1D8000
0CC000
066000
033000
000000
FFE000
FFF800
FFFC00
F07E00
F03E00
F01E00
F01E00
F01E00
F01E00
F03C00
F03C00
F0F800
FFE000
FFC000
FFE000
F1F000
F0F000
F0F800
F07C00
F03E00
F03E00
F01F00
F00F80
F00F80
F007C0
ENDCHAR
STARTCHAR uni0211
ENCODING 529
SWIDTH 409 0
DWIDTH 14 0
BBX 12 24 2 0
BITMAP
EE00
7600
3300
1980
0CC0
0000
7870
79F0
7BF0
7F00
7E00
7C00
7800
7800
7800
7800
7800
7800
7800
7800
7800
7800
7800
7800
ENDCHAR
STARTCHAR uni0212
ENCODING 530
SWIDTH 633 0
DWIDTH 21 0
BBX 18 31 3 0
BITMAP
07C000
0FE000
1FF000
383800
301800
000000
FFE000
FFF800
FFFC00
F07E00
F03E00
F01E00
F01E00
F01E00
F01E00
F03C00
F03C00
F0F800
FFE000
FFC000
FFE000
F1F000
F0F000
F0F800
F07C00
F03E00
F03E00
F01F00
F00F80
F00F80
F007C0
ENDCHAR
STARTCHAR uni0213
ENCODING 531
SWIDTH 409 0
DWIDTH 14 0
BBX 11 24 3 0
BITMAP
1F00
3F80
7FC0
E0E0
C060
0000
F0E0
F3E0
F7E0
FE00
FC00
F800
F000
F000
F000
F000
F000
F000
F000
F000
F000
F000
F000
F000
ENDCHAR
STARTCHAR uni0214
ENCODING 532
SWIDTH 693 0
DWIDTH 24 0
BBX 18 31 3 0
BITMAP
3B8000
1D8000
0CC000
066000
033000
000000
F001C0
F001C0
F001C0
F001C0
F001C0
F001C0
F001C0
F001C0
F001C0
F001C0
F001C0
F001C0
F001C0
F001C0
F001C0
F001C0
F001C0
F001C0
F001C0
F803C0
780380
7E0780
3FFF00
1FFE00
07F800
ENDCHAR
STARTCHAR uni0215
ENCODING 533
SWIDTH 620 0
DWIDTH 21 0
BBX 15 24 3 0
BITMAP
3B80
1D80
0CC0
0660
0330
0000
F01E
F01E
F01E
F01E
F01E
F01E
F01E
F01E
F01E
F01E
F01E
F01E
F03E
F07E
F8FE
7FDE
7F9E
1E1E
ENDCHAR
STARTCHAR uni0216
ENCODING 534
SWIDTH 693 0
DWIDTH 24 0
BBX 18 31 3 0
BITMAP
03E000
07F000
0FF800
1C1C00
180C00
000000
F001C0
F001C0
F001C0
F001C0
F001C0
F001C0
F001C0
F001C0
F001C0
F001C0
F001C0
F001C0
F001C0
F001C0
F001C0
F001C0
F001C0
F001C0
F001C0
F803C0
780380
7E0780
3FFF00
1FFE00
07F800
ENDCHAR
STARTCHAR uni0217
ENCODING 535
SWIDTH 620 0
DWIDTH 21 0
BBX 15 24 3 0
BITMAP
07C0
0FE0
1FF0
3838
3018
0000
F01E
F01E
F01E
F01E
F01E
F01E
F01E
F01E
F01E
F01E
F01E
F01E
F03E
F07E
F8FE
7FDE
7F9E
1E1E
ENDCHAR
STARTCHAR Scommaaccent
ENCODING 536
SWIDTH 539 0
DWIDTH 18 0
BBX 15 37 2 -12
BITMAP
0FF0
3FF8
7FF8
7C38
F008
F000
F000
F000
F800
7E00
3F80
1FC0
0FF0
03F8
00FC
007E
003E
001E
001E
001E
803E
F07C
FFF8
FFF0
3FC0
0000
07C0
07C0
07C0
07C0
07C0
01C0
01C0
01C0
0380
0780
0600
ENDCHAR
STARTCHAR scommaaccent
ENCODING 537
SWIDTH 510 0
DWIDTH 17 0
BBX 12 30 3 -12
BITMAP
1FE0
7FE0
7FE0
F860
F000
F000
FC00
7F00
7FC0
1FE0
07F0
01F0
00F0
80F0
E1F0
FFE0
FFC0
3F80
0000
1F00
1F00
1F00
1F00
1F00
0700
0700
0700
0E00
1E00
1800
ENDCHAR
STARTCHAR Tcommaaccent
ENCODING 538
SWIDTH 633 0
DWIDTH 21 0
BBX 22 37 0 -12
BITMAP
FFFFFC
FFFFFC
FFFFFC
007800
007800
007800
007800
007800
007800
007800
007800
007800
007800
007800
007800
007800
007800
007800
007800
007800
007800
007800
007800
007800
007800
000000
007C00
007C00
007C00
007C00
007C00
001C00
001C00
001C00
003800
007800
006000
ENDCHAR
STARTCHAR tcommaaccent
ENCODING 539
SWIDTH 374 0
DWIDTH 13 0
BBX 11 35 1 -12
BITMAP
3C00
3C00
3C00
3C00
3C00
FFE0
FFE0
FFE0
3C00
3C00
3C00
3C00
3C00
3C00
3C00
3C00
3C00
3C00
3C00
3E00
1FE0
1FE0
07E0
0000
1F00
1F00
1F00
1F00
1F00
0700
0700
0700
0E00
1E00
1800
ENDCHAR
STARTCHAR uni021E
ENCODING 542
SWIDTH 735 0
DWIDTH 25 0
BBX 19 31 3 0
BITMAP
0E0E00
071C00
03B800
01F000
01F000
000000
F001E0
F001E0
F001E0
F001E0
F001E0
F001E0
F001E0
F001E0
F001E0
F001E0
FFFFE0
FFFFE0
FFFFE0
F001E0
F001E0
F001E0
F001E0
F001E0
F001E0
F001E0
F001E0
F001E0
F001E0
F001E0
F001E0
ENDCHAR
STARTCHAR uni021F
ENCODING 543
SWIDTH 620 0
DWIDTH 21 0
BBX 17 32 1 0
BITMAP
E0E000
71C000
3B8000
1F0000
1F0000
000000
3C0000
3C0000
3C0000
3C0000
3C0000
3C0000
3C0000
3C0000
3C3C00
3CFF00
3DFF00
3F8F80
3F0780
3E0780
3C0780
3C0780
3C0780
3C0780
3C0780
3C0780
3C0780
3C0780
3C0780
3C0780
3C0780
3C0780
ENDCHAR
STARTCHAR uni0226
ENCODING 550
SWIDTH 690 0
DWIDTH 23 0
BBX 23 30 0 0
BITMAP
003800
003800
003800
003800
000000
003C00
007C00
007E00
00FE00
00FE00
00FF00
01EF00
01CF80
03C780
038780
0387C0
0783C0
0703C0
0F01E0
0E01E0
0FFFF0
1FFFF0
1FFFF0
1C00F8
380078
38007C
78003C
70003C
70003E
E0001E
ENDCHAR
STARTCHAR uni0227
ENCODING 551
SWIDTH 552 0
DWIDTH 19 0
BBX 17 23 1 0
BITMAP
01C000
01C000
01C000
01C000
000000
07F000
3FF800
3FFC00
307C00
203C00
003C00
003C00
07FC00
1FFC00
7FFC00
7C3C00
F83C00
F03C00
F03C00
F87C00
7FFF80
7FCF80
1F0780
ENDCHAR
STARTCHAR uni0228
ENCODING 552
SWIDTH 542 0
DWIDTH 18 0
BBX 15 32 3 -7
BITMAP
FFFC
FFFC
FFFC
F000
F000
F000
F000
F000
F000
F000
F000
FFF8
FFF8
FFF8
F000
F000
F000
F000
F000
F000
F000
F000
FFFE
FFFE
FFFE
0600
0600
0380
0380
0380
0F80
0F00
ENDCHAR
STARTCHAR uni0229
ENCODING 553
SWIDTH 557 0
DWIDTH 19 0
BBX 15 25 2 -7
BITMAP
07E0
1FF0
3FF8
3C3C
781C
701E
F01E
FFFE
FFFE
FFFE
F000
F000
7800
7C00
3E06
1FFE
0FFE
03F8
0180
0180
00E0
00E0
00E0
03E0
03C0
ENDCHAR
STARTCHAR uni022A
ENCODING 554
SWIDTH 777 0
DWIDTH 26 0
BBX 23 34 2 0
BITMAP
01FF00
01FF00
01FF00
000000
01C700
01C700
01C700
000000
000000
00FE00
07FFC0
0FFFE0
1F83F0
3E00F8
3C0078
78003C
78003C
F8003E
F0001E
F0001E
F0001E
F0001E
F0001E
F0001E
F0001E
F8003E
78003C
78003C
3C0078
3E00F8
1F83F0
0FFFE0
07FFC0
00FE00
ENDCHAR
STARTCHAR uni022B
ENCODING 555
SWIDTH 614 0
DWIDTH 21 0
BBX 17 27 2 0
BITMAP
0FF800
0FF800
0FF800
000000
0E3800
0E3800
0E3800
000000
000000
07F000
1FFC00
3FFE00
7C1F00
780F00
780F00
F00780
F00780
F00780
F00780
F00780
F00780
780F00
780F00
7C1F00
3FFE00
1FFC00
07F000
ENDCHAR
STARTCHAR uni022C
ENCODING 556
SWIDTH 777 0
DWIDTH 26 0
BBX 23 35 2 0
BITMAP
01FF00
01FF00
01FF00
000000
01E180
03FF80
03FF00
030E00
000000
000000
00FE00
07FFC0
0FFFE0
1F83F0
3E00F8
3C0078
78003C
78003C
F8003E
F0001E
F0001E
F0001E
F0001E
F0001E
F0001E
F0001E
F8003E
78003C
78003C
3C0078
3E00F8
1F83F0
0FFFE0
07FFC0
00FE00
ENDCHAR
STARTCHAR uni022D
ENCODING 557
SWIDTH 614 0
DWIDTH 21 0
BBX 17 28 2 0
BITMAP
0FF800
0FF800
0FF800
000000
0F0C00
1FFC00
1FF800
187000
000000
000000
07F000
1FFC00
3FFE00
7C1F00
780F00
780F00
F00780
F00780
F00780
F00780
F00780
F00780
780F00
780F00
7C1F00
3FFE00
1FFC00
07F000
ENDCHAR
STARTCHAR uni022E
ENCODING 558
SWIDTH 777 0
DWIDTH 26 0
BBX 23 30 2 0
BITMAP
003800
003800
003800
003800
000000
00FE00
07FFC0
0FFFE0
1F83F0
3E00F8
3C0078
78003C
78003C
F8003E
F0001E
F0001E
F0001E
F0001E
F0001E
F0001E
F0001E
F8003E
78003C
78003C
3C0078
3E00F8
1F83F0
0FFFE0
07FFC0
00FE00
ENDCHAR
STARTCHAR uni022F
ENCODING 559
SWIDTH 614 0
DWIDTH 21 0
BBX 17 23 2 0
BITMAP
01C000
01C000
01C000
01C000
000000
07F000
1FFC00
3FFE00
7C1F00
780F00
780F00
F00780
F00780
F00780
F00780
F00780
F00780
780F00
780F00
7C1F00
3FFE00
1FFC00
07F000
ENDCHAR
STARTCHAR uni0230
ENCODING 560
SWIDTH 777 0
DWIDTH 26 0
BBX 23 34 2 0
BITMAP
01FF00
01FF00
01FF00
000000
003800
003800
003800
003800
000000
00FE00
07FFC0
0FFFE0
1F83F0
3E00F8
3C0078
78003C
78003C
F8003E
F0001E
F0001E
F0001E
F0001E
F0001E
F0001E
F0001E
F8003E
78003C
78003C
3C0078
3E00F8
1F83F0
0FFFE0
07FFC0
00FE00
ENDCHAR
STARTCHAR uni0231
ENCODING 561
SWIDTH 614 0
DWIDTH 21 0
BBX 17 27 2 0
BITMAP
0FF800
0FF800
0FF800
000000
01C000
01C000
01C000
01C000
000000
07F000
1FFC00
3FFE00
7C1F00
780F00
780F00
F00780
F00780
F00780
F00780
F00780
F00780
780F00
780F00
7C1F00
3FFE00
1FFC00
07F000
ENDCHAR
STARTCHAR uni0232
ENCODING 562
SWIDTH 623 0
DWIDTH 21 0
BBX 21 29 0 0
BITMAP
03FE00
03FE00
03FE00
000000
F00078
780070
7C00F0
3C01E0
3E01C0
1E03C0
1F0380
0F8700
078F00
07CE00
03DE00
03FC00
01F800
01F800
00F000
00F000
00F000
00F000
00F000
00F000
00F000
00F000
00F000
00F000
00F000
ENDCHAR
STARTCHAR uni0233
ENCODING 563
SWIDTH 568 0
DWIDTH 18 0
BBX 17 29 0 -7
BITMAP
0FF800
0FF800
0FF800
000000
F00380
F80700
780700
780700
7C0E00
3C0E00
3C1E00
3E1C00
1E1C00
1E3800
1F3800
0F7800
0F7000
07F000
07E000
07E000
03E000
03C000
03C000
03C000
038000
078000
070000
070000
0F0000
ENDCHAR
STARTCHAR uni0250
ENCODING 592
SWIDTH 552 0
DWIDTH 19 0
BBX 17 18 1 0
BITMAP
F07C00
F9FF00
FFFF00
1F0F80
1E0780
1E0780
1E0F80
1E1F00
1FFF00
1FFC00
1FF000
1E0000
1E0000
1E0200
1F0600
1FFE00
0FFE00
07F000
ENDCHAR
STARTCHAR uni0254
ENCODING 596
SWIDTH 518 0
DWIDTH 17 0
BBX 14 18 2 0
BITMAP
FF80
FFE0
FFF0
C1F8
00F8
0078
003C
003C
003C
003C
003C
003C
0078
00F8
81F0
FFF0
FFC0
3F80
ENDCHAR
STARTCHAR uni0258
ENCODING 600
SWIDTH 557 0
DWIDTH 19 0
BBX 15 18 2 0
BITMAP
0FC0
1FF0
3FF8
7878
703C
F01C
F01E
FFFE
FFFE
FFFE
001E
001E
003C
007C
C0F8
FFF0
FFE0
3F80
ENDCHAR
STARTCHAR uni0259
ENCODING 601
SWIDTH 557 0
DWIDTH 19 0
BBX 15 18 2 0
BITMAP
3F80
FFE0
FFF0
C0F8
007C
003C
001E
001E
FFFE
FFFE
FFFE
F01E
F01C
703C
7878
3FF8
1FF0
0FC0
ENDCHAR
STARTCHAR uni025F
ENCODING 607
SWIDTH 367 0
DWIDTH 12 0
BBX 13 27 1 -9
BITMAP
03C0
03C0
03C0
03C0
03C0
03C0
03C0
03C0
03C0
03C0
03C0
03C0
03C0
03C0
03C0
3FF8
3FF8
3FF8
03C0
03C0
03C0
03C0
03C0
8780
FF80
FF00
7E00
ENDCHAR
STARTCHAR uni0265
ENCODING 613
SWIDTH 620 0
DWIDTH 21 0
BBX 15 26 3 -8
BITMAP
F01E
F01E
F01E
F01E
F01E
F01E
F01E
F01E
F01E
F01E
F01E
F01E
F03E
F07E
F8FE
7FDE
7F9E
1E1E
001E
001E
001E
001E
001E
001E
001E
001E
ENDCHAR
STARTCHAR uni0275
ENCODING 629
SWIDTH 614 0
DWIDTH 21 0
BBX 17 18 2 0
BITMAP
07F000
1FFC00
3FFE00
7C1F00
780F00
780F00
F00780
FFFF80
FFFF80
FFFF80
F00780
F00780
780F00
780F00
7C1F00
3FFE00
1FFC00
07F000
ENDCHAR
STARTCHAR uni0279
ENCODING 633
SWIDTH 409 0
DWIDTH 14 0
BBX 11 18 3 0
BITMAP
01E0
01E0
01E0
01E0
01E0
01E0
01E0
01E0
01E0
01E0
01E0
01E0
03E0
07E0
0FE0
FDE0
F9E0
E1E0
ENDCHAR
STARTCHAR uni0287
ENCODING 647
SWIDTH 374 0
DWIDTH 13 0
BBX 11 23 1 0
BITMAP
FC00
FF00
FF00
0F80
0780
0780
0780
0780
0780
0780
0780
0780
0780
0780
0780
FFE0
FFE0
FFE0
0780
0780
0780
0780
0780
ENDCHAR
STARTCHAR uni0288
ENCODING 648
SWIDTH 374 0
DWIDTH 13 0
BBX 12 30 1 -7
BITMAP
3C00
3C00
3C00
3C00
3C00
FFE0
FFE0
FFE0
3C00
3C00
3C00
3C00
3C00
3C00
3C00
3C00
3C00
3C00
3C00
3C00
3C00
3C00
3C00
3C00
3C00
3C00
1E10
1FF0
0FF0
07E0
ENDCHAR
STARTCHAR uni0289
ENCODING 649
SWIDTH 620 0
DWIDTH 21 0
BBX 15 18 3 0
BITMAP
F01E
F01E
F01E
F01E
F01E
F01E
F01E
FFFE
FFFE
FFFE
F01E
F01E
F03E
F07E
F8FE
7FDE
7F9E
1E1E
ENDCHAR
STARTCHAR uni028C
ENCODING 652
SWIDTH 572 0
DWIDTH 18 0
BBX 17 18 0 0
BITMAP
01E000
03E000
03F000
03F000
07F800
077800
0F7800
0E7C00
0E3C00
1C3C00
1C3E00
3C1E00
381E00
380F00
780F00
700F80
F00780
E00780
ENDCHAR
STARTCHAR uni028D
ENCODING 653
SWIDTH 840 0
DWIDTH 26 0
BBX 26 18 0 0
BITMAP
03C07800
07C07800
07C0FC00
07C0FC00
0FE0FC00
0EE1FC00
0EE1CE00
1EE1CE00
1C71CE00
1C738F00
3C738700
38738700
383F0700
783F0380
703F0380
703F0380
F01E03C0
E01E01C0
ENDCHAR
STARTCHAR uni028E
ENCODING 654
SWIDTH 568 0
DWIDTH 18 0
BBX 17 25 0 0
BITMAP
007800
007000
007000
00F000
00E000
01E000
01E000
01E000
03E000
03F000
03F000
07F000
077800
0F7800
0E7C00
0E3C00
1C3C00
1C3E00
3C1E00
381E00
381F00
700F00
700F00
700F80
E00780
ENDCHAR
STARTCHAR uni029E
ENCODING 670
SWIDTH 585 0
DWIDTH 20 0
BBX 18 26 3 -8
BITMAP
FC03C0
3E03C0
1F03C0
0F83C0
07C3C0
03E3C0
03F3C0
01FBC0
00FFC0
007FC0
007BC0
00F3C0
01E3C0
03C3C0
0383C0
0783C0
0F03C0
1E03C0
0003C0
0003C0
0003C0
0003C0
0003C0
0003C0
0003C0
0003C0
ENDCHAR
STARTCHAR uni02BB
ENCODING 699
SWIDTH 229 0
DWIDTH 8 0
BBX 5 10 1 16
BITMAP
38
70
E0
E0
E0
F8
F8
F8
F8
F8
ENDCHAR
STARTCHAR afii57929
ENCODING 700
SWIDTH 229 0
DWIDTH 8 0
BBX 5 10 1 16
BITMAP
F8
F8
F8
F8
38
38
38
30
70
C0
ENDCHAR
STARTCHAR afii64937
ENCODING 701
SWIDTH 229 0
DWIDTH 8 0
BBX 5 10 1 16
BITMAP
F8
F8
F8
F8
E0
E0
E0
60
70
18
ENDCHAR
STARTCHAR circumflex
ENCODING 710
SWIDTH 614 0
DWIDTH 21 0
BBX 11 5 5 21
BITMAP
1F00
1F00
3B80
71C0
E0E0
ENDCHAR
STARTCHAR caron
ENCODING 711
SWIDTH 614 0
DWIDTH 21 0
BBX 11 5 5 21
BITMAP
E0E0
71C0
3B80
1F00
1F00
ENDCHAR
STARTCHAR uni02C8
ENCODING 712
SWIDTH 229 0
DWIDTH 8 0
BBX 5 9 1 17
BITMAP
F8
F8
F8
F8
F8
70
70
70
70
ENDCHAR
STARTCHAR macron
ENCODING 713
SWIDTH 614 0
DWIDTH 21 0
BBX 9 3 6 22
BITMAP
FF80
FF80
FF80
ENDCHAR
STARTCHAR uni02CA
ENCODING 714
SWIDTH 614 0
DWIDTH 21 0
BBX 7 5 8 21
BITMAP
1E
3C
38
70
E0
ENDCHAR
STARTCHAR uni02CB
ENCODING 715
SWIDTH 614 0
DWIDTH 21 0
BBX 7 5 6 21
BITMAP
F0
78
38
1C
0E
ENDCHAR
STARTCHAR uni02CD
ENCODING 717
SWIDTH 614 0
DWIDTH 21 0
BBX 9 3 6 -4
BITMAP
FF80
FF80
FF80
ENDCHAR
STARTCHAR uni02CE
ENCODING 718
SWIDTH 614 0
DWIDTH 21 0
BBX 7 5 6 -6
BITMAP
F0
78
38
1C
0E
ENDCHAR
STARTCHAR uni02CF
ENCODING 719
SWIDTH 614 0
DWIDTH 21 0
BBX 7 5 8 -6
BITMAP
1E
3C
38
70
E0
ENDCHAR
STARTCHAR breve
ENCODING 728
SWIDTH 614 0
DWIDTH 21 0
BBX 11 5 5 21
BITMAP
C060
E0E0
7FC0
3F80
1F00
ENDCHAR
STARTCHAR dotaccent
ENCODING 729
SWIDTH 614 0
DWIDTH 21 0
BBX 3 4 9 21
BITMAP
E0
E0
E0
E0
ENDCHAR
STARTCHAR ring
ENCODING 730
SWIDTH 614 0
DWIDTH 21 0
BBX 5 5 8 22
BITMAP
70
D8
88
D8
70
ENDCHAR
STARTCHAR ogonek
ENCODING 731
SWIDTH 614 0
DWIDTH 21 0
BBX 6 5 8 -6
BITMAP
38
E0
E0
F4
7C
ENDCHAR
STARTCHAR tilde
ENCODING 732
SWIDTH 614 0
DWIDTH 21 0
BBX 11 4 5 21
BITMAP
7860
FFE0
FFC0
C380
ENDCHAR
STARTCHAR hungarumlaut
ENCODING 733
SWIDTH 614 0
DWIDTH 21 0
BBX 10 5 7 21
BITMAP
1DC0
1B80
3300
6600
CC00
ENDCHAR
STARTCHAR uni02EE
ENCODING 750
SWIDTH 373 0
DWIDTH 13 0
BBX 9 9 2 17
BITMAP
F780
F780
F780
F780
7380
7380
6300
E700
C600
ENDCHAR
STARTCHAR uni037E
ENCODING 894
SWIDTH 316 0
DWIDTH 11 0
BBX 4 24 3 -6
BITMAP
F0
F0
F0
F0
00
00
00
00
00
00
00
00
00
00
00
F0
F0
F0
70
70
70
60
E0
80
ENDCHAR
STARTCHAR tonos
ENCODING 900
SWIDTH 614 0
DWIDTH 21 0
BBX 7 5 8 21
BITMAP
1E
3C
38
70
E0
ENDCHAR
STARTCHAR dieresistonos
ENCODING 901
SWIDTH 614 0
DWIDTH 21 0
BBX 9 9 6 22
BITMAP
0780
0F00
0E00
1C00
3800
0000
E380
E380
E380
ENDCHAR
STARTCHAR anoteleia
ENCODING 903
SWIDTH 316 0
DWIDTH 21 0
BBX 4 4 9 8
BITMAP
F0
F0
F0
F0
ENDCHAR
STARTCHAR mu
ENCODING 956
SWIDTH 627 0
DWIDTH 21 0
BBX 15 24 3 -6
BITMAP
F01E
F01E
F01E
F01E
F01E
F01E
F01E
F01E
F01E
F01E
F01E
F01E
F03E
F03E
F87E
FFDE
FFDE
FF9E
F000
F000
F000
F000
F000
F000
ENDCHAR
STARTCHAR uni1E00
ENCODING 7680
SWIDTH 690 0
DWIDTH 23 0
BBX 23 31 0 -6
BITMAP
003C00
007C00
007E00
00FE00
00FE00
00FF00
01EF00
01CF80
03C780
038780
0387C0
0783C0
0703C0
0F01E0
0E01E0
0FFFF0
1FFFF0
1FFFF0
1C00F8
380078
38007C
78003C
70003C
70003E
E0001E
000000
001C00
003600
002200
003600
001C00
ENDCHAR
STARTCHAR uni1E01
ENCODING 7681
SWIDTH 552 0
DWIDTH 19 0
BBX 17 24 1 -6
BITMAP
07F000
3FF800
3FFC00
307C00
203C00
003C00
003C00
07FC00
1FFC00
7FFC00
7C3C00
F83C00
F03C00
F03C00
F87C00
7FFF80
7FCF80
1F0780
000000
01C000
036000
022000
036000
01C000
ENDCHAR
STARTCHAR uni1E02
ENCODING 7682
SWIDTH 575 0
DWIDTH 20 0
BBX 15 30 3 0
BITMAP
0700
0700
0700
0700
0000
FFC0
FFF0
FFF8
F0FC
F03C
F03C
F03C
F03C
F038
F070
F1E0
FFC0
FFC0
FFF0
F0F8
F03C
F03E
F01E
F01E
F01E
F03E
F07C
FFFC
FFF8
FFE0
ENDCHAR
STARTCHAR uni1E03
ENCODING 7683
SWIDTH 630 0
DWIDTH 21 0
BBX 16 31 3 0
BITMAP
1C00
1C00
1C00
1C00
0000
F000
F000
F000
F000
F000
F000
F000
F000
F1F0
F3FC
F7FC
FC3E
F81E
F00F
F00F
F00F
F00F
F00F
F00F
F00F
F01E
F81E
FC3E
FFFC
F7F8
E1E0
ENDCHAR
STARTCHAR uni1E04
ENCODING 7684
SWIDTH 575 0
DWIDTH 20 0
BBX 15 30 3 -5
BITMAP
FFC0
FFF0
FFF8
F0FC
F03C
F03C
F03C
F03C
F038
F070
F1E0
FFC0
FFC0
FFF0
F0F8
F03C
F03E
F01E
F01E
F01E
F03E
F07C
FFFC
FFF8
FFE0
0000
0380
0380
0380
0380
ENDCHAR
STARTCHAR uni1E05
ENCODING 7685
SWIDTH 630 0
DWIDTH 21 0
BBX 16 31 3 -5
BITMAP
F000
F000
F000
F000
F000
F000
F000
F000
F1F0
F3FC
F7FC
FC3E
F81E
F00F
F00F
F00F
F00F
F00F
F00F
F00F
F01E
F81E
FC3E
FFFC
F7F8
E1E0
0000
0380
0380
0380
0380
ENDCHAR
STARTCHAR uni1E06
ENCODING 7686
SWIDTH 575 0
DWIDTH 20 0
BBX 15 29 3 -4
BITMAP
FFC0
FFF0
FFF8
F0FC
F03C
F03C
F03C
F03C
F038
F070
F1E0
FFC0
FFC0
FFF0
F0F8
F03C
F03E
F01E
F01E
F01E
F03E
F07C
FFFC
FFF8
FFE0
0000
1FF0
1FF0
1FF0
ENDCHAR
STARTCHAR uni1E07
ENCODING 7687
SWIDTH 630 0
DWIDTH 21 0
BBX 16 30 3 -4
BITMAP
F000
F000
F000
F000
F000
F000
F000
F000
F1F0
F3FC
F7FC
FC3E
F81E
F00F
F00F
F00F
F00F
F00F
F00F
F00F
F01E
F81E
FC3E
FFFC
F7F8
E1E0
0000
1FF0
1FF0
1FF0
ENDCHAR
STARTCHAR uni1E08
ENCODING 7688
SWIDTH 692 0
DWIDTH 24 0
BBX 20 38 2 -7
BITMAP
003C00
007800
007000
00E000
01C000
000000
00FF00
03FFF0
0FFFF0
1F80F0
3E0010
3C0000
7C0000
780000
F80000
F00000
F00000
F00000
F00000
F00000
F00000
F00000
F80000
780000
7C0000
3C0000
3E0010
1F80F0
0FFFF0
03FFE0
00FF00
006000
006000
003800
003800
003800
00F800
00F000
ENDCHAR
STARTCHAR uni1E09
ENCODING 7689
SWIDTH 518 0
DWIDTH 17 0
BBX 14 31 2 -7
BITMAP
01E0
03C0
0380
0700
0E00
0000
07FC
1FFC
3FFC
7E0C
7C00
7800
F000
F000
F000
F000
F000
F000
7800
7C00
3E04
3FFC
0FFC
07F0
0300
0300
01C0
01C0
01C0
07C0
0780
ENDCHAR
STARTCHAR uni1E0A
ENCODING 7690
SWIDTH 749 0
DWIDTH 25 0
BBX 21 30 3 0
BITMAP
00E000
00E000
00E000
00E000
000000
FFF800
FFFE00
FFFF80
F00FC0
F003E0
F001F0
F000F0
F000F0
F000F8
F00078
F00078
F00078
F00078
F00078
F00078
F00078
F00070
F000F0
F000F0
F001E0
F003E0
F00FC0
FFFF80
FFFE00
FFF800
ENDCHAR
STARTCHAR uni1E0B
ENCODING 7691
SWIDTH 630 0
DWIDTH 21 0
BBX 16 31 2 0
BITMAP
001C
001C
001C
001C
0000
000F
000F
000F
000F
000F
000F
000F
000F
078F
1FEF
3FFF
7C3F
781F
780F
F00F
F00F
F00F
F00F
F00F
F00F
F00F
781F
7C3F
3FEF
3FCF
0F8F
ENDCHAR
STARTCHAR uni1E0C
ENCODING 7692
SWIDTH 749 0
DWIDTH 25 0
BBX 21 30 3 -5
BITMAP
FFF800
FFFE00
FFFF80
F00FC0
F003E0
F001F0
F000F0
F000F0
F000F8
F00078
F00078
F00078
F00078
F00078
F00078
F00078
F00070
F000F0
F000F0
F001E0
F003E0
F00FC0
FFFF80
FFFE00
FFF800
000000
00E000
00E000
00E000
00E000
ENDCHAR
STARTCHAR uni1E0D
ENCODING 7693
SWIDTH 630 0
DWIDTH 21 0
BBX 16 31 2 -5
BITMAP
000F
000F
000F
000F
000F
000F
000F
000F
078F
1FEF
3FFF
7C3F
781F
780F
F00F
F00F
F00F
F00F
F00F
F00F
F00F
781F
7C3F
3FEF
3FCF
0F8F
0000
01C0
01C0
01C0
01C0
ENDCHAR
STARTCHAR uni1E0E
ENCODING 7694
SWIDTH 749 0
DWIDTH 25 0
BBX 21 29 3 -4
BITMAP
FFF800
FFFE00
FFFF80
F00FC0
F003E0
F001F0
F000F0
F000F0
F000F8
F00078
F00078
F00078
F00078
F00078
F00078
F00078
F00070
F000F0
F000F0
F001E0
F003E0
F00FC0
FFFF80
FFFE00
FFF800
000000
07FC00
07FC00
07FC00
ENDCHAR
STARTCHAR uni1E0F
ENCODING 7695
SWIDTH 630 0
DWIDTH 21 0
BBX 16 30 2 -4
BITMAP
000F
000F
000F
000F
000F
000F
000F
000F
078F
1FEF
3FFF
7C3F
781F
780F
F00F
F00F
F00F
F00F
F00F
F00F
F00F
781F
7C3F
3FEF
3FCF
0F8F
0000
0FF8
0FF8
0FF8
ENDCHAR
STARTCHAR uni1E10
ENCODING 7696
SWIDTH 749 0
DWIDTH 25 0
BBX 21 32 3 -7
BITMAP
FFF800
FFFE00
FFFF80
F00FC0
F003E0
F001F0
F000F0
F000F0
F000F8
F00078
F00078
F00078
F00078
F00078
F00078
F00078
F00070
F000F0
F000F0
F001E0
F003E0
F00FC0
FFFF80
FFFE00
FFF800
00C000
00C000
007000
007000
007000
01F000
01E000
ENDCHAR
STARTCHAR uni1E11
ENCODING 7697
SWIDTH 630 0
DWIDTH 21 0
BBX 16 33 2 -7
BITMAP
000F
000F
000F
000F
000F
000F
000F
000F
078F
1FEF
3FFF
7C3F
781F
780F
F00F
F00F
F00F
F00F
F00F
F00F
F00F
781F
7C3F
3FEF
3FCF
0FCF
0180
0180
00E0
00E0
00E0
03E0
03C0
ENDCHAR
STARTCHAR uni1E12
ENCODING 7698
SWIDTH 749 0
DWIDTH 25 0
BBX 21 31 3 -6
BITMAP
FFF800
FFFE00
FFFF80
F00FC0
F003E0
F001F0
F000F0
F000F0
F000F8
F00078
F00078
F00078
F00078
F00078
F00078
F00078
F00070
F000F0
F000F0
F001E0
F003E0
F00FC0
FFFF80
FFFE00
FFF800
000000
01F000
01F000
03B800
071C00
0E0E00
ENDCHAR
STARTCHAR uni1E13
ENCODING 7699
SWIDTH 630 0
DWIDTH 21 0
BBX 16 32 2 -6
BITMAP
000F
000F
000F
000F
000F
000F
000F
000F
078F
1FEF
3FFF
7C3F
781F
780F
F00F
F00F
F00F
F00F
F00F
F00F
F00F
781F
7C3F
3FEF
3FCF
0F8F
0000
03E0
03E0
0770
0E38
1C1C
ENDCHAR
STARTCHAR uni1E14
ENCODING 7700
SWIDTH 542 0
DWIDTH 18 0
BBX 15 35 3 0
BITMAP
3C00
1E00
0E00
0700
0380
0000
3FE0
3FE0
3FE0
0000
FFFC
FFFC
FFFC
F000
F000
F000
F000
F000
F000
F000
F000
FFF8
FFF8
FFF8
F000
F000
F000
F000
F000
F000
F000
F000
FFFE
FFFE
FFFE
ENDCHAR
STARTCHAR uni1E15
ENCODING 7701
SWIDTH 557 0
DWIDTH 19 0
BBX 15 28 2 0
BITMAP
1E00
0F00
0700
0380
01C0
0000
1FF0
1FF0
1FF0
0000
07E0
1FF0
3FF8
3C3C
781C
701E
F01E
FFFE
FFFE
FFFE
F000
F000
7800
7C00
3E06
1FFE
0FFE
03F8
ENDCHAR
STARTCHAR uni1E16
ENCODING 7702
SWIDTH 542 0
DWIDTH 18 0
BBX 15 35 3 0
BITMAP
01E0
03C0
0380
0700
0E00
0000
3FE0
3FE0
3FE0
0000
FFFC
FFFC
FFFC
F000
F000
F000
F000
F000
F000
F000
F000
FFF8
FFF8
FFF8
F000
F000
F000
F000
F000
F000
F000
F000
FFFE
FFFE
FFFE
ENDCHAR
STARTCHAR uni1E17
ENCODING 7703
SWIDTH 557 0
DWIDTH 19 0
BBX 15 28 2 0
BITMAP
00F0
01E0
01C0
0380
0700
0000
1FF0
1FF0
1FF0
0000
07E0
1FF0
3FF8
3C3C
781C
701E
F01E
FFFE
FFFE
FFFE
F000
F000
7800
7C00
3E06
1FFE
0FFE
03F8
ENDCHAR
STARTCHAR uni1E18
ENCODING 7704
SWIDTH 542 0
DWIDTH 18 0
BBX 15 31 3 -6
BITMAP
FFFC
FFFC
FFFC
F000
F000
F000
F000
F000
F000
F000
F000
FFF8
FFF8
FFF8
F000
F000
F000
F000
F000
F000
F000
F000
FFFE
FFFE
FFFE
0000
0F80
0F80
1DC0
38E0
7070
ENDCHAR
STARTCHAR uni1E19
ENCODING 7705
SWIDTH 557 0
DWIDTH 19 0
BBX 15 24 2 -6
BITMAP
07E0
1FF0
3FF8
3C3C
781C
701E
F01E
FFFE
FFFE
FFFE
F000
F000
7800
7C00
3E06
1FFE
0FFE
03F8
0000
03E0
03E0
0770
0E38
1C1C
ENDCHAR
STARTCHAR uni1E1A
ENCODING 7706
SWIDTH 542 0
DWIDTH 18 0
BBX 15 30 3 -5
BITMAP
FFFC
FFFC
FFFC
F000
F000
F000
F000
F000
F000
F000
F000
FFF8
FFF8
FFF8
F000
F000
F000
F000
F000
F000
F000
F000
FFFE
FFFE
FFFE
0000
3C30
7FF0
7FE0
61C0
ENDCHAR
STARTCHAR uni1E1B
ENCODING 7707
SWIDTH 557 0
DWIDTH 19 0
BBX 15 23 2 -5
BITMAP
07E0
1FF0
3FF8
3C3C
781C
701E
F01E
FFFE
FFFE
FFFE
F000
F000
7800
7C00
3E06
1FFE
0FFE
03F8
0000
0F0C
1FFC
1FF8
1870
ENDCHAR
STARTCHAR uni1E1C
ENCODING 7708
SWIDTH 542 0
DWIDTH 18 0
BBX 15 38 3 -7
BITMAP
C060
E0E0
7FC0
3F80
1F00
0000
FFFC
FFFC
FFFC
F000
F000
F000
F000
F000
F000
F000
F000
FFF8
FFF8
FFF8
F000
F000
F000
F000
F000
F000
F000
F000
FFFE
FFFE
FFFE
0600
0600
0380
0380
0380
0F80
0F00
ENDCHAR
STARTCHAR uni1E1D
ENCODING 7709
SWIDTH 557 0
DWIDTH 19 0
BBX 15 31 2 -7
BITMAP
3018
3838
1FF0
0FE0
07C0
0000
07E0
1FF0
3FF8
3C3C
781C
701E
F01E
FFFE
FFFE
FFFE
F000
F000
7800
7C00
3E06
1FFE
0FFE
03F8
0180
0180
00E0
00E0
00E0
03E0
03C0
ENDCHAR
STARTCHAR uni1E1E
ENCODING 7710
SWIDTH 536 0
DWIDTH 18 0
BBX 14 30 3 0
BITMAP
0700
0700
0700
0700
0000
FFFC
FFFC
FFFC
F000
F000
F000
F000
F000
F000
F000
F000
FFF0
FFF0
FFF0
F000
F000
F000
F000
F000
F000
F000
F000
F000
F000
F000
ENDCHAR
STARTCHAR uni1E1F
ENCODING 7711
SWIDTH 367 0
DWIDTH 12 0
BBX 13 32 1 0
BITMAP
0380
0380
0380
0380
0000
03F0
07F8
0FF8
0F08
1E00
1E00
1E00
1E00
1E00
FFE0
FFE0
FFE0
1E00
1E00
1E00
1E00
1E00
1E00
1E00
1E00
1E00
1E00
1E00
1E00
1E00
1E00
1E00
ENDCHAR
STARTCHAR uni1E20
ENCODING 7712
SWIDTH 723 0
DWIDTH 25 0
BBX 20 29 2 0
BITMAP
03FE00
03FE00
03FE00
000000
00FF80
03FFF0
0FFFF0
1F80F0
3E0010
3C0000
7C0000
780000
F80000
F00000
F00000
F00000
F00000
F000F0
F000F0
F000F0
F800F0
7800F0
7800F0
3C00F0
3E00F0
1F80F0
0FFFF0
07FFF0
00FF80
ENDCHAR
STARTCHAR uni1E21
ENCODING 7713
SWIDTH 623 0
DWIDTH 21 0
BBX 16 29 2 -7
BITMAP
0FF8
0FF8
0FF8
0000
078F
1FEF
3FFF
7C3F
781F
780F
F00F
F00F
F00F
F00F
F00F
F00F
F00F
781F
7C3F
3FEF
1FCF
0F8F
000F
000E
001E
203E
3FFC
7FF8
1FE0
ENDCHAR
STARTCHAR uni1E22
ENCODING 7714
SWIDTH 735 0
DWIDTH 25 0
BBX 19 30 3 0
BITMAP
00E000
00E000
00E000
00E000
000000
F001E0
F001E0
F001E0
F001E0
F001E0
F001E0
F001E0
F001E0
F001E0
F001E0
FFFFE0
FFFFE0
FFFFE0
F001E0
F001E0
F001E0
F001E0
F001E0
F001E0
F001E0
F001E0
F001E0
F001E0
F001E0
F001E0
ENDCHAR
STARTCHAR uni1E23
ENCODING 7715
SWIDTH 620 0
DWIDTH 21 0
BBX 15 31 3 0
BITMAP
3800
3800
3800
3800
0000
F000
F000
F000
F000
F000
F000
F000
F000
F0F0
F3FC
F7FC
FE3E
FC1E
F81E
F01E
F01E
F01E
F01E
F01E
F01E
F01E
F01E
F01E
F01E
F01E
F01E
ENDCHAR
STARTCHAR uni1E24
ENCODING 7716
SWIDTH 735 0
DWIDTH 25 0
BBX 19 30 3 -5
BITMAP
F001E0
F001E0
F001E0
F001E0
F001E0
F001E0
F001E0
F001E0
F001E0
F001E0
FFFFE0
FFFFE0
FFFFE0
F001E0
F001E0
F001E0
F001E0
F001E0
F001E0
F001E0
F001E0
F001E0
F001E0
F001E0
F001E0
000000
00E000
00E000
00E000
00E000
ENDCHAR
STARTCHAR uni1E25
ENCODING 7717
SWIDTH 620 0
DWIDTH 21 0
BBX 15 31 3 -5
BITMAP
F000
F000
F000
F000
F000
F000
F000
F000
F0F0
F3FC
F7FC
FE3E
FC1E
F81E
F01E
F01E
F01E
F01E
F01E
F01E
F01E
F01E
F01E
F01E
F01E
F01E
0000
0380
0380
0380
0380
ENDCHAR
STARTCHAR uni1E26
ENCODING 7718
SWIDTH 735 0
DWIDTH 25 0
BBX 19 29 3 0
BITMAP
071C00
071C00
071C00
000000
F001E0
F001E0
F001E0
F001E0
F001E0
F001E0
F001E0
F001E0
F001E0
F001E0
FFFFE0
FFFFE0
FFFFE0
F001E0
F001E0
F001E0
F001E0
F001E0
F001E0
F001E0
F001E0
F001E0
F001E0
F001E0
F001E0
ENDCHAR
STARTCHAR uni1E27
ENCODING 7719
SWIDTH 620 0
DWIDTH 21 0
BBX 16 30 2 0
BITMAP
E380
E380
E380
0000
7800
7800
7800
7800
7800
7800
7800
7800
7878
79FE
7BFE
7F1F
7E0F
7C0F
780F
780F
780F
780F
780F
780F
780F
780F
780F
780F
780F
780F
ENDCHAR
STARTCHAR uni1E28
ENCODING 7720
SWIDTH 735 0
DWIDTH 25 0
BBX 19 32 3 -7
BITMAP
F001E0
F001E0
F001E0
F001E0
F001E0
F001E0
F001E0
F001E0
F001E0
F001E0
FFFFE0
FFFFE0
FFFFE0
F001E0
F001E0
F001E0
F001E0
F001E0
F001E0
F001E0
F001E0
F001E0
F001E0
F001E0
F061E0
00C000
00C000
007000
007000
007000
01F000
01E000
ENDCHAR
STARTCHAR uni1E29
ENCODING 7721
SWIDTH 620 0
DWIDTH 21 0
BBX 15 33 3 -7
BITMAP
F000
F000
F000
F000
F000
F000
F000
F000
F0F0
F3FC
F7FC
FE3E
FC1E
F81E
F01E
F01E
F01E
F01E
F01E
F01E
F01E
F01E
F01E
F01E
F01E
F19E
0300
0300
01C0
01C0
01C0
07C0
0780
ENDCHAR
STARTCHAR uni1E2A
ENCODING 7722
SWIDTH 735 0
DWIDTH 25 0
BBX 19 31 3 -6
BITMAP
F001E0
F001E0
F001E0
F001E0
F001E0
F001E0
F001E0
F001E0
F001E0
F001E0
FFFFE0
FFFFE0
FFFFE0
F001E0
F001E0
F001E0
F001E0
F001E0
F001E0
F001E0
F001E0
F001E0
F001E0
F001E0
F001E0
000000
0C0600
0E0E00
07FC00
03F800
01F000
ENDCHAR
STARTCHAR uni1E2B
ENCODING 7723
SWIDTH 620 0
DWIDTH 21 0
BBX 15 32 3 -6
BITMAP
F000
F000
F000
F000
F000
F000
F000
F000
F0F0
F3FC
F7FC
FE3E
FC1E
F81E
F01E
F01E
F01E
F01E
F01E
F01E
F01E
F01E
F01E
F01E
F01E
F01E
0000
3018
3838
1FF0
0FE0
07C0
ENDCHAR
STARTCHAR uni1E2C
ENCODING 7724
SWIDTH 288 0
DWIDTH 10 0
BBX 11 30 0 -5
BITMAP
1E00
1E00
1E00
1E00
1E00
1E00
1E00
1E00
1E00
1E00
1E00
1E00
1E00
1E00
1E00
1E00
1E00
1E00
1E00
1E00
1E00
1E00
1E00
1E00
1E00
0000
7860
FFE0
FFC0
C380
ENDCHAR
STARTCHAR uni1E2D
ENCODING 7725
SWIDTH 289 0
DWIDTH 10 0
BBX 11 30 0 -5
BITMAP
1E00
1E00
1E00
1E00
0000
0000
0000
1E00
1E00
1E00
1E00
1E00
1E00
1E00
1E00
1E00
1E00
1E00
1E00
1E00
1E00
1E00
1E00
1E00
1E00
0000
7860
FFE0
FFC0
C380
ENDCHAR
STARTCHAR uni1E2E
ENCODING 7726
SWIDTH 288 0
DWIDTH 10 0
BBX 9 35 1 0
BITMAP
0780
0F00
0E00
1C00
3800
0000
E380
E380
E380
0000
3C00
3C00
3C00
3C00
3C00
3C00
3C00
3C00
3C00
3C00
3C00
3C00
3C00
3C00
3C00
3C00
3C00
3C00
3C00
3C00
3C00
3C00
3C00
3C00
3C00
ENDCHAR
STARTCHAR uni1E2F
ENCODING 7727
SWIDTH 289 0
DWIDTH 10 0
BBX 9 28 1 0
BITMAP
0780
0F00
0E00
1C00
3800
0000
E380
E380
E380
0000
3C00
3C00
3C00
3C00
3C00
3C00
3C00
3C00
3C00
3C00
3C00
3C00
3C00
3C00
3C00
3C00
3C00
3C00
ENDCHAR
STARTCHAR uni1E30
ENCODING 7728
SWIDTH 653 0
DWIDTH 22 0
BBX 19 31 3 0
BITMAP
00F000
01E000
01C000
038000
070000
000000
F00700
F00E00
F01E00
F03C00
F03800
F07800
F0F000
F1E000
F1C000
F3C000
F78000
FF0000
FF8000
FF8000
F7C000
F3E000
F1F000
F0F800
F0F800
F07C00
F03E00
F01F00
F01F80
F00F80
F007E0
ENDCHAR
STARTCHAR uni1E31
ENCODING 7729
SWIDTH 585 0
DWIDTH 20 0
BBX 18 32 3 0
BITMAP
078000
0F0000
0E0000
1C0000
380000
000000
F00000
F00000
F00000
F00000
F00000
F00000
F00000
F00000
F01E00
F03C00
F07800
F07000
F0F000
F1E000
F3C000
F78000
FF8000
FFC000
F7E000
F3F000
F1F000
F0F800
F07C00
F03E00
F01F00
F00FC0
ENDCHAR
STARTCHAR uni1E32
ENCODING 7730
SWIDTH 653 0
DWIDTH 22 0
BBX 19 30 3 -5
BITMAP
F00700
F00E00
F01E00
F03C00
F03800
F07800
F0F000
F1E000
F1C000
F3C000
F78000
FF0000
FF8000
FF8000
F7C000
F3E000
F1F000
F0F800
F0F800
F07C00
F03E00
F01F00
F01F80
F00F80
F007E0
000000
01C000
01C000
01C000
01C000
ENDCHAR
STARTCHAR uni1E33
ENCODING 7731
SWIDTH 585 0
DWIDTH 20 0
BBX 18 31 3 -5
BITMAP
F00000
F00000
F00000
F00000
F00000
F00000
F00000
F00000
F01E00
F03C00
F07800
F07000
F0F000
F1E000
F3C000
F78000
FF8000
FFC000
F7E000
F3F000
F1F000
F0F800
F07C00
F03E00
F01F00
F00FC0
000000
01C000
01C000
01C000
01C000
ENDCHAR
STARTCHAR uni1E34
ENCODING 7732
SWIDTH 653 0
DWIDTH 22 0
BBX 19 29 3 -4
BITMAP
F00700
F00E00
F01E00
F03C00
F03800
F07800
F0F000
F1E000
F1C000
F3C000
F78000
FF0000
FF8000
FF8000
F7C000
F3E000
F1F000
F0F800
F0F800
F07C00
F03E00
F01F00
F01F80
F00F80
F007E0
000000
0FF800
0FF800
0FF800
ENDCHAR
STARTCHAR uni1E35
ENCODING 7733
SWIDTH 585 0
DWIDTH 20 0
BBX 18 30 3 -4
BITMAP
F00000
F00000
F00000
F00000
F00000
F00000
F00000
F00000
F01E00
F03C00
F07800
F07000
F0F000
F1E000
F3C000
F78000
FF8000
FFC000
F7E000
F3F000
F1F000
F0F800
F07C00
F03E00
F01F00
F00FC0
000000
0FF800
0FF800
0FF800
ENDCHAR
STARTCHAR uni1E36
ENCODING 7734
SWIDTH 533 0
DWIDTH 18 0
BBX 15 30 3 -5
BITMAP
F000
F000
F000
F000
F000
F000
F000
F000
F000
F000
F000
F000
F000
F000
F000
F000
F000
F000
F000
F000
F000
F000
FFFE
FFFE
FFFE
0000
0700
0700
0700
0700
ENDCHAR
STARTCHAR uni1E37
ENCODING 7735
SWIDTH 289 0
DWIDTH 10 0
BBX 4 31 3 -5
BITMAP
F0
F0
F0
F0
F0
F0
F0
F0
F0
F0
F0
F0
F0
F0
F0
F0
F0
F0
F0
F0
F0
F0
F0
F0
F0
F0
00
70
70
70
70
ENDCHAR
STARTCHAR uni1E38
ENCODING 7736
SWIDTH 533 0
DWIDTH 18 0
BBX 16 34 2 -5
BITMAP
FF80
FF80
FF80
0000
7800
7800
7800
7800
7800
7800
7800
7800
7800
7800
7800
7800
7800
7800
7800
7800
7800
7800
7800
7800
7800
7800
7FFF
7FFF
7FFF
0000
0380
0380
0380
0380
ENDCHAR
STARTCHAR uni1E39
ENCODING 7737
SWIDTH 289 0
DWIDTH 10 0
BBX 9 35 1 -5
BITMAP
FF80
FF80
FF80
0000
3C00
3C00
3C00
3C00
3C00
3C00
3C00
3C00
3C00
3C00
3C00
3C00
3C00
3C00
3C00
3C00
3C00
3C00
3C00
3C00
3C00
3C00
3C00
3C00
3C00
3C00
0000
1C00
1C00
1C00
1C00
ENDCHAR
STARTCHAR uni1E3A
ENCODING 7738
SWIDTH 533 0
DWIDTH 18 0
BBX 15 29 3 -4
BITMAP
F000
F000
F000
F000
F000
F000
F000
F000
F000
F000
F000
F000
F000
F000
F000
F000
F000
F000
F000
F000
F000
F000
FFFE
FFFE
FFFE
0000
3FE0
3FE0
3FE0
ENDCHAR
STARTCHAR uni1E3B
ENCODING 7739
SWIDTH 289 0
DWIDTH 10 0
BBX 9 30 1 -4
BITMAP
3C00
3C00
3C00
3C00
3C00
3C00
3C00
3C00
3C00
3C00
3C00
3C00
3C00
3C00
3C00
3C00
3C00
3C00
3C00
3C00
3C00
3C00
3C00
3C00
3C00
3C00
0000
FF80
FF80
FF80
ENDCHAR
STARTCHAR uni1E3C
ENCODING 7740
SWIDTH 533 0
DWIDTH 18 0
BBX 15 31 3 -6
BITMAP
F000
F000
F000
F000
F000
F000
F000
F000
F000
F000
F000
F000
F000
F000
F000
F000
F000
F000
F000
F000
F000
F000
FFFE
FFFE
FFFE
0000
0F80
0F80
1DC0
38E0
7070
ENDCHAR
STARTCHAR uni1E3D
ENCODING 7741
SWIDTH 289 0
DWIDTH 10 0
BBX 11 32 0 -6
BITMAP
1E00
1E00
1E00
1E00
1E00
1E00
1E00
1E00
1E00
1E00
1E00
1E00
1E00
1E00
1E00
1E00
1E00
1E00
1E00
1E00
1E00
1E00
1E00
1E00
1E00
1E00
0000
1F00
1F00
3B80
71C0
E0E0
ENDCHAR
STARTCHAR uni1E3E
ENCODING 7742
SWIDTH 861 0
DWIDTH 29 0
BBX 23 31 3 0
BITMAP
000F00
001E00
001C00
003800
007000
000000
F8003E
FC003E
FC007E
FC007E
FE00FE
FE00FE
FE00FE
EF01FE
EF01DE
EF81DE
E7839E
E7839E
E7C39E
E3C71E
E3C71E
E3E71E
E1EE1E
E1EE1E
E1FE1E
E0FC1E
E0FC1E
E0FC1E
E0781E
E0001E
E0001E
ENDCHAR
STARTCHAR uni1E3F
ENCODING 7743
SWIDTH 934 0
DWIDTH 32 0
BBX 26 24 3 0
BITMAP
00078000
000F0000
000E0000
001C0000
00380000
00000000
F0F81E00
F3FC7F80
F7FCFF80
FE3FC7C0
FC1F83C0
F81F03C0
F01E03C0
F01E03C0
F01E03C0
F01E03C0
F01E03C0
F01E03C0
F01E03C0
F01E03C0
F01E03C0
F01E03C0
F01E03C0
F01E03C0
ENDCHAR
STARTCHAR uni1E40
ENCODING 7744
SWIDTH 861 0
DWIDTH 29 0
BBX 23 30 3 0
BITMAP
003800
003800
003800
003800
000000
F8003E
FC003E
FC007E
FC007E
FE00FE
FE00FE
FE00FE
EF01FE
EF01DE
EF81DE
E7839E
E7839E
E7C39E
E3C71E
E3C71E
E3E71E
E1EE1E
E1EE1E
E1FE1E
E0FC1E
E0FC1E
E0FC1E
E0781E
E0001E
E0001E
ENDCHAR
STARTCHAR uni1E41
ENCODING 7745
SWIDTH 934 0
DWIDTH 32 0
BBX 26 23 3 0
BITMAP
001C0000
001C0000
001C0000
001C0000
00000000
F0F81E00
F3FC7F80
F7FCFF80
FE3FC7C0
FC1F83C0
F81F03C0
F01E03C0
F01E03C0
F01E03C0
F01E03C0
F01E03C0
F01E03C0
F01E03C0
F01E03C0
F01E03C0
F01E03C0
F01E03C0
F01E03C0
ENDCHAR
STARTCHAR uni1E42
ENCODING 7746
SWIDTH 861 0
DWIDTH 29 0
BBX 23 30 3 -5
BITMAP
F8003E
FC003E
FC007E
FC007E
FE00FE
FE00FE
FE00FE
EF01FE
EF01DE
EF81DE
E7839E
E7839E
E7C39E
E3C71E
E3C71E
E3E71E
E1EE1E
E1EE1E
E1FE1E
E0FC1E
E0FC1E
E0FC1E
E0781E
E0001E
E0001E
000000
003800
003800
003800
003800
ENDCHAR
STARTCHAR uni1E43
ENCODING 7747
SWIDTH 934 0
DWIDTH 32 0
BBX 26 23 3 -5
BITMAP
F0F81E00
F3FC7F80
F7FCFF80
FE3FC7C0
FC1F83C0
F81F03C0
F01E03C0
F01E03C0
F01E03C0
F01E03C0
F01E03C0
F01E03C0
F01E03C0
F01E03C0
F01E03C0
F01E03C0
F01E03C0
F01E03C0
00000000
000E0000
000E0000
000E0000
000E0000
ENDCHAR
STARTCHAR uni1E44
ENCODING 7748
SWIDTH 741 0
DWIDTH 25 0
BBX 19 30 3 0
BITMAP
01C000
01C000
01C000
01C000
000000
F000E0
F800E0
F800E0
FC00E0
FE00E0
FE00E0
FF00E0
EF80E0
E780E0
E7C0E0
E3E0E0
E1E0E0
E1F0E0
E0F8E0
E0F8E0
E07CE0
E03EE0
E03EE0
E01FE0
E00FE0
E00FE0
E007E0
E003E0
E003E0
E001E0
ENDCHAR
STARTCHAR uni1E45
ENCODING 7749
SWIDTH 620 0
DWIDTH 21 0
BBX 15 23 3 0
BITMAP
0380
0380
0380
0380
0000
F0F0
F3FC
F7FC
FE3E
FC1E
F81E
F01E
F01E
F01E
F01E
F01E
F01E
F01E
F01E
F01E
F01E
F01E
F01E
ENDCHAR
STARTCHAR uni1E46
ENCODING 7750
SWIDTH 741 0
DWIDTH 25 0
BBX 19 30 3 -5
BITMAP
F000E0
F800E0
F800E0
FC00E0
FE00E0
FE00E0
FF00E0
EF80E0
E780E0
E7C0E0
E3E0E0
E1E0E0
E1F0E0
E0F8E0
E0F8E0
E07CE0
E03EE0
E03EE0
E01FE0
E00FE0
E00FE0
E007E0
E003E0
E003E0
E001E0
000000
007000
007000
007000
007000
ENDCHAR
STARTCHAR uni1E47
ENCODING 7751
SWIDTH 620 0
DWIDTH 21 0
BBX 15 23 3 -5
BITMAP
F0F0
F3FC
F7FC
FE3E
FC1E
F81E
F01E
F01E
F01E
F01E
F01E
F01E
F01E
F01E
F01E
F01E
F01E
F01E
0000
0380
0380
0380
0380
ENDCHAR
STARTCHAR uni1E48
ENCODING 7752
SWIDTH 741 0
DWIDTH 25 0
BBX 19 29 3 -4
BITMAP
F000E0
F800E0
F800E0
FC00E0
FE00E0
FE00E0
FF00E0
EF80E0
E780E0
E7C0E0
E3E0E0
E1E0E0
E1F0E0
E0F8E0
E0F8E0
E07CE0
E03EE0
E03EE0
E01FE0
E00FE0
E00FE0
E007E0
E003E0
E003E0
E001E0
000000
03FE00
03FE00
03FE00
ENDCHAR
STARTCHAR uni1E49
ENCODING 7753
SWIDTH 620 0
DWIDTH 21 0
BBX 15 22 3 -4
BITMAP
F0F0
F3FC
F7FC
FE3E
FC1E
F81E
F01E
F01E
F01E
F01E
F01E
F01E
F01E
F01E
F01E
F01E
F01E
F01E
0000
1FF0
1FF0
1FF0
ENDCHAR
STARTCHAR uni1E4A
ENCODING 7754
SWIDTH 741 0
DWIDTH 25 0
BBX 19 31 3 -6
BITMAP
F000E0
F800E0
F800E0
FC00E0
FE00E0
FE00E0
FF00E0
EF80E0
E780E0
E7C0E0
E3E0E0
E1E0E0
E1F0E0
E0F8E0
E0F8E0
E07CE0
E03EE0
E03EE0
E01FE0
E00FE0
E00FE0
E007E0
E003E0
E003E0
E001E0
000000
00F800
00F800
01DC00
038E00
070700
ENDCHAR
STARTCHAR uni1E4B
ENCODING 7755
SWIDTH 620 0
DWIDTH 21 0
BBX 15 24 3 -6
BITMAP
F0F0
F3FC
F7FC
FE3E
FC1E
F81E
F01E
F01E
F01E
F01E
F01E
F01E
F01E
F01E
F01E
F01E
F01E
F01E
0000
07C0
07C0
0EE0
1C70
3838
ENDCHAR
STARTCHAR uni1E4C
ENCODING 7756
SWIDTH 777 0
DWIDTH 26 0
BBX 23 37 2 0
BITMAP
000F00
001E00
001C00
003800
007000
000000
01E180
03FF80
03FF00
030E00
000000
000000
00FE00
07FFC0
0FFFE0
1F83F0
3E00F8
3C0078
78003C
78003C
F8003E
F0001E
F0001E
F0001E
F0001E
F0001E
F0001E
F0001E
F8003E
78003C
78003C
3C0078
3E00F8
1F83F0
0FFFE0
07FFC0
00FE00
ENDCHAR
STARTCHAR uni1E4D
ENCODING 7757
SWIDTH 614 0
DWIDTH 21 0
BBX 17 30 2 0
BITMAP
007800
00F000
00E000
01C000
038000
000000
0F0C00
1FFC00
1FF800
187000
000000
000000
07F000
1FFC00
3FFE00
7C1F00
780F00
780F00
F00780
F00780
F00780
F00780
F00780
F00780
780F00
780F00
7C1F00
3FFE00
1FFC00
07F000
ENDCHAR
STARTCHAR uni1E4E
ENCODING 7758
SWIDTH 777 0
DWIDTH 26 0
BBX 23 35 2 0
BITMAP
01C700
01C700
01C700
000000
01E180
03FF80
03FF00
030E00
000000
000000
00FE00
07FFC0
0FFFE0
1F83F0
3E00F8
3C0078
78003C
78003C
F8003E
F0001E
F0001E
F0001E
F0001E
F0001E
F0001E
F0001E
F8003E
78003C
78003C
3C0078
3E00F8
1F83F0
0FFFE0
07FFC0
00FE00
ENDCHAR
STARTCHAR uni1E4F
ENCODING 7759
SWIDTH 614 0
DWIDTH 21 0
BBX 17 28 2 0
BITMAP
0E3800
0E3800
0E3800
000000
0F0C00
1FFC00
1FF800
187000
000000
000000
07F000
1FFC00
3FFE00
7C1F00
780F00
780F00
F00780
F00780
F00780
F00780
F00780
F00780
780F00
780F00
7C1F00
3FFE00
1FFC00
07F000
ENDCHAR
STARTCHAR uni1E50
ENCODING 7760
SWIDTH 777 0
DWIDTH 26 0
BBX 23 35 2 0
BITMAP
01E000
00F000
007000
003800
001C00
000000
01FF00
01FF00
01FF00
000000
00FE00
07FFC0
0FFFE0
1F83F0
3E00F8
3C0078
78003C
78003C
F8003E
F0001E
F0001E
F0001E
F0001E
F0001E
F0001E
F0001E
F8003E
78003C
78003C
3C0078
3E00F8
1F83F0
0FFFE0
07FFC0
00FE00
ENDCHAR
STARTCHAR uni1E51
ENCODING 7761
SWIDTH 614 0
DWIDTH 21 0
BBX 17 28 2 0
BITMAP
0F0000
078000
038000
01C000
00E000
000000
0FF800
0FF800
0FF800
000000
07F000
1FFC00
3FFE00
7C1F00
780F00
780F00
F00780
F00780
F00780
F00780
F00780
F00780
780F00
780F00
7C1F00
3FFE00
1FFC00
07F000
ENDCHAR
STARTCHAR uni1E52
ENCODING 7762
SWIDTH 777 0
DWIDTH 26 0
BBX 23 35 2 0
BITMAP
000F00
001E00
001C00
003800
007000
000000
01FF00
01FF00
01FF00
000000
00FE00
07FFC0
0FFFE0
1F83F0
3E00F8
3C0078
78003C
78003C
F8003E
F0001E
F0001E
F0001E
F0001E
F0001E
F0001E
F0001E
F8003E
78003C
78003C
3C0078
3E00F8
1F83F0
0FFFE0
07FFC0
00FE00
ENDCHAR
STARTCHAR uni1E53
ENCODING 7763
SWIDTH 614 0
DWIDTH 21 0
BBX 17 28 2 0
BITMAP
007800
00F000
00E000
01C000
038000
000000
0FF800
0FF800
0FF800
000000
07F000
1FFC00
3FFE00
7C1F00
780F00
780F00
F00780
F00780
F00780
F00780
F00780
F00780
780F00
780F00
7C1F00
3FFE00
1FFC00
07F000
ENDCHAR
STARTCHAR uni1E54
ENCODING 7764
SWIDTH 553 0
DWIDTH 19 0
BBX 15 31 3 0
BITMAP
00F0
01E0
01C0
0380
0700
0000
FFE0
FFF8
FFFC
F07C
F03E
F01E
F01E
F01E
F01E
F03E
F03C
F0FC
FFF8
FFF0
FFC0
F000
F000
F000
F000
F000
F000
F000
F000
F000
F000
ENDCHAR
STARTCHAR uni1E55
ENCODING 7765
SWIDTH 630 0
DWIDTH 21 0
BBX 16 31 3 -7
BITMAP
00F0
01E0
01C0
0380
0700
0000
F1F0
F3FC
F7FC
FC3E
F81E
F00F
F00F
F00F
F00F
F00F
F00F
F00F
F01E
F81E
FC3E
FFFC
F7F8
F1E0
F000
F000
F000
F000
F000
F000
F000
ENDCHAR
STARTCHAR uni1E56
ENCODING 7766
SWIDTH 553 0
DWIDTH 19 0
BBX 15 30 3 0
BITMAP
0380
0380
0380
0380
0000
FFE0
FFF8
FFFC
F07C
F03E
F01E
F01E
F01E
F01E
F03E
F03C
F0FC
FFF8
FFF0
FFC0
F000
F000
F000
F000
F000
F000
F000
F000
F000
F000
ENDCHAR
STARTCHAR uni1E57
ENCODING 7767
SWIDTH 630 0
DWIDTH 21 0
BBX 16 30 3 -7
BITMAP
0380
0380
0380
0380
0000
F1F0
F3FC
F7FC
FC3E
F81E
F00F
F00F
F00F
F00F
F00F
F00F
F00F
F01E
F81E
FC3E
FFFC
F7F8
F1E0
F000
F000
F000
F000
F000
F000
F000
ENDCHAR
STARTCHAR uni1E58
ENCODING 7768
SWIDTH 633 0
DWIDTH 21 0
BBX 18 30 3 0
BITMAP
038000
038000
038000
038000
000000
FFE000
FFF800
FFFC00
F07E00
F03E00
F01E00
F01E00
F01E00
F01E00
F03C00
F03C00
F0F800
FFE000
FFC000
FFE000
F1F000
F0F000
F0F800
F07C00
F03E00
F03E00
F01F00
F00F80
F00F80
F007C0
ENDCHAR
STARTCHAR uni1E59
ENCODING 7769
SWIDTH 409 0
DWIDTH 14 0
BBX 11 23 3 0
BITMAP
0E00
0E00
0E00
0E00
0000
F0E0
F3E0
F7E0
FE00
FC00
F800
F000
F000
F000
F000
F000
F000
F000
F000
F000
F000
F000
F000
ENDCHAR
STARTCHAR uni1E5A
ENCODING 7770
SWIDTH 633 0
DWIDTH 21 0
BBX 18 30 3 -5
BITMAP
FFE000
FFF800
FFFC00
F07E00
F03E00
F01E00
F01E00
F01E00
F01E00
F03C00
F03C00
F0F800
FFE000
FFC000
FFE000
F1F000
F0F000
F0F800
F07C00
F03E00
F03E00
F01F00
F00F80
F00F80
F007C0
000000
01C000
01C000
01C000
01C000
ENDCHAR
STARTCHAR uni1E5B
ENCODING 7771
SWIDTH 409 0
DWIDTH 14 0
BBX 11 23 3 -5
BITMAP
F0E0
F3E0
F7E0
FE00
FC00
F800
F000
F000
F000
F000
F000
F000
F000
F000
F000
F000
F000
F000
0000
3800
3800
3800
3800
ENDCHAR
STARTCHAR uni1E5C
ENCODING 7772
SWIDTH 633 0
DWIDTH 21 0
BBX 18 34 3 -5
BITMAP
1FF000
1FF000
1FF000
000000
FFE000
FFF800
FFFC00
F07E00
F03E00
F01E00
F01E00
F01E00
F01E00
F03C00
F03C00
F0F800
FFE000
FFC000
FFE000
F1F000
F0F000
F0F800
F07C00
F03E00
F03E00
F01F00
F00F80
F00F80
F007C0
000000
01C000
01C000
01C000
01C000
ENDCHAR
STARTCHAR uni1E5D
ENCODING 7773
SWIDTH 409 0
DWIDTH 14 0
BBX 11 27 3 -5
BITMAP
FF80
FF80
FF80
0000
F0E0
F3E0
F7E0
FE00
FC00
F800
F000
F000
F000
F000
F000
F000
F000
F000
F000
F000
F000
F000
0000
3800
3800
3800
3800
ENDCHAR
STARTCHAR uni1E5E
ENCODING 7774
SWIDTH 633 0
DWIDTH 21 0
BBX 18 29 3 -4
BITMAP
FFE000
FFF800
FFFC00
F07E00
F03E00
F01E00
F01E00
F01E00
F01E00
F03C00
F03C00
F0F800
FFE000
FFC000
FFE000
F1F000
F0F000
F0F800
F07C00
F03E00
F03E00
F01F00
F00F80
F00F80
F007C0
000000
0FF800
0FF800
0FF800
ENDCHAR
STARTCHAR uni1E5F
ENCODING 7775
SWIDTH 409 0
DWIDTH 14 0
BBX 12 22 2 -4
BITMAP
7870
79F0
7BF0
7F00
7E00
7C00
7800
7800
7800
7800
7800
7800
7800
7800
7800
7800
7800
7800
0000
FF80
FF80
FF80
ENDCHAR
STARTCHAR uni1E60
ENCODING 7776
SWIDTH 539 0
DWIDTH 18 0
BBX 15 30 2 0
BITMAP
0700
0700
0700
0700
0000
0FF0
3FF8
7FF8
7C38
F008
F000
F000
F000
F800
7E00
3F80
1FC0
0FF0
03F8
00FC
007E
003E
001E
001E
001E
803E
F07C
FFF8
FFF0
3FC0
ENDCHAR
STARTCHAR uni1E61
ENCODING 7777
SWIDTH 510 0
DWIDTH 17 0
BBX 12 23 3 0
BITMAP
0E00
0E00
0E00
0E00
0000
1FE0
7FE0
7FE0
F860
F000
F000
FC00
7F00
7FC0
1FE0
07F0
01F0
00F0
80F0
E1F0
FFE0
FFC0
3F80
ENDCHAR
STARTCHAR uni1E62
ENCODING 7778
SWIDTH 539 0
DWIDTH 18 0
BBX 15 30 2 -5
BITMAP
0FF0
3FF8
7FF8
7C38
F008
F000
F000
F000
F800
7E00
3F80
1FC0
0FF0
03F8
00FC
007E
003E
001E
001E
001E
803E
F07C
FFF8
FFF0
3FC0
0000
0380
0380
0380
0380
ENDCHAR
STARTCHAR uni1E63
ENCODING 7779
SWIDTH 510 0
DWIDTH 17 0
BBX 12 23 3 -5
BITMAP
1FE0
7FE0
7FE0
F860
F000
F000
FC00
7F00
7FC0
1FE0
07F0
01F0
00F0
80F0
E1F0
FFE0
FFC0
3F80
0000
0E00
0E00
0E00
0E00
ENDCHAR
STARTCHAR uni1E64
ENCODING 7780
SWIDTH 539 0
DWIDTH 18 0
BBX 15 36 2 0
BITMAP
0380
0380
0380
0380
0000
01E0
03C0
0380
0700
0E00
0000
0FF0
3FF8
7FF8
7C38
F008
F000
F000
F000
F800
7E00
3F80
1FC0
0FF0
03F8
00FC
007E
003E
001E
001E
001E
803E
F07C
FFF8
FFF0
3FC0
ENDCHAR
STARTCHAR uni1E65
ENCODING 7781
SWIDTH 510 0
DWIDTH 17 0
BBX 12 29 3 0
BITMAP
0700
0700
0700
0700
0000
03C0
0780
0700
0E00
1C00
0000
1FE0
7FE0
7FE0
F860
F000
F000
FC00
7F00
7FC0
1FE0
07F0
01F0
00F0
80F0
E1F0
FFE0
FFC0
3F80
ENDCHAR
STARTCHAR uni1E66
ENCODING 7782
SWIDTH 539 0
DWIDTH 18 0
BBX 15 37 2 0
BITMAP
0380
0380
0380
0380
0000
3838
1C70
0EE0
07C0
07C0
0000
0000
0FF0
3FF8
7FF8
7C38
F008
F000
F000
F000
F800
7E00
3F80
1FC0
0FF0
03F8
00FC
007E
003E
001E
001E
001E
803E
F07C
FFF8
FFF0
3FC0
ENDCHAR
STARTCHAR uni1E67
ENCODING 7783
SWIDTH 510 0
DWIDTH 17 0
BBX 12 30 3 0
BITMAP
0700
0700
0700
0700
0000
7070
38E0
1DC0
0F80
0F80
0000
0000
1FE0
7FE0
7FE0
F860
F000
F000
FC00
7F00
7FC0
1FE0
07F0
01F0
00F0
80F0
E1F0
FFE0
FFC0
3F80
ENDCHAR
STARTCHAR uni1E68
ENCODING 7784
SWIDTH 539 0
DWIDTH 18 0
BBX 15 35 2 -5
BITMAP
0700
0700
0700
0700
0000
0FF0
3FF8
7FF8
7C38
F008
F000
F000
F000
F800
7E00
3F80
1FC0
0FF0
03F8
00FC
007E
003E
001E
001E
001E
803E
F07C
FFF8
FFF0
3FC0
0000
0380
0380
0380
0380
ENDCHAR
STARTCHAR uni1E69
ENCODING 7785
SWIDTH 510 0
DWIDTH 17 0
BBX 12 28 3 -5
BITMAP
0E00
0E00
0E00
0E00
0000
1FE0
7FE0
7FE0
F860
F000
F000
FC00
7F00
7FC0
1FE0
07F0
01F0
00F0
80F0
E1F0
FFE0
FFC0
3F80
0000
0E00
0E00
0E00
0E00
ENDCHAR
STARTCHAR uni1E6A
ENCODING 7786
SWIDTH 633 0
DWIDTH 21 0
BBX 22 30 0 0
BITMAP
003800
003800
003800
003800
000000
FFFFFC
FFFFFC
FFFFFC
007800
007800
007800
007800
007800
007800
007800
007800
007800
007800
007800
007800
007800
007800
007800
007800
007800
007800
007800
007800
007800
007800
ENDCHAR
STARTCHAR uni1E6B
ENCODING 7787
SWIDTH 374 0
DWIDTH 13 0
BBX 11 28 1 0
BITMAP
1C00
1C00
1C00
1C00
0000
3C00
3C00
3C00
3C00
3C00
FFE0
FFE0
FFE0
3C00
3C00
3C00
3C00
3C00
3C00
3C00
3C00
3C00
3C00
3C00
3E00
1FE0
1FE0
07E0
ENDCHAR
STARTCHAR uni1E6C
ENCODING 7788
SWIDTH 633 0
DWIDTH 21 0
BBX 22 30 0 -5
BITMAP
FFFFFC
FFFFFC
FFFFFC
007800
007800
007800
007800
007800
007800
007800
007800
007800
007800
007800
007800
007800
007800
007800
007800
007800
007800
007800
007800
007800
007800
000000
003800
003800
003800
003800
ENDCHAR
STARTCHAR uni1E6D
ENCODING 7789
SWIDTH 374 0
DWIDTH 13 0
BBX 11 28 1 -5
BITMAP
3C00
3C00
3C00
3C00
3C00
FFE0
FFE0
FFE0
3C00
3C00
3C00
3C00
3C00
3C00
3C00
3C00
3C00
3C00
3C00
3E00
1FE0
1FE0
07E0
0000
0E00
0E00
0E00
0E00
ENDCHAR
STARTCHAR uni1E6E
ENCODING 7790
SWIDTH 633 0
DWIDTH 21 0
BBX 22 29 0 -4
BITMAP
FFFFFC
FFFFFC
FFFFFC
007800
007800
007800
007800
007800
007800
007800
007800
007800
007800
007800
007800
007800
007800
007800
007800
007800
007800
007800
007800
007800
007800
000000
01FF00
01FF00
01FF00
ENDCHAR
STARTCHAR uni1E6F
ENCODING 7791
SWIDTH 374 0
DWIDTH 13 0
BBX 11 27 1 -4
BITMAP
3C00
3C00
3C00
3C00
3C00
FFE0
FFE0
FFE0
3C00
3C00
3C00
3C00
3C00
3C00
3C00
3C00
3C00
3C00
3C00
3E00
1FE0
1FE0
07E0
0000
7FC0
7FC0
7FC0
ENDCHAR
STARTCHAR uni1E70
ENCODING 7792
SWIDTH 633 0
DWIDTH 21 0
BBX 22 31 0 -6
BITMAP
FFFFFC
FFFFFC
FFFFFC
007800
007800
007800
007800
007800
007800
007800
007800
007800
007800
007800
007800
007800
007800
007800
007800
007800
007800
007800
007800
007800
007800
000000
007C00
007C00
00EE00
01C700
038380
ENDCHAR
STARTCHAR uni1E71
ENCODING 7793
SWIDTH 374 0
DWIDTH 13 0
BBX 11 29 1 -6
BITMAP
3C00
3C00
3C00
3C00
3C00
FFE0
FFE0
FFE0
3C00
3C00
3C00
3C00
3C00
3C00
3C00
3C00
3C00
3C00
3C00
3E00
1FE0
1FE0
07E0
0000
1F00
1F00
3B80
71C0
E0E0
ENDCHAR
STARTCHAR uni1E72
ENCODING 7794
SWIDTH 693 0
DWIDTH 24 0
BBX 18 29 3 -4
BITMAP
F001C0
F001C0
F001C0
F001C0
F001C0
F001C0
F001C0
F001C0
F001C0
F001C0
F001C0
F001C0
F001C0
F001C0
F001C0
F001C0
F001C0
F001C0
F001C0
F803C0
780380
7E0780
3FFF00
1FFE00
07F800
000000
0E3800
0E3800
0E3800
ENDCHAR
STARTCHAR uni1E73
ENCODING 7795
SWIDTH 620 0
DWIDTH 21 0
BBX 15 22 3 -4
BITMAP
F01E
F01E
F01E
F01E
F01E
F01E
F01E
F01E
F01E
F01E
F01E
F01E
F03E
F07E
F8FE
7FDE
7F9E
1E1E
0000
1C70
1C70
1C70
ENDCHAR
STARTCHAR uni1E74
ENCODING 7796
SWIDTH 693 0
DWIDTH 24 0
BBX 18 30 3 -5
BITMAP
F001C0
F001C0
F001C0
F001C0
F001C0
F001C0
F001C0
F001C0
F001C0
F001C0
F001C0
F001C0
F001C0
F001C0
F001C0
F001C0
F001C0
F001C0
F001C0
F803C0
780380
7E0780
3FFF00
1FFE00
07F800
000000
0F0C00
1FFC00
1FF800
187000
ENDCHAR
STARTCHAR uni1E75
ENCODING 7797
SWIDTH 620 0
DWIDTH 21 0
BBX 15 23 3 -5
BITMAP
F01E
F01E
F01E
F01E
F01E
F01E
F01E
F01E
F01E
F01E
F01E
F01E
F03E
F07E
F8FE
7FDE
7F9E
1E1E
0000
1E18
3FF8
3FF0
30E0
ENDCHAR
STARTCHAR uni1E76
ENCODING 7798
SWIDTH 693 0
DWIDTH 24 0
BBX 18 31 3 -6
BITMAP
F001C0
F001C0
F001C0
F001C0
F001C0
F001C0
F001C0
F001C0
F001C0
F001C0
F001C0
F001C0
F001C0
F001C0
F001C0
F001C0
F001C0
F001C0
F001C0
F803C0
780380
7E0780
3FFF00
1FFE00
07F800
000000
03E000
03E000
077000
0E3800
1C1C00
ENDCHAR
STARTCHAR uni1E77
ENCODING 7799
SWIDTH 620 0
DWIDTH 21 0
BBX 15 24 3 -6
BITMAP
F01E
F01E
F01E
F01E
F01E
F01E
F01E
F01E
F01E
F01E
F01E
F01E
F03E
F07E
F8FE
7FDE
7F9E
1E1E
0000
07C0
07C0
0EE0
1C70
3838
ENDCHAR
STARTCHAR uni1E78
ENCODING 7800
SWIDTH 693 0
DWIDTH 24 0
BBX 18 36 3 0
BITMAP
007800
00F000
00E000
01C000
038000
000000
0F0C00
1FFC00
1FF800
187000
000000
F001C0
F001C0
F001C0
F001C0
F001C0
F001C0
F001C0
F001C0
F001C0
F001C0
F001C0
F001C0
F001C0
F001C0
F001C0
F001C0
F001C0
F001C0
F001C0
F803C0
780380
7E0780
3FFF00
1FFE00
07F800
ENDCHAR
STARTCHAR uni1E79
ENCODING 7801
SWIDTH 620 0
DWIDTH 21 0
BBX 15 29 3 0
BITMAP
00F0
01E0
01C0
0380
0700
0000
1E18
3FF8
3FF0
30E0
0000
F01E
F01E
F01E
F01E
F01E
F01E
F01E
F01E
F01E
F01E
F01E
F01E
F03E
F07E
F8FE
7FDE
7F9E
1E1E
ENDCHAR
STARTCHAR uni1E7A
ENCODING 7802
SWIDTH 693 0
DWIDTH 24 0
BBX 18 33 3 0
BITMAP
0E3800
0E3800
0E3800
000000
0FF800
0FF800
0FF800
000000
F001C0
F001C0
F001C0
F001C0
F001C0
F001C0
F001C0
F001C0
F001C0
F001C0
F001C0
F001C0
F001C0
F001C0
F001C0
F001C0
F001C0
F001C0
F001C0
F803C0
780380
7E0780
3FFF00
1FFE00
07F800
ENDCHAR
STARTCHAR uni1E7B
ENCODING 7803
SWIDTH 620 0
DWIDTH 21 0
BBX 15 26 3 0
BITMAP
1C70
1C70
1C70
0000
1FF0
1FF0
1FF0
0000
F01E
F01E
F01E
F01E
F01E
F01E
F01E
F01E
F01E
F01E
F01E
F01E
F03E
F07E
F8FE
7FDE
7F9E
1E1E
ENDCHAR
STARTCHAR uni1E7C
ENCODING 7804
SWIDTH 654 0
DWIDTH 22 0
BBX 21 30 1 0
BITMAP
03C300
07FF00
07FE00
061C00
000000
F00038
F00078
F80070
780070
7800F0
3C00E0
3C00E0
3E01C0
1E01C0
1E01C0
1F0380
0F0380
0F0380
0F8700
078700
078700
03CE00
03CE00
03FE00
01FC00
01FC00
01FC00
00F800
00F800
00F000
ENDCHAR
STARTCHAR uni1E7D
ENCODING 7805
SWIDTH 572 0
DWIDTH 18 0
BBX 17 23 0 0
BITMAP
0F0C00
1FFC00
1FF800
187000
000000
F00380
F00780
F80700
780F00
780E00
3C0E00
3C1E00
3E1C00
1E1C00
1E3800
1F3800
0F7800
0F7000
0FF000
07E000
07E000
03E000
03C000
ENDCHAR
STARTCHAR uni1E7E
ENCODING 7806
SWIDTH 654 0
DWIDTH 22 0
BBX 21 30 1 -5
BITMAP
F00038
F00078
F80070
780070
7800F0
3C00E0
3C00E0
3E01C0
1E01C0
1E01C0
1F0380
0F0380
0F0380
0F8700
078700
078700
03CE00
03CE00
03FE00
01FC00
01FC00
01FC00
00F800
00F800
00F000
000000
007000
007000
007000
007000
ENDCHAR
STARTCHAR uni1E7F
ENCODING 7807
SWIDTH 572 0
DWIDTH 18 0
BBX 17 23 0 -5
BITMAP
F00380
F00780
F80700
780F00
780E00
3C0E00
3C1E00
3E1C00
1E1C00
1E3800
1F3800
0F7800
0F7000
0FF000
07E000
07E000
03E000
03C000
000000
01C000
01C000
01C000
01C000
ENDCHAR
STARTCHAR Wgrave
ENCODING 7808
SWIDTH 855 0
DWIDTH 29 0
BBX 29 31 0 0
BITMAP
003C0000
001E0000
000E0000
00070000
00038000
00000000
F0078038
F00F8038
F00F8070
780F8070
780FC070
781FC0F0
781FC0E0
3C1FC0E0
3C1FE0E0
3C1DE1E0
3C39E1C0
1E39E1C0
1E39F1C0
1E38F380
1E70F380
0F70F380
0F70FB80
0F707F00
0FF07F00
07E07F00
07E07E00
07E07E00
07E03E00
03C03E00
03C03C00
ENDCHAR
STARTCHAR wgrave
ENCODING 7809
SWIDTH 840 0
DWIDTH 26 0
BBX 26 24 0 0
BITMAP
00780000
003C0000
001C0000
000E0000
00070000
00000000
E01E01C0
F01E03C0
703F0380
703F0380
703F0780
383F0700
38738700
38738F00
3C738E00
1CE38E00
1CE1DE00
1CE1DC00
0FE1DC00
0FC1FC00
0FC0F800
0FC0F800
0780F800
0780F000
ENDCHAR
STARTCHAR Wacute
ENCODING 7810
SWIDTH 855 0
DWIDTH 29 0
BBX 29 31 0 0
BITMAP
0001E000
0003C000
00038000
00070000
000E0000
00000000
F0078038
F00F8038
F00F8070
780F8070
780FC070
781FC0F0
781FC0E0
3C1FC0E0
3C1FE0E0
3C1DE1E0
3C39E1C0
1E39E1C0
1E39F1C0
1E38F380
1E70F380
0F70F380
0F70FB80
0F707F00
0FF07F00
07E07F00
07E07E00
07E07E00
07E03E00
03C03E00
03C03C00
ENDCHAR
STARTCHAR wacute
ENCODING 7811
SWIDTH 840 0
DWIDTH 26 0
BBX 26 24 0 0
BITMAP
0003C000
00078000
00070000
000E0000
001C0000
00000000
E01E01C0
F01E03C0
703F0380
703F0380
703F0780
383F0700
38738700
38738F00
3C738E00
1CE38E00
1CE1DE00
1CE1DC00
0FE1DC00
0FC1FC00
0FC0F800
0FC0F800
0780F800
0780F000
ENDCHAR
STARTCHAR Wdieresis
ENCODING 7812
SWIDTH 855 0
DWIDTH 29 0
BBX 29 29 0 0
BITMAP
0038E000
0038E000
0038E000
00000000
F0078038
F00F8038
F00F8070
780F8070
780FC070
781FC0F0
781FC0E0
3C1FC0E0
3C1FE0E0
3C1DE1E0
3C39E1C0
1E39E1C0
1E39F1C0
1E38F380
1E70F380
0F70F380
0F70FB80
0F707F00
0FF07F00
07E07F00
07E07E00
07E07E00
07E03E00
03C03E00
03C03C00
ENDCHAR
STARTCHAR wdieresis
ENCODING 7813
SWIDTH 840 0
DWIDTH 26 0
BBX 26 22 0 0
BITMAP
0071C000
0071C000
0071C000
00000000
E01E01C0
F01E03C0
703F0380
703F0380
703F0780
383F0700
38738700
38738F00
3C738E00
1CE38E00
1CE1DE00
1CE1DC00
0FE1DC00
0FC1FC00
0FC0F800
0FC0F800
0780F800
0780F000
ENDCHAR
STARTCHAR uni1E86
ENCODING 7814
SWIDTH 855 0
DWIDTH 29 0
BBX 29 30 0 0
BITMAP
00070000
00070000
00070000
00070000
00000000
F0078038
F00F8038
F00F8070
780F8070
780FC070
781FC0F0
781FC0E0
3C1FC0E0
3C1FE0E0
3C1DE1E0
3C39E1C0
1E39E1C0
1E39F1C0
1E38F380
1E70F380
0F70F380
0F70FB80
0F707F00
0FF07F00
07E07F00
07E07E00
07E07E00
07E03E00
03C03E00
03C03C00
ENDCHAR
STARTCHAR uni1E87
ENCODING 7815
SWIDTH 840 0
DWIDTH 26 0
BBX 26 23 0 0
BITMAP
000E0000
000E0000
000E0000
000E0000
00000000
E01E01C0
F01E03C0
703F0380
703F0380
703F0780
383F0700
38738700
38738F00
3C738E00
1CE38E00
1CE1DE00
1CE1DC00
0FE1DC00
0FC1FC00
0FC0F800
0FC0F800
0780F800
0780F000
ENDCHAR
STARTCHAR uni1E88
ENCODING 7816
SWIDTH 855 0
DWIDTH 29 0
BBX 29 30 0 -5
BITMAP
F0078038
F00F8038
F00F8070
780F8070
780FC070
781FC0F0
781FC0E0
3C1FC0E0
3C1FE0E0
3C1DE1E0
3C39E1C0
1E39E1C0
1E39F1C0
1E38F380
1E70F380
0F70F380
0F70FB80
0F707F00
0FF07F00
07E07F00
07E07E00
07E07E00
07E03E00
03C03E00
03C03C00
00000000
00070000
00070000
00070000
00070000
ENDCHAR
STARTCHAR uni1E89
ENCODING 7817
SWIDTH 840 0
DWIDTH 26 0
BBX 26 23 0 -5
BITMAP
E01E01C0
F01E03C0
703F0380
703F0380
703F0780
383F0700
38738700
38738F00
3C738E00
1CE38E00
1CE1DE00
1CE1DC00
0FE1DC00
0FC1FC00
0FC0F800
0FC0F800
0780F800
0780F000
00000000
001C0000
001C0000
001C0000
001C0000
ENDCHAR
STARTCHAR uni1E8A
ENCODING 7818
SWIDTH 626 0
DWIDTH 21 0
BBX 20 30 0 0
BITMAP
00E000
00E000
00E000
00E000
000000
F800F0
7C01E0
3C01C0
3E03C0
1F0780
1F0700
0F8F00
079E00
07DC00
03FC00
01F800
01F000
00F800
01F800
01FC00
03FC00
07BE00
071F00
0F0F00
1E0F80
1C07C0
3C07C0
7803E0
7001E0
F001F0
ENDCHAR
STARTCHAR uni1E8B
ENCODING 7819
SWIDTH 613 0
DWIDTH 21 0
BBX 18 23 1 0
BITMAP
00E000
00E000
00E000
00E000
000000
F003C0
780780
3C0F00
1E0E00
0F1E00
073C00
07B800
03F800
01F000
03E000
07F000
077800
0F3C00
1E1C00
3C1E00
380F00
780780
F003C0
ENDCHAR
STARTCHAR uni1E8C
ENCODING 7820
SWIDTH 626 0
DWIDTH 21 0
BBX 20 29 0 0
BITMAP
071C00
071C00
071C00
000000
F800F0
7C01E0
3C01C0
3E03C0
1F0780
1F0700
0F8F00
079E00
07DC00
03FC00
01F800
01F000
00F800
01F800
01FC00
03FC00
07BE00
071F00
0F0F00
1E0F80
1C07C0
3C07C0
7803E0
7001E0
F001F0
ENDCHAR
STARTCHAR uni1E8D
ENCODING 7821
SWIDTH 613 0
DWIDTH 21 0
BBX 18 22 1 0
BITMAP
071C00
071C00
071C00
000000
F003C0
780780
3C0F00
1E0E00
0F1E00
073C00
07B800
03F800
01F000
03E000
07F000
077800
0F3C00
1E1C00
3C1E00
380F00
780780
F003C0
ENDCHAR
STARTCHAR uni1E8E
ENCODING 7822
SWIDTH 623 0
DWIDTH 21 0
BBX 21 30 0 0
BITMAP
007000
007000
007000
007000
000000
F00078
780070
7C00F0
3C01E0
3E01C0
1E03C0
1F0380
0F8700
078F00
07CE00
03DE00
03FC00
01F800
01F800
00F000
00F000
00F000
00F000
00F000
00F000
00F000
00F000
00F000
00F000
00F000
ENDCHAR
STARTCHAR uni1E8F
ENCODING 7823
SWIDTH 568 0
DWIDTH 18 0
BBX 17 30 0 -7
BITMAP
01C000
01C000
01C000
01C000
000000
F00380
F80700
780700
780700
7C0E00
3C0E00
3C1E00
3E1C00
1E1C00
1E3800
1F3800
0F7800
0F7000
07F000
07E000
07E000
03E000
03C000
03C000
03C000
038000
078000
070000
070000
0F0000
ENDCHAR
STARTCHAR uni1E90
ENCODING 7824
SWIDTH 605 0
DWIDTH 21 0
BBX 17 31 2 0
BITMAP
01F000
01F000
03B800
071C00
0E0E00
000000
7FFF80
7FFF80
7FFF80
000F80
001F00
001F00
003E00
007C00
007C00
00F800
01F000
01F000
03E000
07C000
07C000
0F8000
1F0000
1F0000
3E0000
7C0000
7C0000
F80000
FFFF80
FFFF80
FFFF80
ENDCHAR
STARTCHAR uni1E91
ENCODING 7825
SWIDTH 573 0
DWIDTH 19 0
BBX 15 24 2 0
BITMAP
03E0
03E0
0770
0E38
1C1C
0000
7FFE
7FFE
7FFE
003C
0078
00F0
00F0
01E0
03C0
0780
0F00
1E00
3C00
3C00
7800
FFFE
FFFE
FFFE
ENDCHAR
STARTCHAR uni1E92
ENCODING 7826
SWIDTH 605 0
DWIDTH 21 0
BBX 17 30 2 -5
BITMAP
7FFF80
7FFF80
7FFF80
000F80
001F00
001F00
003E00
007C00
007C00
00F800
01F000
01F000
03E000
07C000
07C000
0F8000
1F0000
1F0000
3E0000
7C0000
7C0000
F80000
FFFF80
FFFF80
FFFF80
000000
038000
038000
038000
038000
ENDCHAR
STARTCHAR uni1E93
ENCODING 7827
SWIDTH 573 0
DWIDTH 19 0
BBX 15 23 2 -5
BITMAP
7FFE
7FFE
7FFE
003C
0078
00F0
00F0
01E0
03C0
0780
0F00
1E00
3C00
3C00
7800
FFFE
FFFE
FFFE
0000
0380
0380
0380
0380
ENDCHAR
STARTCHAR uni1E94
ENCODING 7828
SWIDTH 605 0
DWIDTH 21 0
BBX 17 29 2 -4
BITMAP
7FFF80
7FFF80
7FFF80
000F80
001F00
001F00
003E00
007C00
007C00
00F800
01F000
01F000
03E000
07C000
07C000
0F8000
1F0000
1F0000
3E0000
7C0000
7C0000
F80000
FFFF80
FFFF80
FFFF80
000000
1FF000
1FF000
1FF000
ENDCHAR
STARTCHAR uni1E95
ENCODING 7829
SWIDTH 573 0
DWIDTH 19 0
BBX 15 22 2 -4
BITMAP
7FFE
7FFE
7FFE
003C
0078
00F0
00F0
01E0
03C0
0780
0F00
1E00
3C00
3C00
7800
FFFE
FFFE
FFFE
0000
1FF0
1FF0
1FF0
ENDCHAR
STARTCHAR uni1E96
ENCODING 7830
SWIDTH 620 0
DWIDTH 21 0
BBX 15 30 3 -4
BITMAP
F000
F000
F000
F000
F000
F000
F000
F000
F0F0
F3FC
F7FC
FE3E
FC1E
F81E
F01E
F01E
F01E
F01E
F01E
F01E
F01E
F01E
F01E
F01E
F01E
F01E
0000
1FF0
1FF0
1FF0
ENDCHAR
STARTCHAR uni1E97
ENCODING 7831
SWIDTH 374 0
DWIDTH 13 0
BBX 11 27 1 0
BITMAP
E380
E380
E380
0000
3C00
3C00
3C00
3C00
3C00
FFE0
FFE0
FFE0
3C00
3C00
3C00
3C00
3C00
3C00
3C00
3C00
3C00
3C00
3C00
3E00
1FE0
1FE0
07E0
ENDCHAR
STARTCHAR uni1E98
ENCODING 7832
SWIDTH 840 0
DWIDTH 26 0
BBX 26 24 0 0
BITMAP
000E0000
001B0000
00110000
001B0000
000E0000
00000000
E01E01C0
F01E03C0
703F0380
703F0380
703F0780
383F0700
38738700
38738F00
3C738E00
1CE38E00
1CE1DE00
1CE1DC00
0FE1DC00
0FC1FC00
0FC0F800
0FC0F800
0780F800
0780F000
ENDCHAR
STARTCHAR uni1E99
ENCODING 7833
SWIDTH 568 0
DWIDTH 18 0
BBX 17 31 0 -7
BITMAP
01C000
036000
022000
036000
01C000
000000
F00380
F80700
780700
780700
7C0E00
3C0E00
3C1E00
3E1C00
1E1C00
1E3800
1F3800
0F7800
0F7000
07F000
07E000
07E000
03E000
03C000
03C000
03C000
038000
078000
070000
070000
0F0000
ENDCHAR
STARTCHAR uni1EA0
ENCODING 7840
SWIDTH 690 0
DWIDTH 23 0
BBX 23 30 0 -5
BITMAP
003C00
007C00
007E00
00FE00
00FE00
00FF00
01EF00
01CF80
03C780
038780
0387C0
0783C0
0703C0
0F01E0
0E01E0
0FFFF0
1FFFF0
1FFFF0
1C00F8
380078
38007C
78003C
70003C
70003E
E0001E
000000
001C00
001C00
001C00
001C00
ENDCHAR
STARTCHAR uni1EA1
ENCODING 7841
SWIDTH 552 0
DWIDTH 19 0
BBX 17 23 1 -5
BITMAP
07F000
3FF800
3FFC00
307C00
203C00
003C00
003C00
07FC00
1FFC00
7FFC00
7C3C00
F83C00
F03C00
F03C00
F87C00
7FFF80
7FCF80
1F0780
000000
01C000
01C000
01C000
01C000
ENDCHAR
STARTCHAR uni1EA4
ENCODING 7844
SWIDTH 690 0
DWIDTH 23 0
BBX 23 38 0 0
BITMAP
000F00
001E00
001C00
003800
007000
000000
007C00
007C00
00EE00
01C700
038380
000000
000000
003C00
007C00
007E00
00FE00
00FE00
00FF00
01EF00
01CF80
03C780
038780
0387C0
0783C0
0703C0
0F01E0
0E01E0
0FFFF0
1FFFF0
1FFFF0
1C00F8
380078
38007C
78003C
70003C
70003E
E0001E
ENDCHAR
STARTCHAR uni1EA5
ENCODING 7845
SWIDTH 552 0
DWIDTH 19 0
BBX 17 31 1 0
BITMAP
007800
00F000
00E000
01C000
038000
000000
03E000
03E000
077000
0E3800
1C1C00
000000
000000
07F000
3FF800
3FFC00
307C00
203C00
003C00
003C00
07FC00
1FFC00
7FFC00
7C3C00
F83C00
F03C00
F03C00
F87C00
7FFF80
7FCF80
1F0780
ENDCHAR
STARTCHAR uni1EA6
ENCODING 7846
SWIDTH 690 0
DWIDTH 23 0
BBX 23 38 0 0
BITMAP
01E000
00F000
007000
003800
001C00
000000
007C00
007C00
00EE00
01C700
038380
000000
000000
003C00
007C00
007E00
00FE00
00FE00
00FF00
01EF00
01CF80
03C780
038780
0387C0
0783C0
0703C0
0F01E0
0E01E0
0FFFF0
1FFFF0
1FFFF0
1C00F8
380078
38007C
78003C
70003C
70003E
E0001E
ENDCHAR
STARTCHAR uni1EA7
ENCODING 7847
SWIDTH 552 0
DWIDTH 19 0
BBX 17 31 1 0
BITMAP
0F0000
078000
038000
01C000
00E000
000000
03E000
03E000
077000
0E3800
1C1C00
000000
000000
07F000
3FF800
3FFC00
307C00
203C00
003C00
003C00
07FC00
1FFC00
7FFC00
7C3C00
F83C00
F03C00
F03C00
F87C00
7FFF80
7FCF80
1F0780
ENDCHAR
STARTCHAR uni1EAA
ENCODING 7850
SWIDTH 690 0
DWIDTH 23 0
BBX 23 37 0 0
BITMAP
01E180
03FF80
03FF00
030E00
000000
007C00
007C00
00EE00
01C700
038380
000000
000000
003C00
007C00
007E00
00FE00
00FE00
00FF00
01EF00
01CF80
03C780
038780
0387C0
0783C0
0703C0
0F01E0
0E01E0
0FFFF0
1FFFF0
1FFFF0
1C00F8
380078
38007C
78003C
70003C
70003E
E0001E
ENDCHAR
STARTCHAR uni1EAB
ENCODING 7851
SWIDTH 552 0
DWIDTH 19 0
BBX 17 30 1 0
BITMAP
0F0C00
1FFC00
1FF800
187000
000000
03E000
03E000
077000
0E3800
1C1C00
000000
000000
07F000
3FF800
3FFC00
307C00
203C00
003C00
003C00
07FC00
1FFC00
7FFC00
7C3C00
F83C00
F03C00
F03C00
F87C00
7FFF80
7FCF80
1F0780
ENDCHAR
STARTCHAR uni1EAC
ENCODING 7852
SWIDTH 690 0
DWIDTH 23 0
BBX 23 36 0 -5
BITMAP
007C00
007C00
00EE00
01C700
038380
000000
003C00
007C00
007E00
00FE00
00FE00
00FF00
01EF00
01CF80
03C780
038780
0387C0
0783C0
0703C0
0F01E0
0E01E0
0FFFF0
1FFFF0
1FFFF0
1C00F8
380078
38007C
78003C
70003C
70003E
E0001E
000000
001C00
001C00
001C00
001C00
ENDCHAR
STARTCHAR uni1EAD
ENCODING 7853
SWIDTH 552 0
DWIDTH 19 0
BBX 17 29 1 -5
BITMAP
03E000
03E000
077000
0E3800
1C1C00
000000
07F000
3FF800
3FFC00
307C00
203C00
003C00
003C00
07FC00
1FFC00
7FFC00
7C3C00
F83C00
F03C00
F03C00
F87C00
7FFF80
7FCF80
1F0780
000000
01C000
01C000
01C000
01C000
ENDCHAR
STARTCHAR uni1EAE
ENCODING 7854
SWIDTH 690 0
DWIDTH 23 0
BBX 23 37 0 0
BITMAP
000F00
001E00
001C00
003800
007000
000000
030180
038380
01FF00
00FE00
007C00
000000
003C00
007C00
007E00
00FE00
00FE00
00FF00
01EF00
01CF80
03C780
038780
0387C0
0783C0
0703C0
0F01E0
0E01E0
0FFFF0
1FFFF0
1FFFF0
1C00F8
380078
38007C
78003C
70003C
70003E
E0001E
ENDCHAR
STARTCHAR uni1EAF
ENCODING 7855
SWIDTH 552 0
DWIDTH 19 0
BBX 17 30 1 0
BITMAP
007800
00F000
00E000
01C000
038000
000000
180C00
1C1C00
0FF800
07F000
03E000
000000
07F000
3FF800
3FFC00
307C00
203C00
003C00
003C00
07FC00
1FFC00
7FFC00
7C3C00
F83C00
F03C00
F03C00
F87C00
7FFF80
7FCF80
1F0780
ENDCHAR
STARTCHAR uni1EB0
ENCODING 7856
SWIDTH 690 0
DWIDTH 23 0
BBX 23 37 0 0
BITMAP
01E000
00F000
007000
003800
001C00
000000
030180
038380
01FF00
00FE00
007C00
000000
003C00
007C00
007E00
00FE00
00FE00
00FF00
01EF00
01CF80
03C780
038780
0387C0
0783C0
0703C0
0F01E0
0E01E0
0FFFF0
1FFFF0
1FFFF0
1C00F8
380078
38007C
78003C
70003C
70003E
E0001E
ENDCHAR
STARTCHAR uni1EB1
ENCODING 7857
SWIDTH 552 0
DWIDTH 19 0
BBX 17 30 1 0
BITMAP
0F0000
078000
038000
01C000
00E000
000000
180C00
1C1C00
0FF800
07F000
03E000
000000
07F000
3FF800
3FFC00
307C00
203C00
003C00
003C00
07FC00
1FFC00
7FFC00
7C3C00
F83C00
F03C00
F03C00
F87C00
7FFF80
7FCF80
1F0780
ENDCHAR
STARTCHAR uni1EB4
ENCODING 7860
SWIDTH 690 0
DWIDTH 23 0
BBX 23 36 0 0
BITMAP
01E180
03FF80
03FF00
030E00
000000
030180
038380
01FF00
00FE00
007C00
000000
003C00
007C00
007E00
00FE00
00FE00
00FF00
01EF00
01CF80
03C780
038780
0387C0
0783C0
0703C0
0F01E0
0E01E0
0FFFF0
1FFFF0
1FFFF0
1C00F8
380078
38007C
78003C
70003C
70003E
E0001E
ENDCHAR
STARTCHAR uni1EB5
ENCODING 7861
SWIDTH 552 0
DWIDTH 19 0
BBX 17 29 1 0
BITMAP
0F0C00
1FFC00
1FF800
187000
000000
180C00
1C1C00
0FF800
07F000
03E000
000000
07F000
3FF800
3FFC00
307C00
203C00
003C00
003C00
07FC00
1FFC00
7FFC00
7C3C00
F83C00
F03C00
F03C00
F87C00
7FFF80
7FCF80
1F0780
ENDCHAR
STARTCHAR uni1EB6
ENCODING 7862
SWIDTH 690 0
DWIDTH 23 0
BBX 23 36 0 -5
BITMAP
030180
038380
01FF00
00FE00
007C00
000000
003C00
007C00
007E00
00FE00
00FE00
00FF00
01EF00
01CF80
03C780
038780
0387C0
0783C0
0703C0
0F01E0
0E01E0
0FFFF0
1FFFF0
1FFFF0
1C00F8
380078
38007C
78003C
70003C
70003E
E0001E
000000
001C00
001C00
001C00
001C00
ENDCHAR
STARTCHAR uni1EB7
ENCODING 7863
SWIDTH 552 0
DWIDTH 19 0
BBX 17 29 1 -5
BITMAP
180C00
1C1C00
0FF800
07F000
03E000
000000
07F000
3FF800
3FFC00
307C00
203C00
003C00
003C00
07FC00
1FFC00
7FFC00
7C3C00
F83C00
F03C00
F03C00
F87C00
7FFF80
7FCF80
1F0780
000000
01C000
01C000
01C000
01C000
ENDCHAR
STARTCHAR uni1EB8
ENCODING 7864
SWIDTH 542 0
DWIDTH 18 0
BBX 15 30 3 -5
BITMAP
FFFC
FFFC
FFFC
F000
F000
F000
F000
F000
F000
F000
F000
FFF8
FFF8
FFF8
F000
F000
F000
F000
F000
F000
F000
F000
FFFE
FFFE
FFFE
0000
0700
0700
0700
0700
ENDCHAR
STARTCHAR uni1EB9
ENCODING 7865
SWIDTH 557 0
DWIDTH 19 0
BBX 15 23 2 -5
BITMAP
07E0
1FF0
3FF8
3C3C
781C
701E
F01E
FFFE
FFFE
FFFE
F000
F000
7800
7C00
3E06
1FFE
0FFE
03F8
0000
01C0
01C0
01C0
01C0
ENDCHAR
STARTCHAR uni1EBC
ENCODING 7868
SWIDTH 542 0
DWIDTH 18 0
BBX 15 30 3 0
BITMAP
3C30
7FF0
7FE0
61C0
0000
FFFC
FFFC
FFFC
F000
F000
F000
F000
F000
F000
F000
F000
FFF8
FFF8
FFF8
F000
F000
F000
F000
F000
F000
F000
F000
FFFE
FFFE
FFFE
ENDCHAR
STARTCHAR uni1EBD
ENCODING 7869
SWIDTH 557 0
DWIDTH 19 0
BBX 15 23 2 0
BITMAP
1E18
3FF8
3FF0
30E0
0000
07E0
1FF0
3FF8
3C3C
781C
701E
F01E
FFFE
FFFE
FFFE
F000
F000
7800
7C00
3E06
1FFE
0FFE
03F8
ENDCHAR
STARTCHAR uni1EBE
ENCODING 7870
SWIDTH 542 0
DWIDTH 18 0
BBX 15 38 3 0
BITMAP
00F0
01E0
01C0
0380
0700
0000
0F80
0F80
1DC0
38E0
7070
0000
0000
FFFC
FFFC
FFFC
F000
F000
F000
F000
F000
F000
F000
F000
FFF8
FFF8
FFF8
F000
F000
F000
F000
F000
F000
F000
F000
FFFE
FFFE
FFFE
ENDCHAR
STARTCHAR uni1EBF
ENCODING 7871
SWIDTH 557 0
DWIDTH 19 0
BBX 15 31 2 0
BITMAP
00F0
01E0
01C0
0380
0700
0000
07C0
07C0
0EE0
1C70
3838
0000
0000
07E0
1FF0
3FF8
3C3C
781C
701E
F01E
FFFE
FFFE
FFFE
F000
F000
7800
7C00
3E06
1FFE
0FFE
03F8
ENDCHAR
STARTCHAR uni1EC0
ENCODING 7872
SWIDTH 542 0
DWIDTH 18 0
BBX 15 38 3 0
BITMAP
1E00
0F00
0700
0380
01C0
0000
0F80
0F80
1DC0
38E0
7070
0000
0000
FFFC
FFFC
FFFC
F000
F000
F000
F000
F000
F000
F000
F000
FFF8
FFF8
FFF8
F000
F000
F000
F000
F000
F000
F000
F000
FFFE
FFFE
FFFE
ENDCHAR
STARTCHAR uni1EC1
ENCODING 7873
SWIDTH 557 0
DWIDTH 19 0
BBX 15 31 2 0
BITMAP
1E00
0F00
0700
0380
01C0
0000
07C0
07C0
0EE0
1C70
3838
0000
0000
07E0
1FF0
3FF8
3C3C
781C
701E
F01E
FFFE
FFFE
FFFE
F000
F000
7800
7C00
3E06
1FFE
0FFE
03F8
ENDCHAR
STARTCHAR uni1EC4
ENCODING 7876
SWIDTH 542 0
DWIDTH 18 0
BBX 15 37 3 0
BITMAP
1E18
3FF8
3FF0
30E0
0000
0F80
0F80
1DC0
38E0
7070
0000
0000
FFFC
FFFC
FFFC
F000
F000
F000
F000
F000
F000
F000
F000
FFF8
FFF8
FFF8
F000
F000
F000
F000
F000
F000
F000
F000
FFFE
FFFE
FFFE
ENDCHAR
STARTCHAR uni1EC5
ENCODING 7877
SWIDTH 557 0
DWIDTH 19 0
BBX 15 30 2 0
BITMAP
1E18
3FF8
3FF0
30E0
0000
07C0
07C0
0EE0
1C70
3838
0000
0000
07E0
1FF0
3FF8
3C3C
781C
701E
F01E
FFFE
FFFE
FFFE
F000
F000
7800
7C00
3E06
1FFE
0FFE
03F8
ENDCHAR
STARTCHAR uni1EC6
ENCODING 7878
SWIDTH 542 0
DWIDTH 18 0
BBX 15 36 3 -5
BITMAP
0F80
0F80
1DC0
38E0
7070
0000
FFFC
FFFC
FFFC
F000
F000
F000
F000
F000
F000
F000
F000
FFF8
FFF8
FFF8
F000
F000
F000
F000
F000
F000
F000
F000
FFFE
FFFE
FFFE
0000
0700
0700
0700
0700
ENDCHAR
STARTCHAR uni1EC7
ENCODING 7879
SWIDTH 557 0
DWIDTH 19 0
BBX 15 29 2 -5
BITMAP
07C0
07C0
0EE0
1C70
3838
0000
07E0
1FF0
3FF8
3C3C
781C
701E
F01E
FFFE
FFFE
FFFE
F000
F000
7800
7C00
3E06
1FFE
0FFE
03F8
0000
01C0
01C0
01C0
01C0
ENDCHAR
STARTCHAR uni1ECA
ENCODING 7882
SWIDTH 288 0
DWIDTH 10 0
BBX 4 30 3 -5
BITMAP
F0
F0
F0
F0
F0
F0
F0
F0
F0
F0
F0
F0
F0
F0
F0
F0
F0
F0
F0
F0
F0
F0
F0
F0
F0
00
70
70
70
70
ENDCHAR
STARTCHAR uni1ECB
ENCODING 7883
SWIDTH 289 0
DWIDTH 10 0
BBX 4 30 3 -5
BITMAP
F0
F0
F0
F0
00
00
00
F0
F0
F0
F0
F0
F0
F0
F0
F0
F0
F0
F0
F0
F0
F0
F0
F0
F0
00
70
70
70
70
ENDCHAR
STARTCHAR uni1ECC
ENCODING 7884
SWIDTH 777 0
DWIDTH 26 0
BBX 23 30 2 -5
BITMAP
00FE00
07FFC0
0FFFE0
1F83F0
3E00F8
3C0078
78003C
78003C
F8003E
F0001E
F0001E
F0001E
F0001E
F0001E
F0001E
F0001E
F8003E
78003C
78003C
3C0078
3E00F8
1F83F0
0FFFE0
07FFC0
00FE00
000000
003800
003800
003800
003800
ENDCHAR
STARTCHAR uni1ECD
ENCODING 7885
SWIDTH 614 0
DWIDTH 21 0
BBX 17 23 2 -5
BITMAP
07F000
1FFC00
3FFE00
7C1F00
780F00
780F00
F00780
F00780
F00780
F00780
F00780
F00780
780F00
780F00
7C1F00
3FFE00
1FFC00
07F000
000000
01C000
01C000
01C000
01C000
ENDCHAR
STARTCHAR uni1ED0
ENCODING 7888
SWIDTH 777 0
DWIDTH 26 0
BBX 23 38 2 0
BITMAP
000F00
001E00
001C00
003800
007000
000000
007C00
007C00
00EE00
01C700
038380
000000
000000
00FE00
07FFC0
0FFFE0
1F83F0
3E00F8
3C0078
78003C
78003C
F8003E
F0001E
F0001E
F0001E
F0001E
F0001E
F0001E
F0001E
F8003E
78003C
78003C
3C0078
3E00F8
1F83F0
0FFFE0
07FFC0
00FE00
ENDCHAR
STARTCHAR uni1ED1
ENCODING 7889
SWIDTH 614 0
DWIDTH 21 0
BBX 17 31 2 0
BITMAP
007800
00F000
00E000
01C000
038000
000000
03E000
03E000
077000
0E3800
1C1C00
000000
000000
07F000
1FFC00
3FFE00
7C1F00
780F00
780F00
F00780
F00780
F00780
F00780
F00780
F00780
780F00
780F00
7C1F00
3FFE00
1FFC00
07F000
ENDCHAR
STARTCHAR uni1ED2
ENCODING 7890
SWIDTH 777 0
DWIDTH 26 0
BBX 23 38 2 0
BITMAP
01E000
00F000
007000
003800
001C00
000000
007C00
007C00
00EE00
01C700
038380
000000
000000
00FE00
07FFC0
0FFFE0
1F83F0
3E00F8
3C0078
78003C
78003C
F8003E
F0001E
F0001E
F0001E
F0001E
F0001E
F0001E
F0001E
F8003E
78003C
78003C
3C0078
3E00F8
1F83F0
0FFFE0
07FFC0
00FE00
ENDCHAR
STARTCHAR uni1ED3
ENCODING 7891
SWIDTH 614 0
DWIDTH 21 0
BBX 17 31 2 0
BITMAP
0F0000
078000
038000
01C000
00E000
000000
03E000
03E000
077000
0E3800
1C1C00
000000
000000
07F000
1FFC00
3FFE00
7C1F00
780F00
780F00
F00780
F00780
F00780
F00780
F00780
F00780
780F00
780F00
7C1F00
3FFE00
1FFC00
07F000
ENDCHAR
STARTCHAR uni1ED6
ENCODING 7894
SWIDTH 777 0
DWIDTH 26 0
BBX 23 37 2 0
BITMAP
01E180
03FF80
03FF00
030E00
000000
007C00
007C00
00EE00
01C700
038380
000000
000000
00FE00
07FFC0
0FFFE0
1F83F0
3E00F8
3C0078
78003C
78003C
F8003E
F0001E
F0001E
F0001E
F0001E
F0001E
F0001E
F0001E
F8003E
78003C
78003C
3C0078
3E00F8
1F83F0
0FFFE0
07FFC0
00FE00
ENDCHAR
STARTCHAR uni1ED7
ENCODING 7895
SWIDTH 614 0
DWIDTH 21 0
BBX 17 30 2 0
BITMAP
0F0C00
1FFC00
1FF800
187000
000000
03E000
03E000
077000
0E3800
1C1C00
000000
000000
07F000
1FFC00
3FFE00
7C1F00
780F00
780F00
F00780
F00780
F00780
F00780
F00780
F00780
780F00
780F00
7C1F00
3FFE00
1FFC00
07F000
ENDCHAR
STARTCHAR uni1ED8
ENCODING 7896
SWIDTH 777 0
DWIDTH 26 0
BBX 23 36 2 -5
BITMAP
007C00
007C00
00EE00
01C700
038380
000000
00FE00
07FFC0
0FFFE0
1F83F0
3E00F8
3C0078
78003C
78003C
F8003E
F0001E
F0001E
F0001E
F0001E
F0001E
F0001E
F0001E
F8003E
78003C
78003C
3C0078
3E00F8
1F83F0
0FFFE0
07FFC0
00FE00
000000
003800
003800
003800
003800
ENDCHAR
STARTCHAR uni1ED9
ENCODING 7897
SWIDTH 614 0
DWIDTH 21 0
BBX 17 29 2 -5
BITMAP
03E000
03E000
077000
0E3800
1C1C00
000000
07F000
1FFC00
3FFE00
7C1F00
780F00
780F00
F00780
F00780
F00780
F00780
F00780
F00780
780F00
780F00
7C1F00
3FFE00
1FFC00
07F000
000000
01C000
01C000
01C000
01C000
ENDCHAR
STARTCHAR uni1EDA
ENCODING 7898
SWIDTH 777 0
DWIDTH 26 0
BBX 26 31 2 0
BITMAP
0001E000
0003C000
00038000
00070000
000E0000
00000000
00FE07C0
07FFC7C0
0FFFE7C0
1F83F7C0
3E00F9C0
3C0079C0
78003DC0
78003D80
F8003F80
F0001E00
F0001E00
F0001E00
F0001E00
F0001E00
F0001E00
F0001E00
F8003E00
78003C00
78003C00
3C007800
3E00F800
1F83F000
0FFFE000
07FFC000
00FE0000
ENDCHAR
STARTCHAR uni1EDB
ENCODING 7899
SWIDTH 614 0
DWIDTH 21 0
BBX 20 24 2 0
BITMAP
001E00
003C00
003800
007000
00E000
000000
07F1F0
1FFDF0
3FFFF0
7C1FF0
780F70
780F70
F007F0
F007E0
F007E0
F00780
F00780
F00780
780F00
780F00
7C1F00
3FFE00
1FFC00
07F000
ENDCHAR
STARTCHAR uni1EDC
ENCODING 7900
SWIDTH 777 0
DWIDTH 26 0
BBX 26 31 2 0
BITMAP
003C0000
001E0000
000E0000
00070000
00038000
00000000
00FE07C0
07FFC7C0
0FFFE7C0
1F83F7C0
3E00F9C0
3C0079C0
78003DC0
78003D80
F8003F80
F0001E00
F0001E00
F0001E00
F0001E00
F0001E00
F0001E00
F0001E00
F8003E00
78003C00
78003C00
3C007800
3E00F800
1F83F000
0FFFE000
07FFC000
00FE0000
ENDCHAR
STARTCHAR uni1EDD
ENCODING 7901
SWIDTH 614 0
DWIDTH 21 0
BBX 20 24 2 0
BITMAP
03C000
01E000
00E000
007000
003800
000000
07F1F0
1FFDF0
3FFFF0
7C1FF0
780F70
780F70
F007F0
F007E0
F007E0
F00780
F00780
F00780
780F00
780F00
7C1F00
3FFE00
1FFC00
07F000
ENDCHAR
STARTCHAR uni1EE0
ENCODING 7904
SWIDTH 777 0
DWIDTH 26 0
BBX 26 30 2 0
BITMAP
003C3000
007FF000
007FE000
0061C000
00000000
00FE07C0
07FFC7C0
0FFFE7C0
1F83F7C0
3E00F9C0
3C0079C0
78003DC0
78003D80
F8003F80
F0001E00
F0001E00
F0001E00
F0001E00
F0001E00
F0001E00
F0001E00
F8003E00
78003C00
78003C00
3C007800
3E00F800
1F83F000
0FFFE000
07FFC000
00FE0000
ENDCHAR
STARTCHAR uni1EE1
ENCODING 7905
SWIDTH 614 0
DWIDTH 21 0
BBX 20 23 2 0
BITMAP
01E180
03FF80
03FF00
030E00
000000
07F1F0
1FFDF0
3FFFF0
7C1FF0
780F70
780F70
F007F0
F007E0
F007E0
F00780
F00780
F00780
780F00
780F00
7C1F00
3FFE00
1FFC00
07F000
ENDCHAR
STARTCHAR uni1EE2
ENCODING 7906
SWIDTH 777 0
DWIDTH 26 0
BBX 26 30 2 -5
BITMAP
00FE07C0
07FFC7C0
0FFFE7C0
1F83F7C0
3E00F9C0
3C0079C0
78003DC0
78003D80
F8003F80
F0001E00
F0001E00
F0001E00
F0001E00
F0001E00
F0001E00
F0001E00
F8003E00
78003C00
78003C00
3C007800
3E00F800
1F83F000
0FFFE000
07FFC000
00FE0000
00000000
001C0000
001C0000
001C0000
001C0000
ENDCHAR
STARTCHAR uni1EE3
ENCODING 7907
SWIDTH 614 0
DWIDTH 21 0
BBX 20 23 2 -5
BITMAP
07F1F0
1FFDF0
3FFFF0
7C1FF0
780F70
780F70
F007F0
F007E0
F007E0
F00780
F00780
F00780
780F00
780F00
7C1F00
3FFE00
1FFC00
07F000
000000
00E000
00E000
00E000
00E000
ENDCHAR
STARTCHAR uni1EE4
ENCODING 7908
SWIDTH 693 0
DWIDTH 24 0
BBX 18 30 3 -5
BITMAP
F001C0
F001C0
F001C0
F001C0
F001C0
F001C0
F001C0
F001C0
F001C0
F001C0
F001C0
F001C0
F001C0
F001C0
F001C0
F001C0
F001C0
F001C0
F001C0
F803C0
780380
7E0780
3FFF00
1FFE00
07F800
000000
01C000
01C000
01C000
01C000
ENDCHAR
STARTCHAR uni1EE5
ENCODING 7909
SWIDTH 620 0
DWIDTH 21 0
BBX 15 23 3 -5
BITMAP
F01E
F01E
F01E
F01E
F01E
F01E
F01E
F01E
F01E
F01E
F01E
F01E
F03E
F07E
F8FE
7FDE
7F9E
1E1E
0000
0380
0380
0380
0380
ENDCHAR
STARTCHAR uni1EE8
ENCODING 7912
SWIDTH 693 0
DWIDTH 24 0
BBX 21 31 3 0
BITMAP
000F00
001E00
001C00
003800
007000
000000
F001F8
F001F8
F001F8
F001F8
F001F8
F001F8
F001F8
F001F0
F001F0
F001C0
F001C0
F001C0
F001C0
F001C0
F001C0
F001C0
F001C0
F001C0
F001C0
F803C0
780380
7E0780
3FFF00
1FFE00
07F800
ENDCHAR
STARTCHAR uni1EE9
ENCODING 7913
SWIDTH 620 0
DWIDTH 21 0
BBX 19 24 3 0
BITMAP
001E00
003C00
003800
007000
00E000
000000
F01FE0
F01FE0
F01FE0
F01FE0
F01EE0
F01EE0
F01EE0
F01EC0
F01FC0
F01F00
F01E00
F01E00
F03E00
F07E00
F8FE00
7FDE00
7F9E00
1E1E00
ENDCHAR
STARTCHAR uni1EEA
ENCODING 7914
SWIDTH 693 0
DWIDTH 24 0
BBX 21 31 3 0
BITMAP
01E000
00F000
007000
003800
001C00
000000
F001F8
F001F8
F001F8
F001F8
F001F8
F001F8
F001F8
F001F0
F001F0
F001C0
F001C0
F001C0
F001C0
F001C0
F001C0
F001C0
F001C0
F001C0
F001C0
F803C0
780380
7E0780
3FFF00
1FFE00
07F800
ENDCHAR
STARTCHAR uni1EEB
ENCODING 7915
SWIDTH 620 0
DWIDTH 21 0
BBX 19 24 3 0
BITMAP
03C000
01E000
00E000
007000
003800
000000
F01FE0
F01FE0
F01FE0
F01FE0
F01EE0
F01EE0
F01EE0
F01EC0
F01FC0
F01F00
F01E00
F01E00
F03E00
F07E00
F8FE00
7FDE00
7F9E00
1E1E00
ENDCHAR
STARTCHAR uni1EEE
ENCODING 7918
SWIDTH 693 0
DWIDTH 24 0
BBX 21 30 3 0
BITMAP
01E180
03FF80
03FF00
030E00
000000
F001F8
F001F8
F001F8
F001F8
F001F8
F001F8
F001F8
F001F0
F001F0
F001C0
F001C0
F001C0
F001C0
F001C0
F001C0
F001C0
F001C0
F001C0
F001C0
F803C0
780380
7E0780
3FFF00
1FFE00
07F800
ENDCHAR
STARTCHAR uni1EEF
ENCODING 7919
SWIDTH 620 0
DWIDTH 21 0
BBX 19 23 3 0
BITMAP
03C300
07FF00
07FE00
061C00
000000
F01FE0
F01FE0
F01FE0
F01FE0
F01EE0
F01EE0
F01EE0
F01EC0
F01FC0
F01F00
F01E00
F01E00
F03E00
F07E00
F8FE00
7FDE00
7F9E00
1E1E00
ENDCHAR
STARTCHAR uni1EF0
ENCODING 7920
SWIDTH 693 0
DWIDTH 24 0
BBX 21 30 3 -5
BITMAP
F001F8
F001F8
F001F8
F001F8
F001F8
F001F8
F001F8
F001F0
F001F0
F001C0
F001C0
F001C0
F001C0
F001C0
F001C0
F001C0
F001C0
F001C0
F001C0
F803C0
780380
7E0780
3FFF00
1FFE00
07F800
000000
00E000
00E000
00E000
00E000
ENDCHAR
STARTCHAR uni1EF1
ENCODING 7921
SWIDTH 620 0
DWIDTH 21 0
BBX 19 23 3 -5
BITMAP
F01FE0
F01FE0
F01FE0
F01FE0
F01EE0
F01EE0
F01EE0
F01EC0
F01FC0
F01F00
F01E00
F01E00
F03E00
F07E00
F8FE00
7FDE00
7F9E00
1E1E00
000000
01C000
01C000
01C000
01C000
ENDCHAR
STARTCHAR Ygrave
ENCODING 7922
SWIDTH 623 0
DWIDTH 21 0
BBX 21 31 0 0
BITMAP
03C000
01E000
00E000
007000
003800
000000
F00078
780070
7C00F0
3C01E0
3E01C0
1E03C0
1F0380
0F8700
078F00
07CE00
03DE00
03FC00
01F800
01F800
00F000
00F000
00F000
00F000
00F000
00F000
00F000
00F000
00F000
00F000
00F000
ENDCHAR
STARTCHAR ygrave
ENCODING 7923
SWIDTH 568 0
DWIDTH 18 0
BBX 17 31 0 -7
BITMAP
0F0000
078000
038000
01C000
00E000
000000
F00380
F80700
780700
780700
7C0E00
3C0E00
3C1E00
3E1C00
1E1C00
1E3800
1F3800
0F7800
0F7000
07F000
07E000
07E000
03E000
03C000
03C000
03C000
038000
078000
070000
070000
0F0000
ENDCHAR
STARTCHAR uni1EF4
ENCODING 7924
SWIDTH 623 0
DWIDTH 21 0
BBX 21 30 0 -5
BITMAP
F00078
780070
7C00F0
3C01E0
3E01C0
1E03C0
1F0380
0F8700
078F00
07CE00
03DE00
03FC00
01F800
01F800
00F000
00F000
00F000
00F000
00F000
00F000
00F000
00F000
00F000
00F000
00F000
000000
007000
007000
007000
007000
ENDCHAR
STARTCHAR uni1EF5
ENCODING 7925
SWIDTH 568 0
DWIDTH 18 0
BBX 17 30 0 -12
BITMAP
F00380
F80700
780700
780700
7C0E00
3C0E00
3C1E00
3E1C00
1E1C00
1E3800
1F3800
0F7800
0F7000
07F000
07E000
07E000
03E000
03C000
03C000
03C000
038000
078000
070000
070000
0F0000
000000
038000
038000
038000
038000
ENDCHAR
STARTCHAR uni1EF8
ENCODING 7928
SWIDTH 623 0
DWIDTH 21 0
BBX 21 30 0 0
BITMAP
03C300
07FF00
07FE00
061C00
000000
F00078
780070
7C00F0
3C01E0
3E01C0
1E03C0
1F0380
0F8700
078F00
07CE00
03DE00
03FC00
01F800
01F800
00F000
00F000
00F000
00F000
00F000
00F000
00F000
00F000
00F000
00F000
00F000
ENDCHAR
STARTCHAR uni1EF9
ENCODING 7929
SWIDTH 568 0
DWIDTH 18 0
BBX 17 30 0 -7
BITMAP
0F0C00
1FFC00
1FF800
187000
000000
F00380
F80700
780700
780700
7C0E00
3C0E00
3C1E00
3E1C00
1E1C00
1E3800
1F3800
0F7800
0F7000
07F000
07E000
07E000
03E000
03C000
03C000
03C000
038000
078000
070000
070000
0F0000
ENDCHAR
STARTCHAR uni2000
ENCODING 8192
SWIDTH 500 0
DWIDTH 17 0
BBX 1 1 0 0
BITMAP
00
ENDCHAR
STARTCHAR uni2001
ENCODING 8193
SWIDTH 1000 0
DWIDTH 33 0
BBX 1 1 0 0
BITMAP
00
ENDCHAR
STARTCHAR uni2002
ENCODING 8194
SWIDTH 500 0
DWIDTH 17 0
BBX 1 1 0 0
BITMAP
00
ENDCHAR
STARTCHAR uni2003
ENCODING 8195
SWIDTH 1000 0
DWIDTH 33 0
BBX 1 1 0 0
BITMAP
00
ENDCHAR
STARTCHAR uni2004
ENCODING 8196
SWIDTH 333 0
DWIDTH 11 0
BBX 1 1 0 0
BITMAP
00
ENDCHAR
STARTCHAR uni2005
ENCODING 8197
SWIDTH 250 0
DWIDTH 8 0
BBX 1 1 0 0
BITMAP
00
ENDCHAR
STARTCHAR uni2006
ENCODING 8198
SWIDTH 167 0
DWIDTH 6 0
BBX 1 1 0 0
BITMAP
00
ENDCHAR
STARTCHAR uni2007
ENCODING 8199
SWIDTH 633 0
DWIDTH 21 0
BBX 1 1 0 0
BITMAP
00
ENDCHAR
STARTCHAR uni2008
ENCODING 8200
SWIDTH 316 0
DWIDTH 11 0
BBX 1 1 0 0
BITMAP
00
ENDCHAR
STARTCHAR uni2009
ENCODING 8201
SWIDTH 200 0
DWIDTH 7 0
BBX 1 1 0 0
BITMAP
00
ENDCHAR
STARTCHAR uni200A
ENCODING 8202
SWIDTH 100 0
DWIDTH 3 0
BBX 1 1 0 0
BITMAP
00
ENDCHAR
STARTCHAR uni200B
ENCODING 8203
SWIDTH 0 0
DWIDTH 0 0
BBX 1 1 0 0
BITMAP
00
ENDCHAR
STARTCHAR uni2010
ENCODING 8208
SWIDTH 325 0
DWIDTH 11 0
BBX 7 3 2 9
BITMAP
FE
FE
FE
ENDCHAR
STARTCHAR uni2011
ENCODING 8209
SWIDTH 325 0
DWIDTH 11 0
BBX 7 3 2 9
BITMAP
FE
FE
FE
ENDCHAR
STARTCHAR figuredash
ENCODING 8210
SWIDTH 500 0
DWIDTH 17 0
BBX 14 3 2 9
BITMAP
FFFC
FFFC
FFFC
ENDCHAR
STARTCHAR endash
ENCODING 8211
SWIDTH 500 0
DWIDTH 17 0
BBX 14 3 2 9
BITMAP
FFFC
FFFC
FFFC
ENDCHAR
STARTCHAR emdash
ENCODING 8212
SWIDTH 1000 0
DWIDTH 34 0
BBX 31 2 2 9
BITMAP
FFFFFFFE
FFFFFFFE
ENDCHAR
STARTCHAR afii00208
ENCODING 8213
SWIDTH 1000 0
DWIDTH 34 0
BBX 31 2 2 9
BITMAP
FFFFFFFE
FFFFFFFE
ENDCHAR
STARTCHAR quoteleft
ENCODING 8216
SWIDTH 229 0
DWIDTH 8 0
BBX 5 10 1 16
BITMAP
38
70
E0
E0
E0
F8
F8
F8
F8
F8
ENDCHAR
STARTCHAR quoteright
ENCODING 8217
SWIDTH 229 0
DWIDTH 8 0
BBX 5 10 1 16
BITMAP
F8
F8
F8
F8
38
38
38
30
70
C0
ENDCHAR
STARTCHAR quotesinglbase
ENCODING 8218
SWIDTH 229 0
DWIDTH 8 0
BBX 4 11 2 -6
BITMAP
F0
F0
F0
F0
F0
70
70
70
60
E0
C0
ENDCHAR
STARTCHAR quotereversed
ENCODING 8219
SWIDTH 229 0
DWIDTH 8 0
BBX 5 10 1 16
BITMAP
F8
F8
F8
F8
E0
E0
E0
60
70
18
ENDCHAR
STARTCHAR quotedblleft
ENCODING 8220
SWIDTH 373 0
DWIDTH 13 0
BBX 9 9 2 17
BITMAP
3180
7380
6300
E700
E700
F780
F780
F780
F780
ENDCHAR
STARTCHAR quotedblright
ENCODING 8221
SWIDTH 373 0
DWIDTH 13 0
BBX 9 9 2 17
BITMAP
F780
F780
F780
F780
7380
7380
6300
E700
C600
ENDCHAR
STARTCHAR quotedblbase
ENCODING 8222
SWIDTH 373 0
DWIDTH 13 0
BBX 9 10 2 -6
BITMAP
F780
F780
F780
F780
7380
7380
7380
6300
E700
8400
ENDCHAR
STARTCHAR uni201F
ENCODING 8223
SWIDTH 373 0
DWIDTH 13 0
BBX 9 9 2 17
BITMAP
F780
F780
F780
F780
E700
E700
6300
7380
3180
ENDCHAR
STARTCHAR dagger
ENCODING 8224
SWIDTH 633 0
DWIDTH 21 0
BBX 15 31 3 -6
BITMAP
0380
0380
0380
0380
0380
0380
0380
0380
0380
FFFE
FFFE
0380
0380
0380
0380
0380
0380
0380
0380
0380
0380
0380
0380
0380
0380
0380
0380
0380
0380
0380
0380
ENDCHAR
STARTCHAR daggerdbl
ENCODING 8225
SWIDTH 633 0
DWIDTH 21 0
BBX 15 31 3 -6
BITMAP
0380
0380
0380
0380
0380
0380
0380
0380
0380
FFFE
FFFE
0380
0380
0380
0380
0380
0380
0380
0380
FFFE
FFFE
0380
0380
0380
0380
0380
0380
0380
0380
0380
0380
ENDCHAR
STARTCHAR bullet
ENCODING 8226
SWIDTH 633 0
DWIDTH 21 0
BBX 10 10 6 6
BITMAP
FFC0
FFC0
FFC0
FFC0
FFC0
FFC0
FFC0
FFC0
FFC0
FFC0
ENDCHAR
STARTCHAR ellipsis
ENCODING 8230
SWIDTH 1000 0
DWIDTH 34 0
BBX 26 4 4 0
BITMAP
F01E03C0
F01E03C0
F01E03C0
F01E03C0
ENDCHAR
STARTCHAR perthousand
ENCODING 8240
SWIDTH 1012 0
DWIDTH 34 0
BBX 32 25 1 0
BITMAP
1E007800
7F807000
7380F000
E1C1E000
E1C3C000
E1C38000
E1C78000
E1CF0000
E1CE0000
739E0000
7FBC0000
1E780000
0073C078
00F7E0FC
01EE71CE
03DC3B87
039C3B87
079C3B87
0F1C3B87
0E1C3B87
1E1C3B87
3C1C3B87
780E71CE
7007E0FC
F003C078
ENDCHAR
STARTCHAR guilsinglleft
ENCODING 8249
SWIDTH 331 0
DWIDTH 11 0
BBX 8 16 2 1
BITMAP
02
07
0F
1E
3C
38
78
F0
F0
78
38
3C
1E
0F
07
02
ENDCHAR
STARTCHAR guilsinglright
ENCODING 8250
SWIDTH 331 0
DWIDTH 11 0
BBX 8 16 1 1
BITMAP
40
E0
F0
78
3C
1C
1E
0F
0F
1E
1C
3C
78
F0
E0
40
ENDCHAR
STARTCHAR fraction
ENCODING 8260
SWIDTH 36 0
DWIDTH 1 0
BBX 21 25 -9 0
BITMAP
000078
0000F0
0000E0
0001E0
0003C0
000380
000780
000F00
000E00
001C00
003C00
007800
007000
00F000
01E000
01C000
038000
078000
0F0000
0E0000
1E0000
3C0000
380000
700000
F00000
ENDCHAR
STARTCHAR oneinferior
ENCODING 8321
SWIDTH 422 0
DWIDTH 13 0
BBX 4 15 -22 -8
BITMAP
F0
F0
30
30
30
30
30
30
30
30
30
30
30
30
30
ENDCHAR
STARTCHAR twoinferior
ENCODING 8322
SWIDTH 422 0
DWIDTH 13 0
BBX 9 15 -21 -8
BITMAP
3E00
FF00
C380
0180
0180
0180
0300
0700
0E00
1C00
3000
6000
E000
FF80
FF80
ENDCHAR
STARTCHAR threeinferior
ENCODING 8323
SWIDTH 422 0
DWIDTH 13 0
BBX 8 15 -21 -8
BITMAP
7C
FE
87
03
03
06
7C
7C
06
03
03
03
87
FE
FC
ENDCHAR
STARTCHAR uni20A5
ENCODING 8357
SWIDTH 934 0
DWIDTH 32 0
BBX 26 32 3 -7
BITMAP
00003800
00007800
00007000
00007000
0000E000
0000E000
0001E000
F0F9DE00
F3FFFF80
F7FFFF80
FE3FC7C0
FC1F83C0
F81F03C0
F01F03C0
F01E03C0
F01E03C0
F01E03C0
F01E03C0
F03E03C0
F03E03C0
F07E03C0
F07E03C0
F07E03C0
F0FE03C0
F0FE03C0
01E00000
01C00000
01C00000
03800000
03800000
07800000
07000000
ENDCHAR
STARTCHAR uni20A6
ENCODING 8358
SWIDTH 741 0
DWIDTH 25 0
BBX 20 25 3 0
BITMAP
F000E0
F800E0
F800E0
FC00E0
FE00E0
FE00E0
FF00E0
EF80E0
FFFFF0
FFFFF0
FFFFF0
E1E0E0
E1F0E0
E0F8E0
FFFFF0
FFFFF0
FFFFF0
E03EE0
E01FE0
E00FE0
E00FE0
E007E0
E003E0
E003E0
E001E0
ENDCHAR
STARTCHAR uni20A9
ENCODING 8361
SWIDTH 855 0
DWIDTH 29 0
BBX 29 25 0 0
BITMAP
F0078038
F00F8038
F00F8070
780F8070
780FC070
781FC0F0
781FC0E0
3C1FC0E0
3FFFFFE0
3FFFFFE0
3FFFFFC0
1E39E1C0
1E39F1C0
1E38F380
1FFFFF80
0FFFFF80
0FFFFF80
0F707F00
0FF07F00
07E07F00
07E07E00
07E07E00
07E03E00
03C03E00
03C03C00
ENDCHAR
STARTCHAR Euro
ENCODING 8364
SWIDTH 692 0
DWIDTH 24 0
BBX 26 25 -4 0
BITMAP
0003FC00
000FFFC0
003FFFC0
007E03C0
00F80040
00F00000
01F00000
01E00000
FFFFF000
FFFFF000
FFFFF000
03C00000
03C00000
03C00000
FFFFF000
FFFFF000
FFFFF000
01E00000
01F00000
00F00000
00F80040
007E03C0
003FFFC0
000FFF80
0003FC00
ENDCHAR
STARTCHAR uni20AD
ENCODING 8365
SWIDTH 653 0
DWIDTH 22 0
BBX 19 25 3 0
BITMAP
F00700
F00E00
F01E00
F03C00
F03800
F07800
F0F000
F1E000
F1C000
F3C000
F78000
FFFFE0
FFFFE0
FFFFE0
F7C000
F3E000
F1F000
F0F800
F0F800
F07C00
F03E00
F01F00
F01F80
F00F80
F007E0
ENDCHAR
STARTCHAR uni2103
ENCODING 8451
SWIDTH 955 0
DWIDTH 33 0
BBX 29 25 2 0
BITMAP
78007F80
FC01FFF8
CC07FFF8
CC0FC078
FC1F0008
781E0000
003E0000
003C0000
007C0000
00780000
00780000
00780000
00780000
00780000
00780000
00780000
007C0000
003C0000
003E0000
001E0000
001F0008
000FC078
0007FFF8
0001FFF0
00007F80
ENDCHAR
STARTCHAR uni2109
ENCODING 8457
SWIDTH 799 0
DWIDTH 27 0
BBX 24 25 2 0
BITMAP
783FFF
FC3FFF
CC3FFF
CC3C00
FC3C00
783C00
003C00
003C00
003C00
003C00
003C00
003FFC
003FFC
003FFC
003C00
003C00
003C00
003C00
003C00
003C00
003C00
003C00
003C00
003C00
003C00
ENDCHAR
STARTCHAR trademark
ENCODING 8482
SWIDTH 807 0
DWIDTH 27 0
BBX 26 13 0 12
BITMAP
FFE783C0
FFE7C3C0
FFE7C7C0
0E07C7C0
0E07EFC0
0E07EFC0
0E07FDC0
0E077DC0
0E077DC0
0E0739C0
0E0739C0
0E0739C0
0E0701C0
ENDCHAR
STARTCHAR uni212A
ENCODING 8490
SWIDTH 653 0
DWIDTH 22 0
BBX 19 25 3 0
BITMAP
F00700
F00E00
F01E00
F03C00
F03800
F07800
F0F000
F1E000
F1C000
F3C000
F78000
FF0000
FF8000
FF8000
F7C000
F3E000
F1F000
F0F800
F0F800
F07C00
F03E00
F01F00
F01F80
F00F80
F007E0
ENDCHAR
STARTCHAR uni212B
ENCODING 8491
SWIDTH 690 0
DWIDTH 23 0
BBX 23 32 0 0
BITMAP
003800
006C00
004400
006C00
003800
000000
000000
003C00
007C00
007E00
00FE00
00FE00
00FF00
01EF00
01CF80
03C780
038780
0387C0
0783C0
0703C0
0F01E0
0E01E0
0FFFF0
1FFFF0
1FFFF0
1C00F8
380078
38007C
78003C
70003C
70003E
E0001E
ENDCHAR
STARTCHAR uni2132
ENCODING 8498
SWIDTH 536 0
DWIDTH 18 0
BBX 14 25 3 0
BITMAP
003C
003C
003C
003C
003C
003C
003C
003C
003C
003C
003C
3FFC
3FFC
3FFC
003C
003C
003C
003C
003C
003C
003C
003C
FFFC
FFFC
FFFC
ENDCHAR
STARTCHAR universal
ENCODING 8704
SWIDTH 690 0
DWIDTH 23 0
BBX 23 25 0 0
BITMAP
E0001E
70003E
70003C
78003C
38007C
380078
1C00F8
1FFFF0
1FFFF0
0FFFF0
0E01E0
0F01E0
0703C0
0783C0
0387C0
038780
03C780
01CF80
01EF00
00FF00
00FE00
00FE00
007E00
007C00
003C00
ENDCHAR
STARTCHAR existential
ENCODING 8707
SWIDTH 542 0
DWIDTH 18 0
BBX 15 25 3 0
BITMAP
7FFE
7FFE
7FFE
001E
001E
001E
001E
001E
001E
001E
001E
3FFE
3FFE
3FFE
001E
001E
001E
001E
001E
001E
001E
001E
FFFE
FFFE
FFFE
ENDCHAR
STARTCHAR uni2204
ENCODING 8708
SWIDTH 542 0
DWIDTH 18 0
BBX 16 32 3 -3
BITMAP
0007
000F
000E
000E
7FFE
7FFE
7FFE
003E
007E
007E
007E
00FE
00FE
01FE
01DE
3FFE
3FFE
3FFE
079E
071E
0F1E
0E1E
0E1E
1C1E
1C1E
3C1E
FFFE
FFFE
FFFE
7000
F000
E000
ENDCHAR
STARTCHAR minus
ENCODING 8722
SWIDTH 633 0
DWIDTH 21 0
BBX 20 3 1 9
BITMAP
FFFFF0
FFFFF0
FFFFF0
ENDCHAR
STARTCHAR fraction
ENCODING 8725
SWIDTH 36 0
DWIDTH 1 0
BBX 21 25 -9 0
BITMAP
000078
0000F0
0000E0
0001E0
0003C0
000380
000780
000F00
000E00
001C00
003C00
007800
007000
00F000
01E000
01C000
038000
078000
0F0000
0E0000
1E0000
3C0000
380000
700000
F00000
ENDCHAR
STARTCHAR periodcentered
ENCODING 8729
SWIDTH 316 0
DWIDTH 21 0
BBX 4 4 9 8
BITMAP
F0
F0
F0
F0
ENDCHAR
STARTCHAR uni2236
ENCODING 8758
SWIDTH 316 0
DWIDTH 11 0
BBX 4 18 3 0
BITMAP
F0
F0
F0
F0
00
00
00
00
00
00
00
00
00
00
F0
F0
F0
F0
ENDCHAR
STARTCHAR uni2259
ENCODING 8793
SWIDTH 633 0
DWIDTH 21 0
BBX 20 15 1 5
BITMAP
00F800
00F800
01DC00
038E00
070700
000000
FFFFF0
FFFFF0
FFFFF0
000000
000000
000000
FFFFF0
FFFFF0
FFFFF0
ENDCHAR
STARTCHAR uni225A
ENCODING 8794
SWIDTH 633 0
DWIDTH 21 0
BBX 20 15 1 5
BITMAP
070700
038E00
01DC00
00F800
00F800
000000
FFFFF0
FFFFF0
FFFFF0
000000
000000
000000
FFFFF0
FFFFF0
FFFFF0
ENDCHAR
STARTCHAR notequal
ENCODING 8800
SWIDTH 633 0
DWIDTH 21 0
BBX 20 32 1 -6
BITMAP
0001C0
0003C0
000380
000380
000700
000700
000F00
000E00
001E00
001C00
001C00
003C00
FFFFF0
FFFFF0
FFFFF0
007000
00E000
00E000
FFFFF0
FFFFF0
FFFFF0
038000
038000
070000
070000
0F0000
0E0000
0E0000
1C0000
1C0000
3C0000
380000
ENDCHAR
STARTCHAR equivalence
ENCODING 8801
SWIDTH 633 0
DWIDTH 21 0
BBX 20 11 0 5
BITMAP
FFFFF0
FFFFF0
FFFFF0
000000
FFFFF0
FFFFF0
FFFFF0
000000
FFFFF0
FFFFF0
FFFFF0
ENDCHAR
STARTCHAR uni2262
ENCODING 8802
SWIDTH 633 0
DWIDTH 21 0
BBX 20 32 0 -5
BITMAP
0001C0
0003C0
000380
000380
000700
000700
000F00
000E00
001E00
001C00
001C00
FFFFF0
FFFFF0
FFFFF0
007000
FFFFF0
FFFFF0
FFFFF0
01E000
FFFFF0
FFFFF0
FFFFF0
038000
070000
070000
0F0000
0E0000
0E0000
1C0000
1C0000
3C0000
380000
ENDCHAR
STARTCHAR lessequal
ENCODING 8804
SWIDTH 633 0
DWIDTH 21 0
BBX 20 25 1 -4
BITMAP
000010
000070
0001F0
0007F0
001FC0
007F00
01FC00
07F000
1FC000
3F0000
FC0000
3F0000
1FC000
07F000
01FC00
007E00
001F80
0007E0
0001F0
000070
000010
000000
FFFFF0
FFFFF0
FFFFF0
ENDCHAR
STARTCHAR greaterequal
ENCODING 8805
SWIDTH 633 0
DWIDTH 21 0
BBX 20 25 1 -4
BITMAP
800000
E00000
F80000
7E0000
1F8000
0FE000
03F800
00FE00
003F80
000FC0
0003F0
000FC0
003F80
00FE00
03F800
0FE000
3F8000
FE0000
F80000
E00000
800000
000000
FFFFF0
FFFFF0
FFFFF0
ENDCHAR
STARTCHAR uni226E
ENCODING 8814
SWIDTH 633 0
DWIDTH 21 0
BBX 20 32 1 -5
BITMAP
0001C0
0003C0
000380
000380
000700
000700
000F10
000E70
001FF0
001FF0
001FC0
007F00
01FC00
07F800
1FF000
3F7000
FCE000
3FE000
1FE000
07F000
03FC00
03FE00
039F80
0707E0
0701F0
0F0070
0E0010
0E0000
1C0000
1C0000
3C0000
380000
ENDCHAR
STARTCHAR uni226F
ENCODING 8815
SWIDTH 633 0
DWIDTH 21 0
BBX 20 32 1 -5
BITMAP
0001C0
0003C0
000380
000380
000700
000700
800F00
E00E00
F81E00
7E1C00
1F9C00
0FFC00
03F800
00FE00
007F80
007FC0
00E3F0
00EFC0
01FF80
01FE00
03F800
0FE000
3F8000
FF0000
FF0000
EF0000
8E0000
0E0000
1C0000
1C0000
3C0000
380000
ENDCHAR
STARTCHAR uni2270
ENCODING 8816
SWIDTH 633 0
DWIDTH 21 0
BBX 20 32 1 -7
BITMAP
0001C0
0003C0
000380
000380
000710
000770
000FF0
000FF0
001FC0
007F00
01FC00
07FC00
1FF800
3F7800
FC7000
3F7000
1FE000
07F000
01FC00
01FE00
03DF80
0387E0
0381F0
070070
070010
0F0000
FFFFF0
FFFFF0
FFFFF0
1C0000
3C0000
380000
ENDCHAR
STARTCHAR uni2271
ENCODING 8817
SWIDTH 633 0
DWIDTH 21 0
BBX 20 32 1 -7
BITMAP
0001C0
0003C0
000380
000380
800700
E00700
F80F00
7E0E00
1F9E00
0FFC00
03FC00
00FE00
003F80
007FC0
0073F0
007FC0
00FF80
00FE00
03F800
0FE000
3FC000
FF8000
FB8000
E70000
870000
0F0000
FFFFF0
FFFFF0
FFFFF0
1C0000
3C0000
380000
ENDCHAR
STARTCHAR fi
ENCODING -1
SWIDTH 645 0
DWIDTH 22 0
BBX 18 27 1 0
BITMAP
03E000
07F000
0FF3C0
0F13C0
1E03C0
1E03C0
1E0000
1E0000
1E0000
FFFFC0
FFFFC0
FFFFC0
1E03C0
1E03C0
1E03C0
1E03C0
1E03C0
1E03C0
1E03C0
1E03C0
1E03C0
1E03C0
1E03C0
1E03C0
1E03C0
1E03C0
1E03C0
ENDCHAR
STARTCHAR fl
ENCODING -1
SWIDTH 645 0
DWIDTH 22 0
BBX 18 27 1 0
BITMAP
03FFC0
07FFC0
0FFFC0
1F07C0
1E03C0
1E03C0
1E03C0
1E03C0
1E03C0
FFC3C0
FFC3C0
FFC3C0
1E03C0
1E03C0
1E03C0
1E03C0
1E03C0
1E03C0
1E03C0
1E03C0
1E03C0
1E03C0
1E03C0
1E03C0
1E03C0
1E03C0
1E03C0
ENDCHAR
ENDFONT
